<!DOCTYPE svg PUBLIC "-//W3C//DTD SVG 20010904//EN" "http://www.w3.org/TR/2001/REC-SVG-20010904/DTD/svg10.dtd">
<svg version="1.0" xmlns="http://www.w3.org/2000/svg" width="64px" height="64px" viewBox="0 0 640 640" preserveAspectRatio="xMidYMid meet">
<g id="layer101" fill="#0a0a00" stroke="none">
 <path d="M0 320 l0 -320 320 0 320 0 0 320 0 320 -320 0 -320 0 0 -320z"/>
 </g>
<g id="layer102" fill="#302000" stroke="none">
 <path d="M82 497 c-55 -66 -69 -205 -28 -292 34 -73 69 -110 138 -144 50 -26 73 -31 129 -31 72 0 154 24 142 43 -3 6 -1 7 6 3 31 -20 139 109 125 150 -4 14 -3 15 4 6 13 -19 22 18 22 99 0 52 -6 77 -27 120 l-28 54 -236 3 c-187 2 -239 0 -247 -11z"/>
 </g>
<g id="layer103" fill="#472000" stroke="none">
 <path d="M60 303 c0 -70 79 -197 110 -178 7 4 10 22 8 41 -4 35 8 46 18 19 5 -12 10 -13 20 -4 11 9 18 8 30 -2 13 -10 17 -10 25 2 5 8 8 21 8 29 -2 28 1 37 14 38 6 0 22 4 35 7 17 6 22 3 22 -10 0 -9 7 -24 16 -32 13 -14 17 -14 25 -2 7 12 9 12 9 0 0 -11 4 -9 15 5 11 14 17 16 23 6 6 -9 14 -7 33 9 13 12 17 20 9 17 -8 -3 -20 2 -27 11 -9 13 -8 20 5 35 16 18 16 19 -8 13 -19 -5 -29 -1 -38 13 -11 19 -24 20 -182 20 l-170 0 0 -37z m340 13 c0 -3 -4 -8 -10 -11 -5 -3 -10 -1 -10 4 0 6 5 11 10 11 6 0 10 -2 10 -4z m-43 -23 c2 -6 -1 -14 -7 -18 -17 -10 -40 2 -34 19 6 16 36 15 41 -1z m28 -13 c3 -5 1 -10 -4 -10 -6 0 -11 5 -11 10 0 6 2 10 4 10 3 0 8 -4 11 -10z m-255 -40 c0 -5 -6 -10 -14 -10 -8 0 -18 5 -21 10 -3 6 3 10 14 10 12 0 21 -4 21 -10z m267 -7 c-4 -3 -7 0 -7 7 0 7 3 10 7 7 3 -4 3 -10 0 -14z"/>
 <path d="M463 333 c4 -3 10 -3 14 0 3 4 0 7 -7 7 -7 0 -10 -3 -7 -7z"/>
 <path d="M523 333 c4 -3 2 -13 -5 -20 -9 -11 -9 -17 3 -24 23 -14 26 -11 21 21 -2 17 -9 30 -15 30 -6 0 -7 -3 -4 -7z"/>
 <path d="M568 333 c7 -3 16 -2 19 1 4 3 -2 6 -13 5 -11 0 -14 -3 -6 -6z"/>
 <path d="M555 300 c3 -5 8 -10 11 -10 2 0 4 5 4 10 0 6 -5 10 -11 10 -5 0 -7 -4 -4 -10z"/>
 <path d="M520 159 c0 -5 5 -7 10 -4 6 3 10 8 10 11 0 2 -4 4 -10 4 -5 0 -10 -5 -10 -11z"/>
 <path d="M440 150 c0 -7 3 -10 7 -7 3 4 3 10 0 14 -4 3 -7 0 -7 -7z"/>
 <path d="M250 90 l-23 -17 24 -6 c56 -15 175 -4 163 15 -3 5 -11 4 -19 -2 -11 -9 -19 -8 -35 3 -11 7 -17 16 -14 20 15 15 -75 3 -96 -13z"/>
 </g>

</svg>