<!DOCTYPE svg PUBLIC "-//W3C//DTD SVG 20010904//EN" "http://www.w3.org/TR/2001/REC-SVG-20010904/DTD/svg10.dtd">
<svg version="1.0" xmlns="http://www.w3.org/2000/svg" width="64px" height="64px" viewBox="0 0 640 640" preserveAspectRatio="xMidYMid meet">
<g id="layer101" fill="#0f0301" stroke="none">
 <path d="M0 320 l0 -320 320 0 320 0 0 320 0 320 -320 0 -320 0 0 -320z"/>
 </g>
<g id="layer102" fill="#300d05" stroke="none">
 <path d="M40 485 l0 -125 285 0 285 0 0 125 0 125 -285 0 -285 0 0 -125z"/>
 <path d="M0 165 l0 -125 145 0 145 0 0 125 0 125 -145 0 -145 0 0 -125z"/>
 <path d="M360 165 l0 -125 140 0 140 0 0 125 0 125 -140 0 -140 0 0 -125z"/>
 </g>

</svg>