<!DOCTYPE svg PUBLIC "-//W3C//DTD SVG 20010904//EN" "http://www.w3.org/TR/2001/REC-SVG-20010904/DTD/svg10.dtd">
<svg version="1.0" xmlns="http://www.w3.org/2000/svg" width="64px" height="64px" viewBox="0 0 640 640" preserveAspectRatio="xMidYMid meet">
<g id="layer101" fill="#100b1b" stroke="none">
 <path d="M0 320 l0 -320 320 0 320 0 0 320 0 320 -320 0 -320 0 0 -320z"/>
 </g>
<g id="layer102" fill="#17172e" stroke="none">
 <path d="M63 633 c20 -5 23 -23 5 -23 -7 -1 4 -10 26 -20 21 -11 43 -17 48 -14 6 4 8 -2 6 -12 -2 -14 -11 -19 -33 -18 -35 2 -95 25 -95 36 0 4 -4 8 -10 8 -16 0 -13 -507 3 -513 9 -4 9 -7 -1 -18 -19 -20 -14 -46 10 -53 43 -11 138 -7 138 7 0 9 2 9 8 0 11 -17 403 -17 415 0 7 9 10 9 14 0 2 -7 11 -13 18 -13 23 0 23 25 -2 50 -14 15 -21 18 -18 9 9 -23 -45 -37 -57 -15 -5 9 -16 16 -24 16 -12 0 -12 4 -4 20 9 16 8 22 -5 26 -8 3 -13 10 -10 14 3 4 -5 10 -16 13 -12 3 -18 10 -14 16 3 6 -1 11 -9 11 -8 0 -18 5 -22 12 -5 8 -2 9 9 5 11 -4 17 -1 17 8 0 19 56 0 85 -29 12 -12 32 -29 45 -39 21 -15 21 -16 3 -7 -30 14 -38 13 -24 -4 6 -8 25 -16 42 -18 l29 -5 -1 247 0 247 -29 31 -28 31 -269 0 c-147 -1 -260 -3 -250 -6z m152 -93 c4 -11 10 -18 15 -15 5 3 12 0 16 -6 4 -7 3 -9 -3 -6 -6 4 -13 -1 -16 -12 -2 -11 3 -23 14 -30 11 -6 19 -16 19 -22 0 -8 -5 -7 -15 1 -9 7 -41 14 -73 16 -39 3 -52 1 -42 -6 9 -6 10 -10 3 -10 -11 0 -76 59 -67 61 19 6 34 3 68 -14 21 -10 35 -13 31 -6 -6 9 -1 10 19 5 31 -8 34 6 6 36 -10 12 -17 25 -14 30 3 4 1 8 -4 8 -8 0 -32 43 -32 58 0 13 68 -67 75 -88z m50 80 c3 -5 1 -10 -4 -10 -6 0 -11 5 -11 10 0 6 2 10 4 10 3 0 8 -4 11 -10z m55 -6 c0 -2 -9 -4 -21 -4 -11 0 -18 4 -14 10 5 8 35 3 35 -6z m-190 -4 c0 -5 -2 -10 -4 -10 -3 0 -8 5 -11 10 -3 6 -1 10 4 10 6 0 11 -4 11 -10z m230 -20 c0 -5 -9 -10 -20 -10 -11 0 -20 5 -20 10 0 6 9 10 20 10 11 0 20 -4 20 -10z m208 -21 c17 -27 0 -24 -27 5 -21 22 -21 24 -4 20 10 -3 24 -14 31 -25z m-281 -29 c10 0 25 -5 33 -10 11 -7 9 -8 -10 -6 -45 6 -85 19 -92 30 -16 24 -7 26 21 7 16 -12 37 -21 48 -21z m208 20 c3 -5 1 -10 -4 -10 -6 0 -11 5 -11 10 0 6 2 10 4 10 3 0 8 -4 11 -10z m-325 -40 c0 -5 -7 -7 -15 -4 -8 4 -15 8 -15 10 0 2 7 4 15 4 8 0 15 -4 15 -10z m-143 -17 c-4 -3 -7 0 -7 7 0 7 3 10 7 7 3 -4 3 -10 0 -14z m53 -29 c0 -2 -7 -4 -15 -4 -8 0 -15 4 -15 10 0 5 7 7 15 4 8 -4 15 -8 15 -10z m-50 -9 c0 -8 5 -15 10 -15 6 0 10 -5 10 -11 0 -14 -18 -2 -30 22 -7 13 -7 19 0 19 5 0 10 -7 10 -15z m380 -57 c0 -5 -11 4 -25 20 -14 17 -25 34 -25 38 0 5 11 -4 25 -20 14 -16 25 -33 25 -38z m-197 15 c-3 -7 -9 -11 -13 -8 -5 3 -11 1 -15 -5 -4 -6 -11 -8 -16 -5 -12 8 10 31 31 31 10 0 16 -6 13 -13z m-66 0 c-4 -3 -10 -3 -14 0 -3 4 0 7 7 7 7 0 10 -3 7 -7z m-70 -10 c-4 -3 -10 -3 -14 0 -3 4 0 7 7 7 7 0 10 -3 7 -7z m190 0 c-4 -3 -10 -3 -14 0 -3 4 0 7 7 7 7 0 10 -3 7 -7z m73 -34 c0 -15 -21 -21 -35 -9 -8 7 -25 10 -37 7 -22 -6 -48 7 -48 24 0 5 10 5 23 1 28 -10 59 -4 51 10 -4 5 5 2 20 -7 14 -10 26 -21 26 -26z m-193 4 c-4 -3 -7 0 -7 7 0 7 3 10 7 7 3 -4 3 -10 0 -14z m373 -18 c7 -9 11 -17 8 -20 -2 -2 -12 4 -21 15 -9 11 -13 20 -8 20 5 0 14 -7 21 -15z m-153 -2 c-12 -3 -16 -10 -12 -24 5 -14 3 -17 -9 -13 -32 12 -14 43 24 42 10 0 9 -2 -3 -5z m60 0 c-4 -3 -10 -3 -14 0 -3 4 0 7 7 7 7 0 10 -3 7 -7z m-237 -13 c0 -5 -2 -10 -4 -10 -3 0 -8 5 -11 10 -3 6 -1 10 4 10 6 0 11 -4 11 -10z m118 -20 c-10 -15 -24 -20 -60 -20 -27 0 -48 4 -48 9 0 5 17 8 38 7 20 -1 46 4 57 11 26 17 27 17 13 -7z m177 10 c3 -5 4 -10 1 -10 -3 0 -8 5 -11 10 -3 6 -4 10 -1 10 3 0 8 -4 11 -10z m82 3 c-4 -3 -10 -3 -14 0 -3 4 0 7 7 7 7 0 10 -3 7 -7z m-533 -21 c3 -5 -1 -9 -9 -9 -8 0 -12 4 -9 9 3 4 7 8 9 8 2 0 6 -4 9 -8z m153 -19 c-4 -3 -7 0 -7 7 0 7 3 10 7 7 3 -4 3 -10 0 -14z m178 -10 c20 -1 25 2 21 13 -7 18 5 18 30 -2 10 -8 13 -12 5 -8 -11 5 -13 3 -8 -9 7 -19 -9 -22 -33 -7 -9 6 -17 5 -21 -1 -9 -16 -48 11 -42 29 5 11 7 11 14 0 5 -7 20 -14 34 -15z m-52 -34 c19 -20 37 -25 37 -10 0 5 15 6 33 2 17 -4 36 -8 42 -9 5 0 11 -5 13 -11 2 -6 -6 -8 -20 -4 -13 3 -39 7 -58 7 -40 2 -104 28 -115 46 -13 20 47 2 68 -21z m151 3 c3 -5 -1 -9 -9 -9 -8 0 -12 4 -9 9 3 4 7 8 9 8 2 0 6 -4 9 -8z m-359 -42 c3 -5 4 -10 1 -10 -3 0 -8 5 -11 10 -3 6 -4 10 -1 10 3 0 8 -4 11 -10z m380 0 c3 -5 2 -10 -4 -10 -5 0 -13 5 -16 10 -3 6 -2 10 4 10 5 0 13 -4 16 -10z m45 6 c0 -2 -7 -6 -15 -10 -8 -3 -15 -1 -15 4 0 6 7 10 15 10 8 0 15 -2 15 -4z m-223 -23 c-4 -3 -10 -3 -14 0 -3 4 0 7 7 7 7 0 10 -3 7 -7z m27 -42 c-2 -3 -12 3 -22 13 -16 17 -16 18 5 5 12 -7 20 -15 17 -18z m91 -4 c14 -14 14 -17 2 -17 -9 0 -18 -6 -21 -12 -3 -7 -4 1 0 17 4 23 3 27 -7 18 -12 -12 -39 -7 -39 7 0 14 47 4 65 -13z m172 16 c-4 -3 -10 -3 -14 0 -3 4 0 7 7 7 7 0 10 -3 7 -7z m33 -28 c0 -1 -12 -2 -26 -2 -17 0 -22 2 -13 7 10 7 39 3 39 -5z m-603 -12 c-4 -3 -7 0 -7 7 0 7 3 10 7 7 3 -4 3 -10 0 -14z m338 -3 c3 -6 -1 -7 -9 -4 -18 7 -21 14 -7 14 6 0 13 -4 16 -10z m84 -22 c-10 -6 -7 -7 9 -3 12 3 22 2 22 -3 0 -16 -30 -23 -52 -11 -19 10 -19 11 -1 24 10 7 22 11 26 8 5 -3 3 -10 -4 -15z m-385 -14 c7 -19 2 -18 -19 6 -16 17 -16 20 -3 15 9 -4 19 -13 22 -21z m216 1 c7 -9 8 -15 2 -15 -5 0 -12 7 -16 15 -3 8 -4 15 -2 15 2 0 9 -7 16 -15z m103 8 c-7 -2 -21 -2 -30 0 -10 3 -4 5 12 5 17 0 24 -2 18 -5z m47 -33 c0 -5 -2 -10 -4 -10 -3 0 -8 5 -11 10 -3 6 -1 10 4 10 6 0 11 -4 11 -10z m-334 -36 c-23 -17 -36 -18 -36 -4 0 12 42 31 50 23 3 -3 -4 -11 -14 -19z m-53 -1 c-7 -2 -19 -2 -25 0 -7 3 -2 5 12 5 14 0 19 -2 13 -5z m288 -16 c-10 -9 -11 -8 -5 6 3 10 9 15 12 12 3 -3 0 -11 -7 -18z"/>
 <path d="M618 633 c7 -3 16 -2 19 1 4 3 -2 6 -13 5 -11 0 -14 -3 -6 -6z"/>
 <path d="M0 620 c0 -7 3 -10 7 -7 3 4 3 10 0 14 -4 3 -7 0 -7 -7z"/>
 <path d="M50 580 c0 -5 7 -10 16 -10 8 0 12 5 9 10 -3 6 -10 10 -16 10 -5 0 -9 -4 -9 -10z"/>
 <path d="M510 130 c0 -7 3 -10 7 -7 3 4 3 10 0 14 -4 3 -7 0 -7 -7z"/>
 <path d="M563 53 c4 -3 10 -3 14 0 3 4 0 7 -7 7 -7 0 -10 -3 -7 -7z"/>
 </g>
<g id="layer103" fill="#221f34" stroke="none">
 <path d="M85 630 c4 -6 11 -8 16 -5 14 9 11 15 -7 15 -8 0 -12 -5 -9 -10z"/>
 <path d="M273 633 c4 -3 10 -3 14 0 3 4 0 7 -7 7 -7 0 -10 -3 -7 -7z"/>
 <path d="M366 631 c-5 -7 -14 -10 -22 -7 -8 3 -14 1 -14 -4 0 -10 14 -14 37 -11 23 3 22 -17 -2 -43 -15 -17 -30 -24 -38 -20 -9 6 -9 4 1 -8 13 -17 1 -35 -17 -24 -5 3 -14 -1 -21 -9 -7 -9 -21 -13 -31 -10 -26 8 -24 -7 2 -23 14 -9 25 -10 31 -4 7 7 19 0 37 -20 43 -50 74 -78 79 -73 7 6 -20 44 -57 81 -25 25 -28 33 -16 38 9 3 15 0 15 -9 0 -10 11 -15 33 -16 17 0 26 -3 19 -6 -10 -4 -10 -9 4 -24 9 -10 14 -25 11 -33 -3 -8 0 -19 6 -24 14 -11 48 -12 42 -1 -3 4 2 9 10 13 8 3 17 1 20 -4 3 -5 24 -8 45 -6 26 3 43 -1 51 -10 7 -8 10 -16 8 -18 -2 -1 -15 -11 -29 -20 -21 -15 -22 -17 -4 -12 14 4 27 -1 40 -16 15 -17 16 -20 3 -16 -9 4 -22 2 -29 -2 -8 -5 -22 -4 -32 1 -14 7 -20 6 -24 -6 -3 -8 -10 -15 -16 -15 -13 0 -5 33 12 47 20 15 7 27 -17 15 -13 -7 -24 -6 -38 4 -11 8 -37 14 -58 12 -35 -2 -37 -3 -21 -15 10 -7 26 -11 36 -7 10 3 18 1 18 -5 0 -6 9 -11 19 -11 15 0 19 -6 17 -25 -2 -15 1 -22 7 -18 6 4 8 0 4 -11 -4 -10 -3 -15 4 -11 5 4 17 1 26 -7 15 -11 16 -11 10 4 -5 15 -2 16 24 11 21 -4 34 -1 39 7 7 11 12 11 23 2 12 -10 16 -9 21 4 9 24 7 74 -3 74 -17 0 -22 34 -7 46 15 10 23 64 10 64 -3 0 -15 -5 -27 -11 -12 -7 -19 -8 -15 -4 4 5 2 15 -5 23 -9 13 -9 14 1 8 12 -7 17 6 6 17 -10 9 -34 -4 -34 -19 0 -8 -7 -14 -15 -14 -8 0 -14 3 -14 8 3 19 -2 26 -10 12 -6 -8 -24 -14 -45 -13 -46 1 -60 10 -43 27 13 13 77 27 74 17 -3 -8 8 -11 33 -11 11 0 20 5 20 11 0 6 -7 8 -16 5 -9 -4 -28 4 -46 19 -23 19 -34 23 -48 15 -25 -13 -73 -13 -65 0 4 6 10 8 15 5 5 -3 12 0 16 6 4 8 9 7 15 -2 7 -11 9 -10 9 4 0 9 -5 17 -11 17 -5 0 -7 5 -4 10 5 8 11 7 21 -1 11 -9 17 -9 29 1 22 18 18 32 -6 20 -15 -8 -24 -8 -34 0 -7 6 -18 9 -23 8 -6 -2 -17 6 -25 16 -10 14 -16 16 -21 7z m41 -68 c-4 -3 -7 0 -7 7 0 7 3 10 7 7 3 -4 3 -10 0 -14z m-27 -64 c0 -5 -4 -9 -10 -9 -5 0 -10 7 -10 16 0 8 5 12 10 9 6 -3 10 -10 10 -16z"/>
 <path d="M473 633 c4 -3 10 -3 14 0 3 4 0 7 -7 7 -7 0 -10 -3 -7 -7z"/>
 <path d="M500 636 c0 -9 30 -14 35 -6 4 6 -3 10 -14 10 -12 0 -21 -2 -21 -4z"/>
 <path d="M558 629 c-21 -12 -24 -29 -4 -29 7 0 16 9 19 20 3 11 4 20 4 20 -1 0 -10 -5 -19 -11z"/>
 <path d="M220 605 c0 -20 35 -50 60 -51 26 -2 33 23 8 29 -13 4 -17 10 -12 18 4 8 3 10 -4 5 -6 -4 -21 -2 -32 4 -16 9 -20 8 -20 -5z"/>
 <path d="M575 580 c3 -5 8 -10 11 -10 3 0 2 5 -1 10 -3 6 -8 10 -11 10 -3 0 -2 -4 1 -10z"/>
 <path d="M5 561 c-10 -17 21 -41 52 -40 15 0 21 3 13 6 -8 3 -25 14 -36 25 -15 13 -24 16 -29 9z"/>
 <path d="M500 566 c0 -2 9 -6 20 -9 11 -3 18 -1 14 4 -5 9 -34 13 -34 5z"/>
 <path d="M602 558 c-9 -13 1 -58 13 -58 4 0 3 6 -1 13 -5 8 -2 8 9 -2 15 -12 17 -11 17 3 0 9 -7 19 -16 23 -8 3 -13 12 -10 19 7 17 2 18 -12 2z"/>
 <path d="M140 540 c0 -5 5 -10 10 -10 6 0 10 5 10 10 0 6 -4 10 -10 10 -5 0 -10 -4 -10 -10z"/>
 <path d="M105 530 c3 -5 8 -10 11 -10 3 0 2 5 -1 10 -3 6 -8 10 -11 10 -3 0 -2 -4 1 -10z"/>
 <path d="M1 514 c0 -11 3 -14 6 -6 3 7 2 16 -1 19 -3 4 -6 -2 -5 -13z"/>
 <path d="M180 522 c0 -12 19 -26 26 -19 2 2 -2 10 -11 17 -9 8 -15 8 -15 2z"/>
 <path d="M130 510 c0 -7 3 -10 7 -7 3 4 3 10 0 14 -4 3 -7 0 -7 -7z"/>
 <path d="M263 513 c4 -3 10 -3 14 0 3 4 0 7 -7 7 -7 0 -10 -3 -7 -7z"/>
 <path d="M480 480 c-12 -7 -10 -9 7 -7 12 0 19 5 17 9 -6 10 -6 10 -24 -2z"/>
 <path d="M62 448 c5 -15 28 -23 28 -10 0 5 -7 13 -16 16 -10 4 -14 1 -12 -6z"/>
 <path d="M147 454 c-8 -8 1 -24 14 -24 5 0 9 7 9 15 0 15 -12 20 -23 9z"/>
 <path d="M180 450 c0 -5 6 -10 14 -10 8 0 18 5 21 10 3 6 -3 10 -14 10 -12 0 -21 -4 -21 -10z"/>
 <path d="M263 439 c-18 -5 -33 -12 -33 -15 0 -4 6 -4 14 -1 7 3 18 1 24 -5 7 -7 17 -6 31 4 12 8 18 18 14 21 -7 8 -8 8 -50 -4z"/>
 <path d="M2 390 c1 -35 4 -40 21 -34 14 5 19 2 15 -7 -7 -19 13 -37 37 -32 11 2 31 4 45 5 14 0 36 2 49 5 19 3 22 6 11 13 -9 6 -17 5 -21 -2 -4 -6 -12 -7 -18 -3 -9 5 -9 10 0 21 9 11 8 14 -4 14 -8 0 -17 -4 -19 -9 -2 -6 -17 -6 -38 -1 -19 4 -27 8 -17 9 10 1 20 7 23 15 3 8 12 12 20 9 8 -3 14 -1 14 4 0 17 -13 23 -26 12 -13 -11 -64 -2 -64 12 0 5 -7 9 -15 9 -11 0 -14 -11 -13 -40z"/>
 <path d="M315 410 c3 -5 10 -10 16 -10 5 0 9 5 9 10 0 6 -7 10 -16 10 -8 0 -12 -4 -9 -10z"/>
 <path d="M186 383 c-6 -14 -5 -15 5 -6 7 7 10 15 7 18 -3 3 -9 -2 -12 -12z"/>
 <path d="M213 383 c4 -3 10 -3 14 0 3 4 0 7 -7 7 -7 0 -10 -3 -7 -7z"/>
 <path d="M620 371 c0 -6 4 -13 10 -16 6 -3 7 1 4 9 -7 18 -14 21 -14 7z"/>
 <path d="M220 361 c0 -11 29 -35 35 -29 10 9 -7 38 -21 38 -8 0 -14 -4 -14 -9z"/>
 <path d="M548 363 c7 -3 16 -2 19 1 4 3 -2 6 -13 5 -11 0 -14 -3 -6 -6z"/>
 <path d="M285 350 c-3 -6 1 -7 9 -4 18 7 21 14 7 14 -6 0 -13 -4 -16 -10z"/>
 <path d="M493 353 c4 -3 10 -3 14 0 3 4 0 7 -7 7 -7 0 -10 -3 -7 -7z"/>
 <path d="M336 309 c3 -5 14 -9 25 -9 10 0 19 4 19 9 0 5 -11 9 -25 9 -13 0 -22 -4 -19 -9z"/>
 <path d="M0 289 c0 -20 21 -30 49 -22 22 5 26 -3 15 -32 -6 -15 -8 -15 -25 1 -10 9 -23 13 -28 9 -20 -12 -11 -33 19 -47 28 -12 34 -21 31 -40 0 -5 2 -8 6 -9 5 0 26 -3 48 -5 22 -2 49 -5 60 -7 11 -3 28 3 39 12 10 9 19 16 20 15 0 0 11 -6 23 -12 13 -7 20 -18 17 -27 -4 -9 3 -16 21 -21 17 -4 24 -11 21 -20 -3 -8 -1 -14 4 -14 6 0 10 -7 10 -15 0 -9 6 -12 15 -8 9 3 23 -3 31 -13 14 -17 15 -17 10 -1 -5 15 -3 16 17 5 12 -7 27 -11 33 -10 6 1 17 -5 24 -13 14 -17 40 -20 40 -4 0 5 -4 8 -9 5 -4 -3 -16 3 -26 14 -10 11 -26 20 -37 20 -10 0 -18 5 -18 11 0 5 -4 8 -9 5 -5 -3 -14 1 -21 9 -7 8 -18 15 -25 15 -7 0 -15 9 -18 20 -4 14 -11 18 -24 15 -10 -3 0 4 22 15 41 20 27 28 -18 11 -29 -11 -44 8 -24 28 7 7 8 12 2 11 -17 -3 -55 12 -55 21 0 11 13 12 25 1 6 -5 20 -3 33 3 32 17 15 26 -55 31 -49 3 -54 2 -48 -14 4 -11 -3 -8 -22 9 -15 15 -46 37 -68 48 l-40 21 -18 -21 c-10 -12 -21 -18 -25 -14 -4 4 -1 10 5 12 20 7 15 22 -7 20 -11 -1 -20 -8 -20 -18z m108 -59 c1 -2 8 -3 14 -4 7 0 14 -10 15 -21 2 -11 0 -14 -3 -7 -5 10 -9 10 -20 1 -10 -8 -14 -8 -14 0 0 6 -7 11 -15 11 -8 0 -15 6 -15 14 0 11 26 15 38 6z m20 -55 c2 -1 -4 -5 -12 -8 -8 -3 -22 1 -33 9 -17 13 -16 14 12 8 17 -4 31 -8 33 -9z m24 -17 c-7 -7 -12 -8 -12 -2 0 14 12 26 19 19 2 -3 -1 -11 -7 -17z"/>
 <path d="M130 298 c14 -7 30 -19 36 -27 9 -12 15 -12 42 0 43 19 40 27 -10 27 -24 -1 -54 2 -68 6 l-25 6 25 -12z"/>
 <path d="M250 300 c0 -5 5 -10 11 -10 5 0 7 5 4 10 -3 6 -8 10 -11 10 -2 0 -4 -4 -4 -10z"/>
 <path d="M285 290 c3 -5 11 -10 16 -10 6 0 7 5 4 10 -3 6 -11 10 -16 10 -6 0 -7 -4 -4 -10z"/>
 <path d="M385 260 c3 -5 8 -10 11 -10 3 0 2 5 -1 10 -3 6 -8 10 -11 10 -3 0 -2 -4 1 -10z"/>
 <path d="M345 220 c-11 -5 -15 -9 -10 -9 6 -1 3 -5 -5 -11 -8 -5 -11 -12 -8 -15 4 -4 13 -3 20 1 14 9 18 10 63 13 22 1 26 4 15 10 -27 16 -55 20 -75 11z"/>
 <path d="M522 210 c-47 -11 -51 -19 -8 -17 20 1 36 6 36 11 0 5 7 3 15 -4 9 -7 18 -10 21 -7 3 3 17 2 30 -3 22 -9 35 2 17 13 -17 10 -80 14 -111 7z"/>
 <path d="M430 135 c-8 -9 -8 -15 -2 -15 12 0 26 19 19 26 -2 2 -10 -2 -17 -11z"/>
 <path d="M199 105 c-13 -19 -33 -36 -44 -37 -11 -2 -21 -11 -21 -21 -1 -9 0 -12 2 -5 6 16 73 38 80 27 7 -11 15 -11 34 1 13 9 13 11 0 20 -13 8 -13 11 -1 19 15 10 7 31 -13 31 -8 0 -24 -16 -37 -35z m28 3 c-3 -8 -6 -5 -6 6 -1 11 2 17 5 13 3 -3 4 -12 1 -19z"/>
 <path d="M473 123 c4 -3 10 -3 14 0 3 4 0 7 -7 7 -7 0 -10 -3 -7 -7z"/>
 <path d="M17 99 c7 -7 15 -10 18 -7 3 3 -2 9 -12 12 -14 6 -15 5 -6 -5z"/>
 <path d="M69 97 c7 -9 19 -17 27 -17 16 0 27 17 11 17 -7 0 -21 4 -32 9 -18 7 -18 6 -6 -9z"/>
 <path d="M40 66 c6 -8 18 -12 26 -9 19 7 7 23 -18 23 -17 0 -18 -3 -8 -14z"/>
 <path d="M263 63 c-19 -7 -16 -30 4 -42 11 -6 24 -6 35 0 16 9 16 11 -2 29 -11 11 -21 20 -22 19 -2 0 -9 -3 -15 -6z m27 -21 c0 -5 -7 -9 -15 -9 -8 0 -12 4 -9 9 7 10 24 10 24 0z"/>
 <path d="M487 50 c13 -13 56 -23 49 -12 -3 5 -17 12 -32 15 -14 2 -22 1 -17 -3z"/>
 <path d="M350 30 c0 -7 3 -10 7 -7 3 4 3 10 0 14 -4 3 -7 0 -7 -7z"/>
 <path d="M40 10 c0 -7 3 -10 7 -7 3 4 3 10 0 14 -4 3 -7 0 -7 -7z"/>
 <path d="M140 10 c0 -7 3 -10 7 -7 3 4 3 10 0 14 -4 3 -7 0 -7 -7z"/>
 <path d="M510 8 c0 -4 9 -8 20 -8 11 0 20 4 20 8 0 4 -9 8 -20 8 -11 0 -20 -4 -20 -8z"/>
 <path d="M63 3 c4 -3 10 -3 14 0 3 4 0 7 -7 7 -7 0 -10 -3 -7 -7z"/>
 </g>
<g id="layer104" fill="#1b253d" stroke="none">
 <path d="M83 633 c4 -3 10 -3 14 0 3 4 0 7 -7 7 -7 0 -10 -3 -7 -7z"/>
 <path d="M366 631 c-5 -7 -14 -10 -22 -7 -8 3 -14 1 -14 -4 0 -10 13 -14 36 -11 14 2 49 -37 41 -45 -4 -4 -9 1 -13 10 -5 14 -10 13 -30 -9 -15 -16 -29 -23 -37 -19 -9 6 -9 4 1 -8 14 -17 0 -34 -18 -23 -5 3 -10 -1 -10 -9 0 -10 -8 -13 -31 -11 -26 4 -29 2 -19 -11 7 -8 21 -12 31 -9 12 4 28 -5 48 -26 17 -18 31 -35 31 -39 0 -4 11 -15 25 -24 42 -28 29 3 -21 52 -32 30 -43 47 -36 54 12 12 35 1 26 -13 -3 -5 -2 -9 3 -8 19 3 57 -3 45 -8 -10 -4 -10 -9 4 -24 9 -10 14 -25 11 -32 -5 -15 10 -37 25 -37 4 0 7 5 5 12 -2 14 29 15 82 3 23 -5 31 -4 27 4 -12 19 10 12 30 -10 15 -17 16 -22 4 -29 -12 -7 -10 -13 10 -34 22 -24 20 -31 -5 -26 -5 1 -1 -8 10 -20 16 -18 20 -19 27 -6 9 17 7 54 -5 73 -4 6 -4 19 -1 30 5 15 4 15 -5 3 -7 -9 -11 -11 -11 -3 0 7 7 16 16 21 25 14 14 55 -15 57 -13 1 -30 10 -37 20 -8 11 -14 13 -14 7 0 -7 16 -22 35 -34 49 -28 39 -32 -17 -5 -52 25 -68 53 -34 60 21 4 21 4 0 6 -11 0 -29 10 -39 21 -10 11 -29 20 -42 20 -14 0 -23 6 -23 15 0 8 -4 15 -10 15 -5 0 -10 5 -10 11 0 6 7 8 18 4 12 -4 14 -3 6 5 -6 6 -19 12 -28 14 -9 1 -22 10 -29 21 -10 13 -16 15 -21 6z m68 -86 c4 -11 -2 -15 -24 -15 -17 0 -30 5 -30 11 0 6 7 9 15 6 8 -4 17 -2 20 3 8 14 12 12 19 -5z m-56 -51 c-10 -10 -28 6 -28 24 0 15 1 15 17 -1 9 -9 14 -19 11 -23z m126 4 c-2 -4 0 -9 6 -13 5 -3 10 -13 10 -20 0 -11 -10 -14 -41 -10 -52 7 -63 13 -50 29 6 7 9 15 7 17 -2 2 13 4 34 4 21 0 36 -3 34 -7z"/>
 <path d="M480 480 c-12 -7 -10 -9 7 -7 12 0 19 5 17 9 -6 10 -6 10 -24 -2z"/>
 <path d="M500 636 c0 -2 7 -7 16 -10 8 -3 12 -2 9 4 -6 10 -25 14 -25 6z"/>
 <path d="M220 605 c0 -20 35 -50 60 -51 24 -1 26 9 5 26 -8 7 -12 17 -8 23 3 6 1 7 -5 3 -6 -4 -21 -2 -32 4 -16 9 -20 8 -20 -5z"/>
 <path d="M540 610 c0 -6 7 -10 15 -10 8 0 15 2 15 4 0 2 -7 6 -15 10 -8 3 -15 1 -15 -4z"/>
 <path d="M575 580 c3 -5 8 -10 11 -10 3 0 2 5 -1 10 -3 6 -8 10 -11 10 -3 0 -2 -4 1 -10z"/>
 <path d="M500 566 c0 -2 9 -6 20 -9 11 -3 18 -1 14 4 -5 9 -34 13 -34 5z"/>
 <path d="M10 551 c0 -13 28 -33 41 -29 6 2 0 12 -15 21 -14 10 -26 13 -26 8z"/>
 <path d="M600 545 c0 -3 9 -15 20 -27 17 -18 20 -19 20 -5 0 9 -9 21 -20 27 -11 6 -20 8 -20 5z"/>
 <path d="M180 521 c0 -5 5 -13 10 -16 6 -3 10 -2 10 4 0 5 -4 13 -10 16 -5 3 -10 2 -10 -4z"/>
 <path d="M263 513 c4 -3 10 -3 14 0 3 4 0 7 -7 7 -7 0 -10 -3 -7 -7z"/>
 <path d="M585 470 c3 -5 8 -10 11 -10 3 0 2 5 -1 10 -3 6 -8 10 -11 10 -3 0 -2 -4 1 -10z"/>
 <path d="M62 448 c5 -15 28 -23 28 -10 0 5 -7 13 -16 16 -10 4 -14 1 -12 -6z"/>
 <path d="M145 450 c-3 -5 1 -10 10 -10 9 0 13 5 10 10 -3 6 -8 10 -10 10 -2 0 -7 -4 -10 -10z"/>
 <path d="M185 450 c3 -5 10 -10 16 -10 5 0 9 5 9 10 0 6 -7 10 -16 10 -8 0 -12 -4 -9 -10z"/>
 <path d="M260 429 c0 -11 27 -12 34 -1 2 4 -4 9 -15 9 -10 1 -19 -2 -19 -8z"/>
 <path d="M0 411 c0 -31 11 -51 27 -51 8 0 13 -6 10 -13 -7 -17 15 -35 38 -29 11 2 36 5 55 6 65 4 67 5 50 16 -9 5 -17 5 -21 -1 -3 -6 -17 -4 -35 6 -16 8 -40 15 -54 16 l-25 0 25 10 c24 10 24 11 6 24 -10 8 -22 12 -26 10 -4 -3 -13 2 -20 10 -17 21 -30 19 -30 -4z"/>
 <path d="M100 411 c0 -6 4 -13 10 -16 6 -3 7 1 4 9 -7 18 -14 21 -14 7z"/>
 <path d="M310 416 c0 -2 7 -7 16 -10 8 -3 12 -2 9 4 -6 10 -25 14 -25 6z"/>
 <path d="M190 390 c0 -7 3 -10 7 -7 3 4 3 10 0 14 -4 3 -7 0 -7 -7z"/>
 <path d="M220 360 c0 -5 7 -10 16 -10 8 0 12 5 9 10 -3 6 -10 10 -16 10 -5 0 -9 -4 -9 -10z"/>
 <path d="M390 340 c0 -15 18 -21 23 -8 3 10 7 10 20 -1 10 -7 17 -10 17 -7 0 4 6 1 14 -6 8 -7 14 -15 13 -18 -3 -15 15 -47 33 -58 26 -16 26 2 -1 27 -21 19 -20 59 0 46 5 -3 13 0 16 6 11 17 -3 23 -20 9 -12 -10 -18 -10 -30 0 -17 14 -85 22 -85 10z"/>
 <path d="M335 310 c3 -5 8 -10 11 -10 2 0 4 5 4 10 0 6 -5 10 -11 10 -5 0 -7 -4 -4 -10z"/>
 <path d="M365 310 c3 -5 8 -10 11 -10 3 0 2 5 -1 10 -3 6 -8 10 -11 10 -3 0 -2 -4 1 -10z"/>
 <path d="M36 293 c3 -13 1 -23 -5 -23 -6 0 -11 7 -11 15 0 8 -4 15 -10 15 -16 0 -12 -27 5 -34 8 -3 21 -3 29 0 7 3 26 -6 41 -20 15 -14 32 -24 38 -23 6 1 13 -6 15 -15 2 -13 -1 -16 -12 -12 -9 3 -16 1 -16 -5 0 -11 13 -15 38 -12 6 1 12 -2 12 -7 0 -17 -13 -22 -27 -10 -7 6 -16 8 -20 4 -10 -10 4 -18 46 -26 41 -7 61 2 61 27 0 7 4 13 10 13 5 0 6 -7 3 -17 -4 -11 -3 -14 6 -9 16 10 41 -12 34 -29 -3 -9 4 -16 21 -21 17 -4 27 -15 31 -34 4 -20 11 -27 21 -23 8 3 22 -3 30 -13 14 -17 15 -17 10 -1 -5 15 -3 16 17 5 12 -7 26 -11 31 -10 5 2 17 -5 27 -14 11 -9 19 -13 19 -7 0 15 -34 43 -53 43 -9 0 -17 5 -17 11 0 5 -4 8 -9 5 -5 -3 -14 1 -21 9 -7 8 -19 15 -27 15 -8 0 -19 14 -25 30 -5 17 -15 29 -22 27 -6 -2 -19 9 -28 25 -10 15 -24 28 -32 28 -8 0 -18 5 -22 12 -5 8 2 9 25 5 23 -5 31 -3 29 5 -5 13 -77 32 -87 23 -3 -4 1 -10 9 -15 8 -6 11 -10 7 -10 -5 0 -25 13 -45 29 -55 44 -94 62 -108 50 -8 -7 -14 -6 -18 3 -3 7 -3 3 0 -9z m281 -170 c-4 -3 -10 -3 -14 0 -3 4 0 7 7 7 7 0 10 -3 7 -7z"/>
 <path d="M110 306 c0 -2 7 -7 16 -10 8 -3 12 -2 9 4 -6 10 -25 14 -25 6z"/>
 <path d="M160 280 c11 -21 35 -27 45 -11 6 10 -25 31 -45 31 -8 0 -8 -6 0 -20z"/>
 <path d="M520 282 c0 -15 24 -32 46 -32 35 0 20 35 -17 38 -16 1 -29 -1 -29 -6z"/>
 <path d="M3 235 c-6 -16 22 -44 45 -45 11 0 16 -12 14 -32 -2 -11 27 -18 33 -8 4 6 2 10 -3 10 -6 0 -13 7 -16 16 -4 12 -2 15 9 10 8 -3 15 -1 15 5 0 5 -10 13 -23 18 -13 5 -29 16 -36 25 -17 20 -30 20 -38 1z"/>
 <path d="M290 230 c0 -5 7 -10 16 -10 8 0 12 5 9 10 -3 6 -10 10 -16 10 -5 0 -9 -4 -9 -10z"/>
 <path d="M360 220 c0 -5 -8 -7 -17 -3 -14 4 -14 2 2 -10 13 -9 32 -13 48 -10 l28 5 -27 14 c-31 17 -34 17 -34 4z"/>
 <path d="M580 210 c0 -4 14 -13 31 -19 23 -8 30 -8 27 1 -5 14 -58 30 -58 18z"/>
 <path d="M523 203 c4 -3 10 -3 14 0 3 4 0 7 -7 7 -7 0 -10 -3 -7 -7z"/>
 <path d="M320 190 c0 -5 5 -10 11 -10 5 0 7 5 4 10 -3 6 -8 10 -11 10 -2 0 -4 -4 -4 -10z"/>
 <path d="M353 153 c4 -3 10 -3 14 0 3 4 0 7 -7 7 -7 0 -10 -3 -7 -7z"/>
 <path d="M202 110 c-24 -32 -28 -45 -12 -35 6 4 17 1 25 -5 9 -8 20 -8 31 -2 16 9 16 11 -4 23 -12 8 -22 21 -21 29 0 9 2 11 5 3 3 -7 12 -9 20 -6 13 5 13 7 2 14 -20 13 -22 12 -46 -21z"/>
 <path d="M17 99 c7 -7 15 -10 18 -7 3 3 -2 9 -12 12 -14 6 -15 5 -6 -5z"/>
 <path d="M35 70 c3 -5 13 -10 21 -10 8 0 12 5 9 10 -3 6 -13 10 -21 10 -8 0 -12 -4 -9 -10z"/>
 <path d="M263 63 c-20 -7 -15 -31 7 -43 14 -8 20 -8 20 0 0 6 5 8 10 5 17 -10 11 11 -7 27 -10 9 -24 13 -30 11z m27 -21 c0 -5 -7 -9 -15 -9 -8 0 -12 4 -9 9 7 10 24 10 24 0z"/>
 <path d="M493 43 c4 -3 10 -3 14 0 3 4 0 7 -7 7 -7 0 -10 -3 -7 -7z"/>
 <path d="M350 30 c0 -7 3 -10 7 -7 3 4 3 10 0 14 -4 3 -7 0 -7 -7z"/>
 <path d="M510 10 c0 -7 3 -10 7 -7 3 4 3 10 0 14 -4 3 -7 0 -7 -7z"/>
 </g>
<g id="layer105" fill="#23263c" stroke="none">
 <path d="M380 567 c0 -9 -6 -17 -14 -17 -23 0 -28 -17 -6 -23 11 -3 19 -2 18 2 -1 3 2 14 7 24 4 10 5 21 1 24 -3 4 -6 -1 -6 -10z"/>
 <path d="M15 540 c3 -5 8 -10 11 -10 2 0 4 5 4 10 0 6 -5 10 -11 10 -5 0 -7 -4 -4 -10z"/>
 <path d="M430 519 c0 -5 5 -7 10 -4 6 3 10 8 10 11 0 2 -4 4 -10 4 -5 0 -10 -5 -10 -11z"/>
 <path d="M323 509 c-6 -6 -19 -12 -29 -13 -10 -2 -20 -8 -22 -14 -5 -16 53 4 69 24 13 16 -2 19 -18 3z"/>
 <path d="M400 489 c0 -5 5 -7 10 -4 6 3 10 8 10 11 0 2 -4 4 -10 4 -5 0 -10 -5 -10 -11z"/>
 <path d="M356 482 c-3 -5 1 -9 9 -9 8 0 12 4 9 9 -3 4 -7 8 -9 8 -2 0 -6 -4 -9 -8z"/>
 <path d="M334 448 c-4 -7 -3 -8 4 -4 12 7 16 16 8 16 -3 0 -8 -5 -12 -12z"/>
 <path d="M457 423 l-26 -28 43 0 c24 0 49 5 57 12 11 9 19 8 33 -3 23 -16 62 -19 71 -4 4 6 -6 10 -22 10 -28 0 -55 12 -54 24 2 15 0 16 -19 6 -14 -7 -20 -7 -20 0 0 20 -37 10 -63 -17z m33 2 c-7 -9 -15 -13 -19 -10 -3 3 1 10 9 15 21 14 24 12 10 -5z"/>
 <path d="M276 428 c3 -5 10 -6 15 -3 13 9 11 12 -6 12 -8 0 -12 -4 -9 -9z"/>
 <path d="M6 402 c-3 -6 3 -12 15 -15 12 -3 19 -1 16 6 -5 15 -24 20 -31 9z"/>
 <path d="M70 390 c0 -7 3 -10 7 -7 3 4 3 10 0 14 -4 3 -7 0 -7 -7z"/>
 <path d="M13 363 c4 -3 10 -3 14 0 3 4 0 7 -7 7 -7 0 -10 -3 -7 -7z"/>
 <path d="M95 340 c-3 -5 1 -10 10 -10 9 0 13 5 10 10 -3 6 -8 10 -10 10 -2 0 -7 -4 -10 -10z"/>
 <path d="M400 340 c-9 -6 -10 -10 -3 -10 6 0 15 5 18 10 8 12 4 12 -15 0z"/>
 <path d="M504 325 c-18 -14 -18 -14 4 -8 12 3 22 9 22 14 0 12 -3 11 -26 -6z"/>
 <path d="M624 318 c-4 -7 -3 -8 4 -4 12 7 16 16 8 16 -3 0 -8 -5 -12 -12z"/>
 <path d="M0 289 c0 -5 5 -7 10 -4 5 3 10 8 10 11 0 2 -4 4 -10 4 -5 0 -10 -5 -10 -11z"/>
 <path d="M51 281 c-9 -9 -11 -12 -4 -8 6 5 21 6 33 2 14 -4 20 -2 20 8 0 18 -28 17 -49 -2z"/>
 <path d="M631 284 c0 -11 3 -14 6 -6 3 7 2 16 -1 19 -3 4 -6 -2 -5 -13z"/>
 <path d="M515 270 c-3 -6 1 -7 9 -4 18 7 21 14 7 14 -6 0 -13 -4 -16 -10z"/>
 <path d="M563 267 c0 -8 6 -14 13 -14 7 0 10 6 7 14 -3 7 -8 13 -12 13 -4 0 -8 -6 -8 -13z"/>
 <path d="M99 253 c-10 -12 -11 -15 -1 -9 7 4 18 3 25 -3 10 -7 13 -5 14 10 2 23 -20 25 -38 2z"/>
 <path d="M193 221 c-18 -9 -33 -20 -33 -24 0 -5 4 -6 9 -3 5 4 11 0 14 -6 3 -10 7 -10 20 1 19 15 22 8 7 -20 -6 -10 -7 -19 -3 -19 15 0 31 48 20 59 -8 8 -6 11 6 11 9 0 17 5 17 10 0 13 -18 11 -57 -9z"/>
 <path d="M290 230 c0 -5 7 -10 16 -10 8 0 12 5 9 10 -3 6 -10 10 -16 10 -5 0 -9 -4 -9 -10z"/>
 <path d="M270 220 c0 -7 3 -10 7 -7 3 4 3 10 0 14 -4 3 -7 0 -7 -7z"/>
 <path d="M366 213 c-9 -21 -3 -25 22 -16 21 8 21 9 3 20 -16 10 -20 9 -25 -4z"/>
 <path d="M43 213 c4 -3 10 -3 14 0 3 4 0 7 -7 7 -7 0 -10 -3 -7 -7z"/>
 <path d="M80 200 c0 -7 3 -10 7 -7 3 4 3 10 0 14 -4 3 -7 0 -7 -7z"/>
 <path d="M130 175 c-7 -9 -11 -17 -9 -20 3 -2 10 5 17 15 14 24 10 26 -8 5z"/>
 <path d="M83 153 c4 -3 10 -3 14 0 3 4 0 7 -7 7 -7 0 -10 -3 -7 -7z"/>
 <path d="M243 123 c4 -3 10 -3 14 0 3 4 0 7 -7 7 -7 0 -10 -3 -7 -7z"/>
 <path d="M189 83 c-13 -16 -12 -17 4 -4 9 7 17 15 17 17 0 8 -8 3 -21 -13z"/>
 <path d="M293 33 c4 -3 10 -3 14 0 3 4 0 7 -7 7 -7 0 -10 -3 -7 -7z"/>
 </g>
<g id="layer106" fill="#233147" stroke="none">
 <path d="M350 536 c0 -2 7 -7 16 -10 8 -3 12 -2 9 4 -6 10 -25 14 -25 6z"/>
 <path d="M400 489 c0 -5 5 -7 10 -4 6 3 10 8 10 11 0 2 -4 4 -10 4 -5 0 -10 -5 -10 -11z"/>
 <path d="M466 431 c-18 -20 -20 -31 -6 -31 6 0 10 7 10 15 0 8 4 15 10 15 5 0 7 -6 4 -14 -7 -18 15 -31 29 -17 8 8 8 11 -2 11 -7 0 -10 3 -8 8 3 4 -1 12 -8 19 -10 9 -16 8 -29 -6z"/>
 <path d="M535 436 c-13 -9 -15 -15 -7 -20 7 -4 12 -4 12 -1 0 3 13 -2 29 -11 24 -14 35 -15 53 -6 l23 11 -27 0 c-35 1 -59 11 -53 21 10 15 -12 20 -30 6z"/>
 <path d="M6 402 c-3 -6 3 -12 15 -15 12 -3 19 -1 16 6 -5 15 -24 20 -31 9z"/>
 <path d="M59 289 c-9 -5 -9 -9 -2 -9 6 0 18 -3 27 -6 9 -3 16 -2 16 4 0 15 -25 21 -41 11z"/>
 <path d="M630 290 c0 -7 3 -10 7 -7 3 4 3 10 0 14 -4 3 -7 0 -7 -7z"/>
 <path d="M107 263 c-3 -5 3 -14 13 -20 15 -10 18 -9 16 4 -3 19 -21 29 -29 16z"/>
 <path d="M178 213 c-10 -3 -18 -9 -18 -14 0 -6 4 -8 9 -5 5 4 11 0 14 -6 3 -10 7 -10 17 -1 7 6 20 9 29 6 21 -8 12 2 -14 14 -11 5 -28 8 -37 6z"/>
 <path d="M380 210 c0 -5 5 -10 11 -10 5 0 7 5 4 10 -3 6 -8 10 -11 10 -2 0 -4 -4 -4 -10z"/>
 </g>
<g id="layer107" fill="#204154" stroke="none">
 <path d="M595 400 c3 -5 8 -10 11 -10 2 0 4 5 4 10 0 6 -5 10 -11 10 -5 0 -7 -4 -4 -10z"/>
 <path d="M175 200 c3 -5 8 -10 11 -10 3 0 2 5 -1 10 -3 6 -8 10 -11 10 -3 0 -2 -4 1 -10z"/>
 </g>

</svg>