<!DOCTYPE svg PUBLIC "-//W3C//DTD SVG 20010904//EN" "http://www.w3.org/TR/2001/REC-SVG-20010904/DTD/svg10.dtd">
<svg version="1.0" xmlns="http://www.w3.org/2000/svg" width="64px" height="64px" viewBox="0 0 640 640" preserveAspectRatio="xMidYMid meet">
<g id="layer101" fill="#1a0d06" stroke="none">
 <path d="M0 320 l0 -320 320 0 320 0 0 320 0 320 -320 0 -320 0 0 -320z"/>
 </g>
<g id="layer102" fill="#33190c" stroke="none">
 <path d="M0 545 c0 -59 4 -95 10 -95 17 0 24 31 11 51 -9 16 -8 19 8 19 15 0 19 -5 16 -22 -6 -30 -26 -68 -37 -68 -4 0 -8 -97 -8 -215 l0 -215 140 0 c127 0 140 2 140 18 1 16 1 16 11 0 9 -16 28 -18 159 -18 83 0 149 3 149 8 -1 4 -1 16 0 27 1 18 2 19 12 2 5 -9 7 -22 4 -27 -3 -6 1 -10 9 -10 14 0 16 27 16 211 0 188 -2 210 -16 205 -27 -10 -52 10 -47 38 5 22 7 23 20 11 8 -8 21 -15 29 -15 11 0 14 19 14 95 l0 95 -171 0 c-162 0 -171 -1 -158 -17 8 -10 19 -22 24 -26 6 -5 0 -7 -12 -4 -13 3 -26 1 -29 -4 -12 -20 -23 -7 -17 21 l6 30 -142 0 -141 0 0 -95z m94 60 c-8 -19 -31 -19 -31 0 0 8 8 15 18 15 12 0 16 -5 13 -15z m410 -74 c3 -5 -1 -12 -10 -15 -20 -8 -29 -1 -19 13 8 13 22 14 29 2z m-214 -27 c0 -2 -7 -4 -15 -4 -8 0 -15 4 -15 10 0 5 7 7 15 4 8 -4 15 -8 15 -10z m-145 -60 c-8 -9 -15 -20 -15 -25 0 -5 -7 -9 -15 -9 -8 0 -15 2 -15 5 0 10 45 51 53 48 4 -3 0 -11 -8 -19z m15 -64 c5 0 8 -9 7 -20 -1 -11 -4 -20 -7 -20 -9 0 -35 20 -26 20 5 0 2 8 -5 17 -12 15 -12 16 4 10 10 -4 22 -7 27 -7z m-89 -76 c12 -14 11 -16 -5 -13 -11 2 -21 10 -24 17 -5 17 13 15 29 -4z m231 -2 c3 -12 -2 -24 -13 -31 -11 -6 -19 -7 -19 -2 0 6 -9 8 -20 6 -13 -2 -20 2 -20 11 0 8 9 14 19 14 11 0 23 5 26 10 10 16 22 12 27 -8z m235 -14 c-22 -14 -35 -9 -30 11 4 17 8 18 24 8 13 -8 15 -13 6 -19z m-405 -15 c23 -21 23 -29 -1 -36 -13 -3 -22 3 -30 20 -6 13 -11 26 -11 28 0 11 25 4 42 -12z m326 -123 c-1 -18 -6 -29 -12 -27 -6 3 -10 10 -8 16 1 6 -2 11 -8 11 -5 0 -7 7 -4 15 11 27 33 17 32 -15z m-178 -10 c0 -5 -2 -10 -4 -10 -3 0 -8 5 -11 10 -3 6 -1 10 4 10 6 0 11 -4 11 -10z m-37 -19 c-4 -3 -10 -9 -13 -12 -3 -4 -10 -1 -17 6 -9 10 -6 13 13 13 14 0 21 -3 17 -7z m247 5 c0 -3 -5 -8 -12 -12 -7 -4 -8 -3 -4 4 7 12 16 16 16 8z m35 -6 c-3 -5 -12 -10 -18 -10 -7 0 -6 4 3 10 19 12 23 12 15 0z m-77 -24 c-7 -8 -15 -12 -17 -11 -5 6 10 25 20 25 5 0 4 -6 -3 -14z m-298 -22 c0 -8 8 -14 19 -14 10 0 21 -9 24 -19 5 -21 -6 -22 -58 -1 -16 7 -24 14 -17 17 17 7 15 23 -4 23 -8 0 -13 4 -10 9 9 13 46 1 46 -15z m417 -19 c3 -9 3 -19 -1 -22 -8 -9 -37 18 -30 28 8 14 24 11 31 -6z m-137 -5 c0 -5 -7 -10 -16 -10 -8 0 -12 5 -9 10 3 6 10 10 16 10 5 0 9 -4 9 -10z"/>
 </g>
<g id="layer103" fill="#412010" stroke="none">
 <path d="M0 595 c0 -25 5 -45 13 -48 10 -4 10 -6 0 -6 -15 -1 -18 -81 -4 -81 13 0 22 28 11 35 -19 12 -10 31 15 30 33 0 52 -20 37 -38 -7 -8 -10 -17 -7 -20 3 -4 2 -5 -1 -3 -3 3 -19 -9 -35 -25 -26 -27 -29 -36 -29 -100 0 -44 4 -68 10 -64 5 3 10 2 10 -4 0 -5 -5 -13 -10 -16 -7 -4 -10 -54 -9 -131 l1 -124 135 0 c114 0 134 2 124 14 -9 11 -7 15 8 19 21 5 43 -5 42 -19 -1 -5 63 -10 141 -11 127 -2 141 0 124 13 -11 8 -23 14 -27 14 -5 0 -15 15 -24 34 -12 25 -23 33 -41 33 -13 0 -28 -5 -32 -11 -6 -11 -8 -16 -11 -35 0 -5 -14 -14 -30 -19 -39 -14 -50 10 -14 29 34 18 45 50 24 66 -11 9 -12 12 -3 13 7 0 10 5 7 10 -4 6 -12 7 -18 3 -7 -3 -3 3 7 15 11 12 25 22 32 22 15 0 33 -30 28 -45 -2 -5 7 -11 21 -11 20 -2 25 3 25 21 0 13 5 27 11 30 6 4 8 13 6 19 -3 7 4 18 14 24 15 10 19 9 19 0 0 -30 -13 -58 -27 -58 -11 0 -13 -10 -9 -42 3 -24 5 -47 5 -51 1 -5 6 -5 12 -2 6 4 16 1 22 -7 7 -8 24 -19 40 -26 27 -11 27 -11 27 28 0 21 -5 42 -10 45 -8 5 -7 11 1 21 9 11 8 19 -6 34 -10 11 -15 23 -11 27 4 4 11 1 16 -7 8 -12 10 -10 10 9 0 13 -8 30 -17 38 -14 10 -14 13 -3 11 12 -3 16 13 18 84 l3 87 -27 -14 c-15 -8 -31 -12 -36 -9 -9 6 -10 59 -2 92 8 30 24 28 24 -3 0 -18 5 -25 20 -25 19 0 20 7 20 90 l0 90 -81 0 c-51 0 -78 -4 -74 -10 3 -5 3 -10 -2 -11 -4 0 -16 -2 -25 -4 -20 -4 -24 11 -5 18 6 3 -24 6 -67 6 -79 1 -79 1 -57 -18 17 -15 19 -21 9 -27 -7 -5 -17 -9 -22 -9 -5 0 -12 -9 -16 -20 -7 -17 -9 -18 -15 -4 -4 10 -14 15 -25 12 -10 -3 -21 0 -24 6 -4 6 0 11 8 11 13 0 36 28 36 44 0 3 -63 6 -140 5 l-140 0 0 -44z m96 2 c1 -20 -3 -27 -13 -23 -8 4 -17 6 -19 6 -2 0 -4 12 -4 26 0 37 35 29 36 -9z m450 -24 c-10 -10 -19 5 -10 18 6 11 8 11 12 0 2 -7 1 -15 -2 -18z m68 11 c18 -18 21 -40 6 -49 -6 -3 -7 1 -4 9 7 18 -14 42 -42 49 -17 4 -17 5 3 6 12 0 29 -6 37 -15z m-174 -14 c0 -5 -5 -10 -11 -10 -5 0 -7 5 -4 10 3 6 8 10 11 10 2 0 4 -4 4 -10z m70 -11 c0 -5 5 -7 10 -4 6 3 10 -1 10 -9 0 -9 -4 -16 -10 -16 -5 0 -10 -7 -10 -16 0 -8 -5 -12 -10 -9 -6 3 -13 -1 -16 -10 -6 -14 -8 -13 -18 6 -9 19 -7 27 9 46 22 24 35 29 35 12z m-333 -15 c-3 -3 -12 -4 -19 -1 -8 3 -5 6 6 6 11 1 17 -2 13 -5z m263 -4 c0 -5 -2 -10 -4 -10 -3 0 -8 5 -11 10 -3 6 -1 10 4 10 6 0 11 -4 11 -10z m-133 -35 c-1 -19 -5 -35 -10 -35 -5 0 -6 7 -3 16 5 13 1 15 -18 12 -15 -3 -27 0 -30 8 -4 10 3 14 19 14 13 0 27 5 30 10 10 17 13 12 12 -25z m-202 -5 c3 -5 4 -10 1 -10 -3 0 -8 5 -11 10 -3 6 -4 10 -1 10 3 0 8 -4 11 -10z m289 -6 c5 -14 4 -15 -9 -4 -17 14 -19 20 -6 20 5 0 12 -7 15 -16z m-226 -37 c-7 -12 -16 -24 -19 -27 -3 -3 -8 -13 -12 -22 -5 -14 -1 -18 17 -18 30 0 37 -9 25 -31 -15 -29 -39 -22 -55 16 -8 20 -19 33 -23 30 -17 -10 -5 28 12 40 9 7 17 16 17 21 0 5 11 11 25 12 23 2 24 0 13 -21z m56 -35 c3 -5 -1 -9 -9 -9 -8 0 -12 4 -9 9 3 4 7 8 9 8 2 0 6 -4 9 -8z m96 -7 c0 -8 -4 -15 -10 -15 -5 0 -7 7 -4 15 4 8 8 15 10 15 2 0 4 -7 4 -15z m100 0 c0 -1 -9 -5 -19 -8 -13 -3 -18 -1 -14 9 4 10 33 10 33 -1z m60 -6 c0 -5 -4 -9 -10 -9 -5 0 -10 7 -10 16 0 8 5 12 10 9 6 -3 10 -10 10 -16z m-70 -59 c0 -5 -5 -10 -11 -10 -5 0 -7 5 -4 10 3 6 8 10 11 10 2 0 4 -4 4 -10z m-348 -20 c7 -11 20 -20 29 -20 9 0 20 -7 23 -16 3 -9 12 -14 20 -11 22 9 29 -35 9 -50 -24 -19 -29 -17 -52 22 -13 23 -25 33 -35 29 -21 -8 -34 25 -15 37 11 7 11 9 -3 9 -9 0 -20 5 -23 10 -3 6 3 10 14 10 12 0 26 -9 33 -20z m275 -36 c18 -18 20 -27 13 -50 l-8 -29 -1 29 c-1 22 -5 27 -17 22 -12 -5 -15 -2 -10 9 6 17 -6 13 -35 -12 -15 -13 -48 -9 -50 6 0 3 -2 14 -4 23 -2 10 0 17 3 16 14 -4 52 14 52 24 0 12 22 -3 57 -38z m221 15 c12 -19 -2 -29 -48 -35 -14 -2 -34 -15 -45 -29 -12 -14 -26 -25 -33 -25 -7 0 -12 -5 -12 -12 0 -7 -5 -6 -12 4 -7 8 -22 21 -33 27 -17 10 -14 10 16 5 31 -5 39 -2 62 25 14 17 30 31 35 31 6 0 12 6 15 14 8 20 42 16 55 -5z m-368 -165 c0 -8 -5 -12 -10 -9 -6 4 -8 11 -5 16 9 14 15 11 15 -7z m91 -1 c-5 -10 -18 -26 -29 -35 -17 -13 -23 -14 -38 -4 -18 14 -10 41 10 33 7 -3 23 1 37 9 31 17 31 17 20 -3z m74 7 c4 -6 11 -8 16 -5 5 3 6 -1 3 -8 -8 -21 -54 -9 -54 14 0 12 27 12 35 -1z m-288 -7 c-4 -3 -10 -3 -14 0 -3 4 0 7 7 7 7 0 10 -3 7 -7z m49 -14 c1 -5 2 -13 3 -19 0 -5 7 -10 15 -10 7 0 16 -9 19 -20 3 -12 14 -20 26 -20 12 0 21 -4 21 -9 0 -5 3 -17 7 -26 5 -14 2 -16 -18 -10 -13 5 -30 8 -36 8 -7 0 -13 4 -13 8 0 4 -8 10 -18 13 -11 4 -19 17 -20 37 -1 16 -3 33 -3 37 -1 4 -1 13 0 21 1 15 15 7 17 -10z m234 -59 c0 -5 -4 -10 -10 -10 -5 0 -10 5 -10 10 0 6 5 10 10 10 6 0 10 -4 10 -10z"/>
 <path d="M623 3 c4 -3 10 -3 14 0 3 4 0 7 -7 7 -7 0 -10 -3 -7 -7z"/>
 </g>
<g id="layer104" fill="#512814" stroke="none">
 <path d="M0 600 c0 -28 5 -43 16 -47 8 -3 13 -12 10 -19 -4 -11 -2 -11 13 -2 15 9 22 8 36 -5 9 -9 21 -17 26 -17 5 0 9 -4 9 -10 0 -5 -9 -10 -21 -10 -11 0 -18 -4 -14 -10 7 -11 -30 -51 -39 -42 -3 3 -6 0 -6 -6 0 -7 -7 -12 -15 -12 -12 0 -15 -14 -15 -67 0 -41 4 -63 9 -55 6 10 10 9 14 -7 3 -12 -1 -27 -8 -35 -16 -15 -18 -216 -3 -216 13 0 9 -28 -4 -33 -7 -3 9 -6 35 -6 36 -1 46 2 41 12 -6 9 -4 9 7 0 16 -15 69 -17 69 -3 0 6 -5 10 -10 10 -13 0 -71 55 -65 61 2 3 5 19 7 37 2 32 28 47 28 16 0 -9 9 -18 19 -21 11 -3 17 -11 15 -17 -3 -7 3 -19 12 -27 16 -12 17 -12 9 1 -6 11 -3 10 12 -3 11 -9 25 -17 31 -17 20 0 -9 -39 -33 -43 -11 -2 -3 -5 17 -6 20 0 40 4 43 9 3 5 2 10 -3 10 -6 0 -8 9 -5 20 4 16 9 18 18 10 10 -8 24 -5 53 14 28 17 42 21 45 13 2 -7 -2 -18 -9 -25 -11 -10 -14 -10 -14 0 0 20 -20 -14 -20 -34 0 -15 9 -18 48 -17 35 0 42 3 27 9 -11 5 -16 9 -11 9 5 1 3 7 -3 15 -8 10 -9 16 -1 21 5 3 10 3 10 -1 0 -4 11 6 24 21 19 21 22 31 13 40 -21 20 -47 26 -47 10 0 -21 -16 -19 -40 5 -24 24 -14 30 40 27 30 -2 35 1 38 22 2 15 0 21 -7 16 -6 -3 -14 1 -17 10 -6 13 -9 14 -16 3 -7 -10 -11 -9 -23 7 -9 11 -13 25 -11 31 3 7 -7 14 -20 17 -16 3 -28 -1 -31 -9 -3 -8 -14 -14 -25 -14 -10 0 -17 4 -14 9 3 5 -1 11 -9 15 -8 3 -15 15 -15 26 0 15 8 22 30 27 23 4 28 9 20 18 -8 9 -4 13 15 13 15 0 30 -8 36 -19 5 -11 16 -19 24 -19 7 0 16 -13 20 -28 8 -39 51 -41 91 -4 16 15 32 26 37 24 5 -1 6 2 3 7 -4 5 -2 12 3 16 6 3 7 13 4 21 -5 13 -3 14 13 6 11 -6 28 -19 38 -31 17 -18 17 -21 2 -36 -9 -9 -19 -14 -23 -12 -5 3 -18 1 -30 -4 -24 -9 -62 -71 -46 -76 6 -2 19 -11 29 -19 16 -13 16 -15 2 -10 -12 3 -15 1 -11 -10 3 -7 9 -14 14 -14 5 0 12 -1 16 -2 6 -3 8 5 16 62 2 14 9 25 14 25 6 0 14 3 18 7 11 10 35 -2 35 -18 0 -15 10 -17 34 -8 23 9 20 24 -5 24 -17 0 -19 3 -10 13 6 8 7 18 3 23 -4 5 -3 6 2 2 21 -17 26 -5 26 67 0 69 -2 75 -17 67 -25 -12 -37 -10 -56 10 -11 10 -13 19 -7 23 5 3 10 22 10 41 0 27 4 34 20 34 14 0 19 -6 17 -22 -1 -14 4 -23 15 -26 15 -3 18 4 18 38 0 25 -4 39 -10 35 -6 -4 -8 -11 -5 -16 3 -5 -1 -6 -9 -3 -8 3 -12 12 -9 20 4 10 -2 17 -16 21 -11 3 -21 9 -21 13 0 5 -9 6 -20 3 -11 -3 -20 -14 -20 -24 0 -11 -9 -28 -19 -38 -11 -11 -17 -22 -13 -25 3 -3 -2 -6 -11 -6 -9 0 -17 5 -17 10 0 6 -10 15 -23 21 -12 6 -29 24 -36 40 -12 28 -11 32 8 45 39 28 26 44 -34 44 -53 0 -55 -1 -45 -21 13 -22 -4 -54 -22 -43 -6 4 -5 -4 2 -16 9 -17 9 -24 0 -30 -15 -9 25 -23 62 -20 23 1 27 -2 21 -17 -3 -10 -10 -23 -15 -29 -6 -8 1 -19 18 -33 18 -14 22 -21 11 -21 -8 0 -23 -3 -33 -7 -13 -5 -16 -3 -11 9 3 9 3 19 -1 23 -4 4 -7 17 -7 28 0 27 -42 37 -51 12 -8 -20 -42 -11 -66 18 -26 29 -22 37 17 37 26 0 33 3 29 15 -4 8 -17 15 -29 15 -33 0 -41 19 -16 36 12 8 21 22 21 30 0 11 -17 14 -79 14 -79 0 -105 -10 -82 -33 7 -7 4 -16 -12 -29 -22 -20 -22 -20 -35 12 -7 17 -10 35 -7 41 4 5 -8 9 -24 9 -29 0 -31 -2 -31 -40z m60 -36 c0 -8 -5 -12 -10 -9 -6 4 -8 11 -5 16 9 14 15 11 15 -7z m134 -8 c-8 -20 -44 -28 -44 -9 0 8 5 11 10 8 6 -3 10 -1 10 4 0 6 7 11 15 11 8 0 12 -6 9 -14z m-7 -91 c0 -8 -4 -12 -9 -9 -4 3 -8 -2 -8 -11 0 -8 -7 -18 -15 -21 -8 -4 -15 -13 -15 -21 0 -8 4 -11 10 -8 5 3 19 1 30 -5 19 -10 19 -12 4 -36 -10 -14 -22 -23 -29 -20 -7 2 -18 -1 -24 -7 -9 -9 -11 -8 -5 6 8 22 -14 67 -33 67 -21 0 -15 22 15 51 30 29 79 38 79 14z m46 -64 c-6 -3 -13 -13 -16 -21 -4 -10 -6 -8 -6 8 -1 12 -6 22 -13 22 -6 0 -3 6 8 14 17 13 20 12 28 -1 5 -9 4 -18 -1 -22z m257 10 c0 -5 -8 -15 -17 -22 -12 -10 -14 -10 -9 -1 4 7 1 14 -8 18 -8 3 -12 12 -9 20 4 10 10 11 24 3 10 -5 19 -13 19 -18z m-167 -1 c-5 -20 -33 -29 -33 -10 0 6 5 10 11 10 5 0 7 5 4 10 -3 6 0 10 8 10 10 0 13 -7 10 -20z m100 -59 c-3 -13 -11 -17 -24 -14 -25 7 -24 12 4 23 12 5 23 9 24 9 0 1 -1 -7 -4 -18z m-341 -23 c10 -13 18 -18 18 -13 0 6 5 2 11 -8 6 -9 14 -15 19 -12 4 3 15 -6 24 -20 14 -22 14 -25 0 -39 -8 -9 -20 -16 -26 -16 -18 0 -55 35 -50 48 2 7 -6 12 -21 12 -17 0 -26 7 -30 23 -2 12 -8 30 -12 40 -6 15 -3 17 21 13 16 -3 36 -16 46 -28z m-2 -173 c0 -7 -7 -15 -15 -19 -16 -6 -19 3 -9 28 7 18 24 12 24 -9z m175 14 c-4 -6 0 -9 11 -7 14 2 20 -4 22 -24 3 -22 -2 -29 -22 -34 -14 -3 -24 -10 -21 -14 13 -21 -24 -1 -53 29 -17 19 -32 30 -32 24 0 -5 -7 -10 -15 -10 -9 0 -14 5 -12 10 5 17 47 18 79 1 30 -15 31 -15 25 5 -4 17 2 25 21 30 2 1 0 -4 -3 -10z"/>
 <path d="M493 628 c1 -7 -8 -14 -21 -16 -14 -2 -22 -9 -19 -17 3 -7 1 -17 -5 -23 -7 -7 -7 -16 0 -28 9 -16 11 -16 28 4 10 12 24 22 31 22 7 0 13 4 13 9 0 8 52 31 70 31 3 0 16 -9 28 -20 l22 -21 0 36 c0 19 -4 35 -10 35 -5 0 -10 -4 -10 -8 0 -5 -7 -9 -15 -9 -8 0 -15 4 -15 9 0 4 -22 8 -50 8 -34 0 -49 -4 -47 -12z"/>
 <path d="M435 590 c3 -5 8 -10 11 -10 3 0 2 5 -1 10 -3 6 -8 10 -11 10 -3 0 -2 -4 1 -10z"/>
 <path d="M413 573 c4 -3 10 -3 14 0 3 4 0 7 -7 7 -7 0 -10 -3 -7 -7z"/>
 <path d="M0 490 c0 -19 3 -21 12 -12 9 9 9 15 0 24 -9 9 -12 7 -12 -12z"/>
 <path d="M273 483 c4 -3 10 -3 14 0 3 4 0 7 -7 7 -7 0 -10 -3 -7 -7z"/>
 <path d="M565 177 c-11 -7 -22 -13 -24 -14 -2 -2 -4 -15 -5 -30 -1 -27 32 -66 59 -69 5 0 16 -2 23 -2 7 -1 10 -6 7 -12 -3 -6 -1 -10 4 -10 15 0 14 27 -1 33 -8 2 -13 23 -13 58 0 58 -12 69 -50 46z m2 -34 c-4 -3 -10 -3 -14 0 -3 4 0 7 7 7 7 0 10 -3 7 -7z"/>
 <path d="M624 88 c-4 -7 -3 -8 4 -4 12 7 16 16 8 16 -3 0 -8 -5 -12 -12z"/>
 <path d="M457 83 c-4 -3 -7 -14 -7 -22 0 -9 -9 -22 -20 -29 -11 -7 -20 -17 -20 -22 0 -14 44 -12 58 2 9 9 12 9 12 0 0 -8 18 -12 53 -11 28 1 44 3 35 6 -10 2 -18 8 -18 11 0 4 -11 19 -24 34 -14 14 -22 29 -19 32 4 3 -5 6 -19 6 -13 0 -28 -3 -31 -7z"/>
 </g>
<g id="layer105" fill="#6e361b" stroke="none">
 <path d="M0 606 c0 -43 21 -63 38 -35 9 13 9 19 1 19 -8 0 -8 4 0 13 8 10 7 17 -1 25 -22 22 -38 13 -38 -22z"/>
 <path d="M118 635 c-3 -3 -1 -24 4 -46 10 -38 12 -39 29 -23 11 10 28 15 43 12 26 -5 36 7 36 41 0 11 -9 17 -30 19 -18 1 -30 -2 -30 -10 0 -9 -3 -9 -12 0 -13 13 -31 16 -40 7z"/>
 <path d="M409 633 c-1 -5 -1 -11 0 -15 2 -11 -17 -10 -40 3 -18 9 -20 8 -17 -9 2 -10 -3 -26 -10 -35 -21 -24 1 -57 38 -57 19 0 33 -7 40 -19 14 -27 13 -34 -6 -27 -10 4 -14 1 -12 -6 3 -7 16 -14 30 -16 15 -2 39 -15 55 -30 24 -22 25 -27 11 -30 -16 -3 -16 -5 -4 -18 8 -8 21 -14 30 -14 8 0 23 -11 34 -25 11 -13 23 -21 27 -17 4 4 5 -3 2 -16 -4 -18 -2 -22 9 -18 8 3 14 0 14 -6 0 -7 7 -3 15 8 16 21 20 104 5 104 -5 0 -10 -4 -10 -10 0 -18 -25 -11 -53 15 -29 28 -33 45 -16 62 9 9 15 29 18 56 1 4 8 7 17 7 26 0 10 25 -18 27 -21 1 -29 -6 -44 -38 -11 -21 -26 -39 -35 -39 -20 0 -42 24 -31 34 4 4 3 7 -3 6 -22 -5 -33 1 -38 21 -3 12 -10 18 -16 14 -19 -11 -12 31 9 55 11 12 17 27 14 31 -6 11 -14 12 -15 2z m145 -138 c3 -8 1 -15 -4 -15 -6 0 -10 7 -10 15 0 8 2 15 4 15 2 0 6 -7 10 -15z"/>
 <path d="M507 621 c5 -19 43 -26 43 -8 0 4 5 5 10 2 6 -3 10 -2 10 3 0 12 -24 22 -50 22 -13 0 -17 -5 -13 -19z"/>
 <path d="M626 618 c-3 -13 -1 -27 4 -32 7 -7 10 1 10 22 0 37 -5 41 -14 10z"/>
 <path d="M240 620 c0 -7 3 -10 7 -7 3 4 3 10 0 14 -4 3 -7 0 -7 -7z"/>
 <path d="M456 583 c-4 -9 -2 -21 4 -27 7 -7 10 -6 10 1 0 7 10 15 23 19 21 7 21 7 2 15 -29 11 -32 11 -39 -8z"/>
 <path d="M84 558 c-19 -21 -19 -21 5 -8 22 11 23 11 18 -9 -3 -11 -2 -19 2 -18 7 2 11 -7 11 -29 0 -11 -6 -15 -20 -11 -12 3 -20 1 -19 -6 3 -25 -1 -37 -13 -37 -21 -1 -76 -50 -57 -50 9 0 19 -7 22 -14 9 -22 67 -50 79 -38 12 12 -6 49 -36 74 -18 15 -19 17 -3 18 9 0 17 7 17 15 0 8 5 14 12 13 7 -2 17 7 23 20 5 12 13 22 16 22 4 0 5 9 2 20 -3 11 -9 20 -14 20 -5 0 -9 6 -9 14 0 25 -16 27 -36 4z"/>
 <path d="M213 545 c2 -5 10 -10 17 -10 7 0 15 5 17 10 2 6 -6 11 -17 11 -11 0 -19 -5 -17 -11z"/>
 <path d="M168 507 c11 -12 23 -32 26 -43 4 -12 14 -21 23 -20 10 0 19 -9 23 -23 5 -23 6 -23 23 -7 9 10 17 14 17 9 0 -4 4 -3 8 4 4 6 16 13 27 15 11 1 26 9 34 16 12 12 12 15 0 23 -10 6 -18 3 -28 -11 -17 -25 -36 -25 -63 0 -15 14 -25 17 -34 9 -9 -8 -13 -4 -16 17 -2 21 -9 28 -32 30 l-28 3 20 -22z"/>
 <path d="M614 496 c-4 -10 -2 -22 4 -28 8 -8 13 -7 18 6 4 10 2 22 -4 28 -8 8 -13 7 -18 -6z"/>
 <path d="M0 490 c0 -7 3 -10 7 -7 3 4 3 10 0 14 -4 3 -7 0 -7 -7z"/>
 <path d="M400 440 c8 -5 20 -10 25 -10 6 0 3 5 -5 10 -8 5 -19 10 -25 10 -5 0 -3 -5 5 -10z"/>
 <path d="M170 430 c0 -5 7 -10 16 -10 8 0 12 5 9 10 -3 6 -10 10 -16 10 -5 0 -9 -4 -9 -10z"/>
 <path d="M175 400 c3 -5 11 -10 16 -10 6 0 7 5 4 10 -3 6 -11 10 -16 10 -6 0 -7 -4 -4 -10z"/>
 <path d="M255 390 c-4 -6 -11 -8 -16 -5 -5 4 -9 1 -9 -4 0 -6 -7 -11 -16 -11 -11 0 -15 -6 -12 -18 4 -13 -2 -18 -25 -19 -16 0 -36 -8 -45 -17 -15 -15 -15 -16 4 -16 15 0 24 -10 31 -33 10 -33 9 -34 -24 -46 -30 -11 -37 -10 -54 5 -10 9 -19 23 -19 29 0 14 -29 29 -38 20 -3 -3 -2 -5 2 -5 4 0 -2 -10 -14 -22 -22 -24 -25 -34 -10 -43 5 -3 7 -19 3 -35 -7 -35 9 -40 34 -10 21 24 39 26 46 5 6 -14 15 -14 68 0 16 4 30 2 33 -4 12 -18 26 -12 36 14 9 24 40 35 40 14 0 -5 5 -7 12 -3 8 5 9 2 5 -9 -7 -19 -2 -20 28 -8 11 5 28 5 37 0 21 -11 48 -1 42 15 -3 8 -15 11 -30 8 -19 -3 -26 0 -31 17 -3 11 -9 19 -13 16 -4 -3 -10 5 -13 17 l-6 22 -25 -23 c-19 -18 -26 -20 -32 -9 -36 55 -45 94 -19 84 8 -3 15 -1 15 5 0 6 6 17 14 24 17 17 71 5 71 -16 0 -8 6 -15 13 -15 6 -1 16 -2 21 -3 5 0 11 -11 13 -23 2 -13 8 -23 13 -23 6 0 15 -3 20 -7 6 -3 21 2 34 13 13 10 20 19 15 19 -4 0 1 6 11 14 18 13 18 14 1 41 l-19 28 -12 -24 c-10 -18 -11 -28 -2 -39 6 -8 2 -7 -10 3 -14 12 -29 16 -42 12 -15 -4 -21 -2 -21 9 0 8 5 18 10 21 6 3 10 14 10 25 0 15 -6 17 -36 14 -20 -2 -39 -5 -42 -8 -2 -3 -13 -1 -23 4 -12 7 -20 7 -24 0z m112 -27 c-4 -3 -7 0 -7 7 0 7 3 10 7 7 3 -4 3 -10 0 -14z"/>
 <path d="M390 389 c0 -5 5 -7 10 -4 6 3 10 1 10 -5 0 -6 5 -8 11 -4 8 4 7 9 -2 15 -19 12 -29 11 -29 -2z"/>
 <path d="M3 373 c4 -3 10 -3 14 0 3 4 0 7 -7 7 -7 0 -10 -3 -7 -7z"/>
 <path d="M0 320 c0 -7 3 -10 7 -7 3 4 3 10 0 14 -4 3 -7 0 -7 -7z"/>
 <path d="M560 280 c0 -7 3 -10 7 -7 3 4 3 10 0 14 -4 3 -7 0 -7 -7z"/>
 <path d="M477 240 c-23 -28 -21 -38 9 -52 21 -10 27 -9 34 3 6 8 6 15 0 17 -15 6 -12 23 8 38 16 12 15 13 -8 14 -14 0 -33 -9 -43 -20z"/>
 <path d="M565 250 c3 -5 8 -10 11 -10 2 0 4 5 4 10 0 6 -5 10 -11 10 -5 0 -7 -4 -4 -10z"/>
 <path d="M582 178 c-6 -6 -12 -18 -12 -26 0 -8 -8 -21 -17 -28 -17 -12 -17 -14 2 -28 32 -25 50 -16 50 26 1 52 -7 72 -23 56z"/>
 <path d="M300 120 c0 -13 -9 -22 -25 -26 -14 -3 -25 -12 -25 -20 0 -8 2 -14 4 -14 2 0 12 -3 20 -6 11 -4 15 -2 11 8 -4 9 2 14 16 15 29 2 41 16 34 36 -10 24 -35 30 -35 7z"/>
 <path d="M34 112 c-25 -21 -41 -62 -24 -62 6 0 16 -11 22 -25 14 -31 24 -32 31 -3 l6 22 24 -22 c13 -12 32 -22 43 -22 16 0 14 4 -11 25 -36 29 -43 30 -68 7 -20 -16 -20 -16 -13 3 5 11 11 28 13 37 3 10 10 15 16 11 7 -4 8 0 4 11 -4 10 -7 22 -7 27 0 14 -13 10 -36 -9z"/>
 <path d="M128 123 c7 -3 16 -2 19 1 4 3 -2 6 -13 5 -11 0 -14 -3 -6 -6z"/>
 <path d="M382 121 c-10 -6 -10 -10 3 -21 13 -11 15 -9 15 9 0 24 0 24 -18 12z"/>
 <path d="M166 104 c-4 -9 -4 -19 -2 -21 8 -8 26 8 26 23 0 19 -16 18 -24 -2z"/>
 <path d="M360 80 c12 -22 25 -26 35 -10 3 6 -1 7 -9 4 -11 -4 -16 0 -16 10 0 9 -5 16 -10 16 -7 0 -7 -6 0 -20z"/>
 <path d="M203 73 c4 -3 10 -3 14 0 3 4 0 7 -7 7 -7 0 -10 -3 -7 -7z"/>
 <path d="M230 70 c0 -7 3 -10 7 -7 3 4 3 10 0 14 -4 3 -7 0 -7 -7z"/>
 <path d="M460 50 c0 -20 5 -30 15 -30 8 0 15 -4 15 -10 0 -5 14 -10 30 -10 17 0 30 3 30 7 0 10 -71 73 -82 73 -4 0 -8 -13 -8 -30z"/>
 <path d="M321 25 c3 -12 14 -21 27 -23 17 -3 20 0 16 13 -4 9 -9 13 -12 11 -3 -3 -12 0 -20 6 -12 10 -14 9 -11 -7z"/>
 <path d="M13 3 c4 -3 10 -3 14 0 3 4 0 7 -7 7 -7 0 -10 -3 -7 -7z"/>
 </g>
<g id="layer106" fill="#834020" stroke="none">
 <path d="M195 622 c5 -10 0 -13 -21 -10 -21 2 -30 -2 -32 -15 -3 -15 1 -17 25 -11 39 9 50 21 34 37 -11 10 -12 9 -6 -1z"/>
 <path d="M0 595 c0 -8 9 -15 20 -15 13 0 18 5 14 15 -4 8 -12 15 -20 15 -8 0 -14 -7 -14 -15z"/>
 <path d="M630 600 c0 -7 3 -10 7 -7 3 4 3 10 0 14 -4 3 -7 0 -7 -7z"/>
 <path d="M363 583 c4 -3 0 -14 -8 -23 -14 -15 -14 -18 0 -30 16 -13 17 -11 28 38 4 15 1 22 -11 22 -8 0 -12 -3 -9 -7z"/>
 <path d="M473 583 c4 -3 10 -3 14 0 3 4 0 7 -7 7 -7 0 -10 -3 -7 -7z"/>
 <path d="M185 510 c3 -5 8 -10 11 -10 3 0 2 5 -1 10 -3 6 -8 10 -11 10 -3 0 -2 -4 1 -10z"/>
 <path d="M543 513 c4 -3 10 -3 14 0 3 4 0 7 -7 7 -7 0 -10 -3 -7 -7z"/>
 <path d="M620 490 c0 -7 3 -10 7 -7 3 4 3 10 0 14 -4 3 -7 0 -7 -7z"/>
 <path d="M325 470 c-3 -5 -1 -10 4 -10 6 0 11 5 11 10 0 6 -2 10 -4 10 -3 0 -8 -4 -11 -10z"/>
 <path d="M436 472 c-3 -4 4 -9 15 -9 23 -2 25 3 4 10 -8 4 -16 3 -19 -1z"/>
 <path d="M535 470 c3 -5 8 -10 11 -10 2 0 4 5 4 10 0 6 -5 10 -11 10 -5 0 -7 -4 -4 -10z"/>
 <path d="M236 462 c-7 -12 19 -35 34 -30 7 2 3 11 -8 21 -11 10 -23 14 -26 9z"/>
 <path d="M491 429 c11 -11 24 -31 29 -44 8 -22 25 -30 52 -26 4 0 4 -7 1 -16 -4 -10 -2 -14 4 -10 6 4 19 0 28 -9 13 -13 19 -14 28 -5 9 10 9 12 -3 9 -8 -2 -16 6 -18 17 -2 13 -18 27 -42 38 -30 12 -40 23 -40 39 0 18 -6 23 -30 25 -29 2 -29 2 -9 -18z"/>
 <path d="M45 410 c3 -5 2 -10 -4 -10 -19 0 1 -31 31 -46 40 -21 49 -8 16 21 -16 13 -28 29 -28 35 0 5 -5 10 -11 10 -5 0 -7 -4 -4 -10z"/>
 <path d="M265 379 c-9 -14 -2 -20 14 -10 8 6 9 11 3 15 -6 3 -14 1 -17 -5z"/>
 <path d="M318 383 c-10 -3 -18 -8 -18 -13 0 -5 7 -7 15 -4 8 4 15 1 15 -5 0 -6 5 -11 10 -11 12 0 14 27 3 33 -5 2 -16 2 -25 0z"/>
 <path d="M217 353 c-4 -3 -7 -11 -7 -17 0 -6 5 -5 12 2 6 6 9 14 7 17 -3 3 -9 2 -12 -2z"/>
 <path d="M343 323 c4 -3 10 -3 14 0 3 4 0 7 -7 7 -7 0 -10 -3 -7 -7z"/>
 <path d="M445 320 c3 -5 8 -10 11 -10 3 0 2 5 -1 10 -3 6 -8 10 -11 10 -3 0 -2 -4 1 -10z"/>
 <path d="M172 297 c1 -15 6 -27 10 -27 4 0 7 -8 6 -17 -3 -39 2 -83 10 -83 5 0 18 8 30 18 20 18 20 18 1 42 -10 14 -19 31 -19 38 0 7 -9 23 -20 34 l-20 22 2 -27z"/>
 <path d="M380 300 c-9 -17 -7 -22 12 -29 16 -6 27 -5 38 5 12 12 12 16 -5 29 -26 19 -32 19 -45 -5z"/>
 <path d="M39 253 c-1 -4 -1 -11 0 -15 0 -4 -6 -5 -14 -2 -8 4 -15 1 -15 -5 0 -7 7 -14 15 -17 8 -4 12 -10 9 -15 -3 -5 -2 -9 3 -10 27 -2 61 -8 85 -14 21 -6 29 -2 39 17 11 21 11 22 -5 9 -15 -13 -21 -12 -45 2 -16 9 -32 13 -36 9 -5 -4 -5 2 -2 13 l7 20 -16 -20 c-16 -20 -16 -20 -11 2 3 13 1 26 -4 29 -5 3 -10 2 -10 -3z"/>
 <path d="M284 231 c4 -6 1 -11 -6 -11 -7 -1 -3 -9 11 -20 26 -23 45 -26 38 -7 -2 6 -9 11 -15 10 -5 -1 -9 5 -8 14 0 9 -5 18 -13 21 -8 3 -11 0 -7 -7z"/>
 <path d="M476 223 c-12 -12 -6 -21 18 -25 17 -3 23 -1 19 8 -5 15 -28 25 -37 17z"/>
 <path d="M366 182 c-3 -5 1 -9 9 -9 8 0 15 4 15 9 0 4 -4 8 -9 8 -6 0 -12 -4 -15 -8z"/>
 <path d="M20 164 c0 -8 5 -12 10 -9 6 4 8 11 5 16 -9 14 -15 11 -15 -7z"/>
 <path d="M573 125 c-16 -18 -16 -25 0 -25 7 0 13 9 14 20 2 23 2 24 -14 5z"/>
 <path d="M46 105 c-3 -8 -1 -15 4 -15 6 0 10 7 10 15 0 8 -2 15 -4 15 -2 0 -6 -7 -10 -15z"/>
 <path d="M22 62 c4 -23 27 -26 25 -4 0 10 -7 19 -14 19 -8 0 -13 -7 -11 -15z"/>
 <path d="M464 50 c0 -11 5 -20 10 -20 5 0 18 -7 28 -17 12 -10 18 -12 18 -4 0 7 6 9 13 6 6 -4 3 1 -8 9 -11 9 -28 23 -38 31 -22 19 -23 19 -23 -5z"/>
 <path d="M343 13 c4 -3 10 -3 14 0 3 4 0 7 -7 7 -7 0 -10 -3 -7 -7z"/>
 </g>

</svg>