<!DOCTYPE svg PUBLIC "-//W3C//DTD SVG 20010904//EN" "http://www.w3.org/TR/2001/REC-SVG-20010904/DTD/svg10.dtd">
<svg version="1.0" xmlns="http://www.w3.org/2000/svg" width="64px" height="64px" viewBox="0 0 640 640" preserveAspectRatio="xMidYMid meet">
<g id="layer101" fill="#1f1f1f" stroke="none">
 <path d="M0 320 l0 -320 320 0 320 0 0 320 0 320 -320 0 -320 0 0 -320z"/>
 </g>
<g id="layer102" fill="#282828" stroke="none">
 <path d="M2 389 c0 -197 2 -247 12 -234 10 15 12 14 12 -4 0 -12 -5 -21 -12 -21 -7 0 -11 -23 -12 -64 l-1 -64 259 0 c233 0 259 1 263 16 4 13 5 13 6 -3 1 -17 3 -18 11 -5 6 10 10 11 10 3 0 -9 16 -13 45 -13 l44 0 -1 83 c0 48 -5 85 -12 89 -8 6 -7 8 1 8 10 0 13 41 12 167 0 92 -3 162 -7 156 -5 -9 -12 -6 -21 10 -13 19 -12 21 1 10 22 -19 28 -6 28 57 l0 56 -266 2 c-209 1 -264 -1 -258 -11 6 -8 3 -8 -8 1 -24 20 -61 11 -76 -18 l-13 -25 6 28 c4 19 1 27 -9 27 -11 0 -14 -43 -14 -251z m252 234 c-5 -5 -12 -12 -16 -18 -4 -6 -8 -2 -8 8 0 9 7 17 17 17 9 0 12 -3 7 -7z m113 0 c-4 -3 -10 -3 -14 0 -3 4 0 7 7 7 7 0 10 -3 7 -7z m-150 -20 c-4 -3 -7 0 -7 7 0 7 3 10 7 7 3 -4 3 -10 0 -14z m396 10 c-13 -2 -33 -2 -45 0 -13 2 -3 4 22 4 25 0 35 -2 23 -4z m-210 -65 c8 -5 6 -8 -5 -8 -14 0 -18 8 -17 38 2 34 2 34 6 7 3 -16 10 -33 16 -37z m140 32 c3 -11 1 -18 -3 -15 -5 3 -10 1 -12 -3 -1 -5 -14 -5 -28 -1 l-25 7 28 1 c17 1 27 7 27 16 0 21 7 19 13 -5z m57 16 c0 -2 -11 -6 -25 -8 -14 -3 -25 -1 -25 3 0 5 11 9 25 9 14 0 25 -2 25 -4z m-233 -28 c-3 -8 -6 -5 -6 6 -1 11 2 17 5 13 3 -3 4 -12 1 -19z m40 0 c-3 -8 -6 -5 -6 6 -1 11 2 17 5 13 3 -3 4 -12 1 -19z m-364 -17 c3 -11 -1 -22 -8 -24 -8 -4 -10 3 -7 19 5 29 8 30 15 5z m112 -10 c-3 -6 -11 -11 -16 -11 -5 0 -4 6 3 14 14 16 24 13 13 -3z m180 -3 c6 -4 2 -8 -7 -8 -10 0 -18 7 -18 17 0 9 3 12 8 7 4 -5 12 -12 17 -16z m112 15 c-4 -3 -10 -3 -14 0 -3 4 0 7 7 7 7 0 10 -3 7 -7z m-250 -20 c-4 -3 -10 -3 -14 0 -3 4 0 7 7 7 7 0 10 -3 7 -7z m97 -16 c-3 -9 -17 -11 -42 -8 l-37 5 40 7 c22 3 41 7 42 8 1 0 0 -5 -3 -12z m33 -4 c-4 -3 -10 -3 -14 0 -3 4 0 7 7 7 7 0 10 -3 7 -7z m-94 -115 c8 -5 6 -8 -5 -8 -15 0 -18 8 -16 53 l1 52 4 -45 c3 -24 10 -48 16 -52z m-156 65 c-4 -3 -7 0 -7 7 0 7 3 10 7 7 3 -4 3 -10 0 -14z m343 2 c0 -8 -7 -15 -15 -15 -13 0 -14 3 -3 15 16 18 18 18 18 0z m80 1 c0 -3 -5 -8 -12 -12 -7 -4 -8 -3 -4 4 7 12 16 16 16 8z m-303 -38 c-3 -7 -5 -2 -5 12 0 14 2 19 5 13 2 -7 2 -19 0 -25z m40 10 c-3 -8 -6 -5 -6 6 -1 11 2 17 5 13 3 -3 4 -12 1 -19z m116 -3 c-7 -21 -12 -19 -10 4 0 11 5 18 9 15 4 -3 5 -11 1 -19z m114 8 c-4 -3 -10 -3 -14 0 -3 4 0 7 7 7 7 0 10 -3 7 -7z m120 -10 c-4 -3 -10 -3 -14 0 -3 4 0 7 7 7 7 0 10 -3 7 -7z m-490 -44 c11 0 13 -3 5 -6 -17 -7 -42 15 -41 36 0 11 3 9 9 -6 5 -13 17 -23 27 -24z m-3 25 c3 -8 2 -12 -4 -9 -6 3 -10 10 -10 16 0 14 7 11 14 -7z m399 -54 l32 -35 -36 33 -35 32 -21 -22 c-11 -13 -23 -30 -26 -38 -5 -13 -6 -13 -6 1 -1 8 10 26 24 39 14 13 26 33 26 44 1 20 1 20 6 1 3 -11 19 -36 36 -55z m87 -38 c-5 -2 -17 -10 -25 -19 -13 -12 -15 -12 -15 0 0 8 9 17 20 20 16 4 20 14 22 54 l2 48 3 -50 c3 -30 0 -51 -7 -53z m-540 84 c0 -3 -5 -8 -12 -12 -7 -4 -8 -3 -4 4 7 12 16 16 16 8z m273 -3 c-7 -2 -19 -2 -25 0 -7 3 -2 5 12 5 14 0 19 -2 13 -5z m-146 -10 c-4 -3 -10 -3 -14 0 -3 4 0 7 7 7 7 0 10 -3 7 -7z m151 -10 c-10 -2 -26 -2 -35 0 -10 3 -2 5 17 5 19 0 27 -2 18 -5z m-11 -19 c-3 -3 -12 -4 -19 -1 -8 3 -5 6 6 6 11 1 17 -2 13 -5z m-76 -21 c12 -16 12 -17 -2 -6 -9 7 -20 9 -24 5 -5 -4 -5 -1 -1 6 9 16 11 15 27 -5z m-31 -17 c0 -3 -5 -8 -12 -12 -7 -4 -8 -3 -4 4 7 12 16 16 16 8z m55 -16 c3 -5 4 -10 1 -10 -3 0 -8 5 -11 10 -3 6 -4 10 -1 10 3 0 8 -4 11 -10z m-164 -17 c13 -16 12 -17 -3 -5 -10 8 -27 11 -40 7 -18 -5 -20 -4 -8 4 22 15 36 13 51 -6z m251 -10 c-3 -16 -7 -22 -9 -15 -5 14 -69 16 -76 2 -3 -6 -4 -5 -3 2 1 7 18 14 37 16 19 2 38 8 44 13 13 13 13 12 7 -18z m-167 -7 c0 -15 -4 -21 -9 -16 -5 5 -6 16 -3 24 9 22 12 20 12 -8z m263 -17 c-3 -8 -7 -3 -11 10 -4 17 -3 21 5 13 5 -5 8 -16 6 -23z m45 24 c-7 -2 -19 -2 -25 0 -7 3 -2 5 12 5 14 0 19 -2 13 -5z m-446 -20 c-4 -3 -7 0 -7 7 0 7 3 10 7 7 3 -4 3 -10 0 -14z m88 7 c3 -5 4 -10 1 -10 -3 0 -8 5 -11 10 -3 6 -4 10 -1 10 3 0 8 -4 11 -10z m415 0 c0 -5 -21 -9 -47 -8 l-48 1 45 7 c25 4 46 8 48 8 1 1 2 -2 2 -8z m-57 -27 c-7 -2 -19 -2 -25 0 -7 3 -2 5 12 5 14 0 19 -2 13 -5z m64 -10 c-4 -3 -7 0 -7 7 0 7 3 10 7 7 3 -4 3 -10 0 -14z m-332 -3 c3 -5 4 -10 1 -10 -3 0 -8 5 -11 10 -3 6 -4 10 -1 10 3 0 8 -4 11 -10z m145 -20 c4 -3 -4 -14 -19 -25 -24 -17 -25 -18 -11 0 8 10 14 28 13 39 -2 14 0 16 4 6 3 -8 9 -17 13 -20z m63 15 c-3 -9 -8 -14 -10 -11 -3 3 -2 9 2 15 9 16 15 13 8 -4z m-323 -9 c0 -3 -5 -8 -12 -12 -7 -4 -8 -3 -4 4 7 12 16 16 16 8z m147 -25 c-19 -6 -57 -43 -52 -51 2 -4 -7 -5 -20 -2 -15 2 -25 11 -24 21 0 10 2 11 6 4 2 -7 10 -13 16 -13 16 0 57 41 57 57 0 11 3 11 14 1 10 -9 11 -14 3 -17z m328 19 c3 -6 -1 -7 -10 -4 -18 7 -75 -41 -75 -63 0 -7 -6 -10 -14 -7 -10 4 -2 17 28 44 42 40 60 48 71 30z m-535 -14 c0 -3 -5 -8 -12 -12 -7 -4 -8 -3 -4 4 7 12 16 16 16 8z m405 -16 c10 -11 16 -20 13 -20 -3 0 -13 9 -23 20 -10 11 -16 20 -13 20 3 0 13 -9 23 -20z m-385 6 c0 -3 -5 -8 -12 -12 -7 -4 -8 -3 -4 4 7 12 16 16 16 8z m117 -63 c-4 -3 -10 -3 -14 0 -3 4 0 7 7 7 7 0 10 -3 7 -7z m148 -13 c-12 -13 -16 -31 -13 -60 2 -22 0 -40 -4 -40 -15 0 -8 83 9 102 9 10 18 18 21 18 3 0 -3 -9 -13 -20z m-232 -8 c-3 -7 -9 -10 -12 -5 -3 4 -10 11 -15 15 -4 4 1 6 12 5 12 -1 18 -6 15 -15z m4 -39 c-4 -3 -7 0 -7 7 0 7 3 10 7 7 3 -4 3 -10 0 -14z m190 -15 c-3 -8 -6 -5 -6 6 -1 11 2 17 5 13 3 -3 4 -12 1 -19z m40 -10 c-3 -7 -5 -2 -5 12 0 14 2 19 5 13 2 -7 2 -19 0 -25z m-180 16 c-3 -3 -12 -4 -19 -1 -8 3 -5 6 6 6 11 1 17 -2 13 -5z m403 -8 c-7 -7 -13 -7 -20 0 -6 6 -3 10 10 10 13 0 16 -4 10 -10z m-463 -23 c-4 -3 -7 0 -7 7 0 7 3 10 7 7 3 -4 3 -10 0 -14z m58 10 c-16 -3 -33 -10 -37 -16 -5 -8 -8 -6 -8 6 0 13 8 17 38 16 34 -2 34 -2 7 -6z m320 -16 l50 -3 -57 -2 c-49 -2 -58 1 -58 16 0 11 3 13 8 5 4 -6 30 -13 57 -16z m-318 -3 c-3 -3 -12 -4 -19 -1 -8 3 -5 6 6 6 11 1 17 -2 13 -5z"/>
 </g>

</svg>