<!DOCTYPE svg PUBLIC "-//W3C//DTD SVG 20010904//EN" "http://www.w3.org/TR/2001/REC-SVG-20010904/DTD/svg10.dtd">
<svg version="1.0" xmlns="http://www.w3.org/2000/svg" width="64px" height="64px" viewBox="0 0 640 640" preserveAspectRatio="xMidYMid meet">
<g id="layer101" fill="#010101" stroke="none">
 <path d="M0 320 l0 -320 320 0 320 0 0 320 0 320 -320 0 -320 0 0 -320z"/>
 </g>
<g id="layer102" fill="#2d2d2d" stroke="none">
 <path d="M506 513 c-10 -10 -7 -51 5 -58 6 -4 8 -13 5 -20 -2 -7 1 -16 9 -19 20 -7 31 -76 14 -87 -10 -6 -11 -9 -1 -9 6 0 12 -7 12 -16 0 -11 -6 -15 -20 -11 -23 6 -27 -11 -5 -19 8 -4 12 -11 8 -17 -3 -6 -1 -7 6 -3 6 4 19 2 27 -5 13 -10 17 -10 25 2 7 12 9 12 9 -1 0 -11 4 -10 12 4 19 33 13 119 -11 169 -22 44 -82 102 -95 90z m34 -53 c0 -5 -4 -10 -10 -10 -5 0 -10 5 -10 10 0 6 5 10 10 10 6 0 10 -4 10 -10z m57 -187 c-4 -3 -10 -3 -14 0 -3 4 0 7 7 7 7 0 10 -3 7 -7z"/>
 <path d="M521 168 c-17 -27 2 -29 35 -3 l29 24 -26 -1 c-15 -1 -32 -10 -38 -20z"/>
 </g>
<g id="layer103" fill="#414141" stroke="none">
 <path d="M553 410 c-1 -11 3 -20 9 -20 5 0 8 -6 6 -12 -3 -7 1 -31 8 -53 l12 -40 1 41 c1 64 -32 141 -36 84z"/>
 </g>

</svg>