<!DOCTYPE svg PUBLIC "-//W3C//DTD SVG 20010904//EN" "http://www.w3.org/TR/2001/REC-SVG-20010904/DTD/svg10.dtd">
<svg version="1.0" xmlns="http://www.w3.org/2000/svg" width="64px" height="64px" viewBox="0 0 640 640" preserveAspectRatio="xMidYMid meet">
<g id="layer101" fill="#050505" stroke="none">
 <path d="M0 320 l0 -320 320 0 320 0 0 320 0 320 -320 0 -320 0 0 -320z"/>
 </g>
<g id="layer102" fill="#333333" stroke="none">
 <path d="M250 617 c-91 -26 -164 -89 -203 -176 -29 -63 -28 -169 0 -232 71 -158 255 -229 405 -156 65 32 121 90 151 156 29 63 29 169 0 232 -61 136 -218 214 -353 176z"/>
 </g>
<g id="layer103" fill="#525252" stroke="none">
 <path d="M226 580 c-100 -39 -176 -149 -176 -255 0 -67 14 -95 47 -94 20 1 22 3 8 6 -17 3 -20 10 -17 43 3 27 9 40 19 40 8 0 11 -4 8 -10 -3 -5 -2 -10 4 -10 5 0 22 -11 36 -24 15 -14 33 -22 40 -20 7 3 16 1 19 -4 9 -15 -12 -64 -24 -57 -6 3 -7 -1 -4 -9 4 -11 0 -16 -15 -16 -23 0 -28 -19 -9 -38 9 -9 9 -12 -1 -12 -11 0 -11 -3 -1 -15 19 -22 116 -55 165 -55 107 0 217 76 255 178 84 220 -135 437 -354 352z m2 -472 c-5 -15 -23 -11 -26 6 -2 11 2 14 13 10 9 -4 14 -11 13 -16z"/>
 </g>
<g id="layer104" fill="#6f6f6f" stroke="none">
 <path d="M330 561 c0 -20 -1 -21 -25 -5 -16 11 -34 14 -54 9 -30 -6 -53 -25 -31 -25 6 0 9 -4 6 -9 -4 -5 8 -24 26 -41 31 -31 31 -33 13 -46 -26 -19 -35 -18 -35 5 0 11 -9 23 -20 26 -11 3 -20 13 -20 20 0 57 -82 -19 -105 -99 -18 -59 -12 -73 9 -21 17 40 42 39 32 -1 -4 -16 -2 -23 5 -22 7 2 15 -11 19 -28 11 -49 19 -56 61 -52 42 4 54 -8 34 -32 -7 -8 -16 -25 -19 -37 -5 -16 -2 -23 15 -28 12 -4 24 -2 28 3 4 6 12 7 20 3 11 -7 11 -12 0 -30 -15 -23 -29 -28 -29 -9 0 8 -3 9 -10 2 -15 -15 -1 -48 28 -62 37 -17 58 -15 82 10 17 19 20 20 20 4 0 -13 5 -16 23 -11 39 11 100 59 129 100 104 148 15 352 -169 390 -29 6 -33 4 -33 -14z m24 -147 c7 -19 -10 -44 -30 -44 -9 0 -14 11 -14 30 0 23 5 30 19 30 10 0 22 -7 25 -16z m-121 -30 c9 -4 17 -10 17 -15 0 -11 -46 -23 -58 -15 -14 8 -2 48 12 41 6 -3 19 -8 29 -11z m48 -17 c-10 -9 -11 -8 -5 6 3 10 9 15 12 12 3 -3 0 -11 -7 -18z m69 -14 c0 -1 -9 -7 -19 -12 -14 -8 -20 -7 -25 4 -4 11 1 14 19 13 14 -1 25 -3 25 -5z m-80 -28 c0 -8 -4 -15 -9 -15 -13 0 -22 16 -14 24 11 11 23 6 23 -9z m154 -121 c14 -5 14 -8 0 -30 -9 -13 -20 -21 -26 -18 -5 3 -4 11 2 19 7 8 9 19 5 25 -7 11 -3 12 19 4z m48 -40 c10 -9 -40 -56 -54 -51 -8 4 -7 6 5 6 11 1 17 9 17 26 0 23 18 34 32 19z"/>
 <path d="M220 150 c0 -7 3 -10 7 -7 3 4 3 10 0 14 -4 3 -7 0 -7 -7z"/>
 </g>
<g id="layer105" fill="#8e8e8e" stroke="none">
 <path d="M360 535 c0 -11 -5 -15 -16 -11 -8 3 -13 2 -10 -2 2 -4 0 -14 -5 -22 -8 -12 -12 -12 -16 -2 -2 6 -10 12 -16 12 -8 0 -7 -4 1 -12 7 -7 12 -21 12 -32 0 -10 -3 -16 -7 -13 -3 4 -12 -2 -20 -13 -8 -11 -21 -20 -29 -20 -8 0 -14 -4 -14 -10 0 -20 38 -9 54 15 18 28 66 35 66 10 0 -8 7 -15 16 -15 13 0 15 -6 9 -32 -4 -18 -7 -43 -6 -56 1 -19 -4 -23 -27 -21 -80 6 -109 -12 -83 -53 6 -10 9 -23 6 -27 -2 -5 4 -11 14 -14 26 -6 35 -52 17 -88 -14 -28 -14 -29 12 -29 35 1 66 41 60 81 -3 21 0 29 11 31 35 3 55 -3 71 -22 10 -11 22 -20 27 -20 14 0 55 78 48 90 -3 5 -1 10 6 10 7 0 3 8 -8 18 -18 15 -19 20 -8 35 6 9 16 13 20 9 17 -16 -6 72 -30 113 -35 61 -155 130 -155 90z m120 -210 c0 -21 -36 -39 -43 -21 -6 16 11 36 30 36 7 0 13 -7 13 -15z"/>
 <path d="M147 459 c-18 -20 -18 -21 4 -14 23 8 23 7 5 -19 -10 -15 -15 -35 -11 -43 5 -14 8 -13 26 5 11 12 23 22 27 22 11 0 9 54 -3 62 -17 13 -30 9 -48 -13z"/>
 <path d="M160 343 c0 -13 5 -23 10 -23 13 0 13 11 0 30 -8 12 -10 11 -10 -7z"/>
 </g>
<g id="layer106" fill="#ababab" stroke="none">
 <path d="M363 493 c-4 -10 -10 -21 -15 -24 -5 -3 5 -6 22 -6 42 0 50 -16 32 -67 -15 -40 -15 -45 1 -60 16 -17 23 -10 18 18 -1 5 0 15 3 23 5 12 12 10 36 -7 37 -27 64 -20 55 12 -17 57 -88 128 -128 128 -10 0 -21 -8 -24 -17z"/>
 <path d="M484 295 c4 -11 -1 -15 -19 -15 -13 0 -27 5 -30 10 -12 19 -52 10 -85 -20 -20 -18 -41 -28 -50 -25 -9 4 -7 -2 6 -16 26 -26 73 -19 104 14 16 16 20 18 20 5 0 -22 32 -48 37 -30 3 6 10 12 17 12 7 0 18 11 24 25 7 15 8 25 2 25 -6 0 -10 7 -10 15 0 8 -5 15 -11 15 -6 0 -9 -7 -5 -15z m3 -52 c-4 -3 -7 0 -7 7 0 7 3 10 7 7 3 -4 3 -10 0 -14z"/>
 <path d="M280 283 c0 -9 8 -13 22 -11 30 4 33 23 3 24 -16 1 -25 -3 -25 -13z"/>
 </g>
<g id="layer107" fill="#c4c4c4" stroke="none">
 <path d="M426 435 c9 -38 12 -41 26 -27 10 10 7 17 -11 35 l-22 22 7 -30z"/>
 <path d="M463 383 c4 -3 10 -3 14 0 3 4 0 7 -7 7 -7 0 -10 -3 -7 -7z"/>
 </g>

</svg>