<!DOCTYPE svg PUBLIC "-//W3C//DTD SVG 20010904//EN" "http://www.w3.org/TR/2001/REC-SVG-20010904/DTD/svg10.dtd">
<svg version="1.0" xmlns="http://www.w3.org/2000/svg" width="64px" height="64px" viewBox="0 0 640 640" preserveAspectRatio="xMidYMid meet">
<g id="layer101" fill="#060606" stroke="none">
 <path d="M0 320 l0 -320 320 0 320 0 0 320 0 320 -320 0 -320 0 0 -320z"/>
 </g>
<g id="layer102" fill="#2f2f2f" stroke="none">
 <path d="M248 615 c-49 -16 -55 -30 -26 -62 9 -10 18 -25 20 -33 2 -8 11 -21 22 -29 14 -11 15 -15 5 -22 -11 -7 -10 -9 4 -9 9 0 16 -3 16 -7 -3 -20 2 -33 12 -30 16 3 50 -59 43 -78 -4 -8 1 -17 10 -21 9 -3 16 -15 16 -26 0 -10 -4 -16 -10 -13 -18 11 -10 -7 11 -26 13 -11 19 -27 17 -42 -1 -13 5 -35 15 -50 19 -30 22 -53 7 -62 -14 -9 7 -45 25 -45 18 0 15 21 -4 36 -11 9 -11 13 -1 19 8 5 16 2 22 -9 5 -9 16 -16 24 -16 8 0 12 4 9 10 -3 5 -1 10 5 10 6 0 8 5 5 10 -3 6 -2 10 4 10 5 0 13 -5 16 -11 10 -16 53 28 83 86 34 66 36 167 5 236 -62 138 -222 216 -355 174z m220 -208 c2 -10 -3 -17 -11 -17 -18 0 -39 24 -30 34 12 12 38 2 41 -17z m-41 -34 c-4 -3 -7 0 -7 7 0 7 3 10 7 7 3 -4 3 -10 0 -14z m59 -10 c19 -26 17 -38 -10 -51 -19 -8 -25 -8 -30 3 -3 8 -1 17 5 20 5 4 7 11 4 16 -6 9 2 29 12 29 3 0 12 -8 19 -17z m57 -148 c3 -16 0 -24 -7 -22 -12 4 -18 47 -6 47 4 0 10 -11 13 -25z m57 21 c0 -3 -4 -8 -10 -11 -5 -3 -10 -1 -10 4 0 6 5 11 10 11 6 0 10 -2 10 -4z m-103 -33 c-4 -3 -10 -3 -14 0 -3 4 0 7 7 7 7 0 10 -3 7 -7z m90 0 c-4 -3 -10 -3 -14 0 -3 4 0 7 7 7 7 0 10 -3 7 -7z m-122 -23 c3 -5 4 -10 1 -10 -3 0 -8 5 -11 10 -3 6 -4 10 -1 10 3 0 8 -4 11 -10z m15 -24 c0 -3 -5 -8 -12 -12 -7 -4 -8 -3 -4 4 7 12 16 16 16 8z"/>
 </g>
<g id="layer103" fill="#494949" stroke="none">
 <path d="M320 594 c0 -4 8 -13 18 -20 13 -10 14 -13 3 -14 -11 0 -10 -4 4 -14 25 -18 44 -10 38 15 -8 30 29 24 60 -11 29 -32 35 -60 15 -60 -9 0 -9 -3 -2 -8 6 -4 13 -15 17 -24 4 -11 12 -15 22 -12 9 4 15 1 15 -9 0 -8 6 -17 14 -20 14 -6 40 -103 38 -141 -1 -17 0 -17 19 2 38 41 17 146 -46 228 -30 39 -136 94 -182 94 -18 0 -33 -3 -33 -6z m220 -134 c0 -5 -2 -10 -4 -10 -3 0 -8 5 -11 10 -3 6 -1 10 4 10 6 0 11 -4 11 -10z"/>
 <path d="M512 284 c10 -10 23 -14 34 -10 21 8 17 11 -21 20 -28 7 -29 6 -13 -10z"/>
 <path d="M530 164 c0 -9 -5 -12 -12 -8 -7 4 -8 3 -4 -4 10 -16 14 -15 26 8 7 14 7 20 0 20 -5 0 -10 -7 -10 -16z"/>
 </g>

</svg>