<!DOCTYPE svg PUBLIC "-//W3C//DTD SVG 20010904//EN" "http://www.w3.org/TR/2001/REC-SVG-20010904/DTD/svg10.dtd">
<svg version="1.0" xmlns="http://www.w3.org/2000/svg" width="64px" height="64px" viewBox="0 0 640 640" preserveAspectRatio="xMidYMid meet">
<g id="layer101" fill="#030303" stroke="none">
 <path d="M0 320 l0 -320 320 0 320 0 0 320 0 320 -320 0 -320 0 0 -320z"/>
 </g>
<g id="layer102" fill="#2d2d2d" stroke="none">
 <path d="M427 568 c7 -8 10 -18 7 -21 -3 -3 -8 -22 -11 -41 -4 -32 -2 -36 17 -36 13 0 24 -8 27 -20 3 -11 9 -20 15 -20 5 0 17 -8 28 -18 17 -16 18 -21 6 -43 -7 -13 -11 -29 -10 -34 3 -10 -60 -55 -76 -55 -20 0 -16 -41 6 -66 14 -14 31 -36 39 -48 13 -19 13 -23 1 -23 -8 0 -12 6 -10 12 3 7 -2 17 -10 24 -12 10 -17 9 -25 -8 -16 -30 -14 -62 4 -55 8 4 17 -1 21 -10 3 -9 13 -16 21 -16 8 0 11 5 8 10 -3 5 -1 10 5 10 6 0 8 5 5 10 -8 13 8 13 22 -1 27 -27 113 125 113 200 0 58 -30 129 -77 181 -44 50 -56 57 -113 75 -21 7 -23 6 -13 -7z m115 -353 c6 -27 1 -30 -21 -16 -9 6 -10 11 -2 15 6 4 9 12 6 17 -4 5 -2 9 3 9 5 0 12 -11 14 -25z m58 21 c0 -3 -4 -8 -10 -11 -5 -3 -10 -1 -10 4 0 6 5 11 10 11 6 0 10 -2 10 -4z m-103 -33 c-4 -3 -10 -3 -14 0 -3 4 0 7 7 7 7 0 10 -3 7 -7z m90 0 c-4 -3 -10 -3 -14 0 -3 4 0 7 7 7 7 0 10 -3 7 -7z"/>
 <path d="M422 316 c7 -8 15 -12 17 -11 5 6 -10 25 -20 25 -5 0 -4 -6 3 -14z"/>
 <path d="M420 80 c0 -11 6 -20 13 -20 8 0 14 7 14 15 0 8 -6 16 -14 19 -8 3 -13 -2 -13 -14z"/>
 </g>
<g id="layer103" fill="#464646" stroke="none">
 <path d="M507 491 c-3 -14 0 -17 14 -14 15 4 17 8 8 19 -15 18 -16 18 -22 -5z"/>
 <path d="M550 450 c0 -5 -7 -10 -15 -10 -13 0 -13 -4 -3 -22 7 -13 15 -25 18 -28 3 -3 6 -18 6 -35 1 -16 3 -44 5 -62 4 -30 5 -31 22 -13 23 26 22 80 -4 135 -21 45 -29 54 -29 35z"/>
 <path d="M525 280 c3 -5 11 -10 16 -10 6 0 7 5 4 10 -3 6 -11 10 -16 10 -6 0 -7 -4 -4 -10z"/>
 <path d="M530 169 c0 -5 5 -7 10 -4 6 3 10 8 10 11 0 2 -4 4 -10 4 -5 0 -10 -5 -10 -11z"/>
 </g>

</svg>