<!DOCTYPE svg PUBLIC "-//W3C//DTD SVG 20010904//EN" "http://www.w3.org/TR/2001/REC-SVG-20010904/DTD/svg10.dtd">
<svg version="1.0" xmlns="http://www.w3.org/2000/svg" width="64px" height="64px" viewBox="0 0 640 640" preserveAspectRatio="xMidYMid meet">
<g id="layer101" fill="#010100" stroke="none">
 <path d="M0 320 l0 -320 320 0 320 0 0 320 0 320 -320 0 -320 0 0 -320z"/>
 </g>
<g id="layer102" fill="#2e0900" stroke="none">
 <path d="M108 546 c-31 -39 -36 -74 -12 -83 35 -13 90 50 80 91 -9 36 -36 33 -68 -8z"/>
 <path d="M235 540 c-9 -15 16 -43 27 -32 10 10 0 42 -12 42 -5 0 -12 -5 -15 -10z"/>
 <path d="M292 313 c2 -20 8 -28 23 -28 31 0 28 49 -3 53 -20 3 -23 0 -20 -25z"/>
 <path d="M86 311 c-3 -5 1 -14 9 -21 12 -10 15 -10 15 3 0 19 -16 31 -24 18z"/>
 <path d="M577 223 c-9 -9 22 -43 40 -43 18 0 16 14 -5 33 -21 19 -26 20 -35 10z"/>
 <path d="M362 118 c-17 -17 -15 -53 3 -68 22 -19 64 -4 71 25 3 14 4 32 0 40 -7 18 -57 20 -74 3z"/>
 </g>
<g id="layer103" fill="#490900" stroke="none">
 <path d="M110 515 c0 -8 5 -15 10 -15 6 0 10 7 10 15 0 8 -4 15 -10 15 -5 0 -10 -7 -10 -15z"/>
 <path d="M370 104 c-11 -12 -10 -18 3 -32 16 -15 18 -15 33 0 19 18 12 48 -9 48 -8 0 -20 -7 -27 -16z"/>
 </g>

</svg>