<!DOCTYPE svg PUBLIC "-//W3C//DTD SVG 20010904//EN" "http://www.w3.org/TR/2001/REC-SVG-20010904/DTD/svg10.dtd">
<svg version="1.0" xmlns="http://www.w3.org/2000/svg" width="64px" height="64px" viewBox="0 0 640 640" preserveAspectRatio="xMidYMid meet">
<g id="layer101" fill="#080808" stroke="none">
 <path d="M0 320 l0 -320 320 0 320 0 0 320 0 320 -320 0 -320 0 0 -320z"/>
 </g>
<g id="layer102" fill="#303030" stroke="none">
 <path d="M259 586 c-62 -16 -133 -60 -163 -99 -68 -91 -59 -253 20 -345 53 -62 103 -85 202 -90 131 -7 196 29 254 141 33 65 37 187 8 255 -24 56 -83 116 -136 138 -40 17 -123 17 -185 0z"/>
 </g>
<g id="layer103" fill="#505050" stroke="none">
 <path d="M325 536 c-23 -7 -72 -31 -111 -54 -71 -41 -94 -70 -94 -118 0 -23 39 -128 73 -194 40 -79 205 -103 272 -40 36 34 63 107 70 196 6 70 5 85 -14 122 -40 79 -117 114 -196 88z"/>
 </g>
<g id="layer104" fill="#707070" stroke="none">
 <path d="M317 485 c-44 -23 -116 -85 -122 -106 -4 -11 2 -38 14 -62 11 -23 29 -68 41 -100 24 -64 41 -77 98 -77 72 0 117 56 133 164 12 83 3 121 -38 162 -38 38 -78 44 -126 19z"/>
 </g>
<g id="layer105" fill="#888888" stroke="none">
 <path d="M303 415 c-32 -32 -35 -40 -31 -78 3 -23 14 -64 26 -90 17 -38 26 -47 46 -47 66 0 116 179 63 228 -33 31 -64 27 -104 -13z"/>
 </g>

</svg>