<!DOCTYPE svg PUBLIC "-//W3C//DTD SVG 20010904//EN" "http://www.w3.org/TR/2001/REC-SVG-20010904/DTD/svg10.dtd">
<svg version="1.0" xmlns="http://www.w3.org/2000/svg" width="64px" height="64px" viewBox="0 0 640 640" preserveAspectRatio="xMidYMid meet">
<g id="layer101" fill="#020900" stroke="none">
 <path d="M0 320 l0 -320 320 0 320 0 0 320 0 320 -320 0 -320 0 0 -320z"/>
 </g>
<g id="layer102" fill="#0d3000" stroke="none">
 <path d="M0 629 c0 -5 6 -7 13 -3 10 6 10 4 0 -7 -17 -17 -16 -29 2 -29 7 0 18 -8 24 -17 13 -23 28 -8 37 35 6 32 6 32 -35 32 -22 0 -41 -5 -41 -11z"/>
 <path d="M101 624 c0 -11 3 -14 6 -6 3 7 2 16 -1 19 -3 4 -6 -2 -5 -13z"/>
 <path d="M121 584 c-7 -30 -11 -58 -8 -60 2 -3 23 2 45 11 28 11 42 24 44 38 2 14 10 22 23 22 16 0 21 -8 23 -35 2 -19 8 -41 14 -47 16 -20 66 -16 77 6 12 22 0 36 -41 46 -16 4 -25 13 -24 23 4 24 22 26 67 8 53 -21 56 -21 56 14 0 20 -3 26 -9 18 -6 -10 -8 -10 -8 0 0 18 -109 16 -129 -2 -27 -24 -81 -25 -81 -1 0 8 -8 15 -18 15 -15 0 -22 -13 -31 -56z"/>
 <path d="M223 633 c4 -3 10 -3 14 0 3 4 0 7 -7 7 -7 0 -10 -3 -7 -7z"/>
 <path d="M410 631 c0 -5 9 -7 19 -4 13 3 21 -1 24 -14 4 -15 5 -14 6 5 1 17 -4 22 -24 22 -14 0 -25 -4 -25 -9z"/>
 <path d="M470 622 c0 -10 14 -29 30 -44 17 -14 30 -36 30 -47 0 -24 10 -27 28 -9 8 8 12 9 12 1 0 -6 -7 -19 -16 -27 -14 -15 -14 -17 0 -22 9 -3 16 -14 16 -23 0 -14 2 -14 10 -1 6 10 6 16 0 18 -6 2 -1 16 10 32 11 15 20 34 20 42 0 8 4 18 9 23 5 6 12 25 16 43 6 30 5 32 -22 32 -16 0 -34 -5 -41 -12 -9 -9 -12 -9 -12 3 0 12 -2 12 -10 -1 -6 -10 -10 -11 -10 -2 0 7 -14 12 -35 12 -27 0 -35 -4 -35 -18z m127 -79 c-4 -3 -10 -3 -14 0 -3 4 0 7 7 7 7 0 10 -3 7 -7z"/>
 <path d="M193 623 c4 -3 10 -3 14 0 3 4 0 7 -7 7 -7 0 -10 -3 -7 -7z"/>
 <path d="M91 584 c0 -11 3 -14 6 -6 3 7 2 16 -1 19 -3 4 -6 -2 -5 -13z"/>
 <path d="M303 583 c4 -3 10 -3 14 0 3 4 0 7 -7 7 -7 0 -10 -3 -7 -7z"/>
 <path d="M451 564 c14 -39 -6 -57 -31 -26 -10 12 -25 22 -34 22 -19 0 -20 -4 -4 -33 11 -21 10 -21 -7 -7 -13 10 -16 11 -11 2 5 -8 1 -18 -10 -27 -15 -11 -16 -15 -5 -29 14 -17 9 -46 -9 -46 -5 0 -10 8 -10 18 0 14 2 15 10 2 9 -13 10 -13 10 1 0 25 -22 39 -60 39 -30 0 -39 5 -48 25 -7 14 -12 38 -13 53 l-1 27 -7 -25 c-5 -17 -1 -36 12 -57 19 -33 19 -33 -1 -67 l-20 -34 44 -24 c24 -12 44 -26 44 -31 0 -4 -7 -23 -14 -42 -14 -32 -14 -35 3 -35 9 0 22 -5 29 -12 9 -9 12 -9 12 0 0 7 9 12 19 12 13 0 30 18 51 55 23 41 35 53 48 48 13 -4 13 -2 -3 10 -19 14 -18 16 28 58 l48 44 -21 42 c-11 23 -29 47 -40 53 -18 10 -19 9 -9 -16z m49 -78 c0 -20 -21 -34 -59 -38 -51 -5 -51 19 1 41 45 19 58 19 58 -3z m-183 -61 c-2 -26 -7 -49 -11 -52 -6 -7 -64 16 -72 28 -2 5 2 22 11 39 12 24 22 30 47 30 30 0 31 0 25 -45z m71 -91 c-31 -31 -53 -24 -43 15 12 46 26 55 49 32 l20 -21 -26 -26z"/>
 <path d="M424 464 c-19 -15 -19 -15 1 -6 11 5 27 12 35 15 13 5 13 6 -1 6 -8 1 -24 -6 -35 -15z"/>
 <path d="M260 430 c-8 -15 -6 -21 9 -29 22 -12 31 -5 31 26 0 28 -25 31 -40 3z"/>
 <path d="M367 373 c-4 -3 -7 -16 -7 -27 0 -19 1 -19 17 -3 12 11 14 20 7 27 -6 6 -13 7 -17 3z"/>
 <path d="M330 576 c0 -2 7 -7 16 -10 8 -3 12 -2 9 4 -6 10 -25 14 -25 6z"/>
 <path d="M410 573 c0 -4 8 -17 16 -28 15 -20 16 -20 12 4 -3 22 -28 44 -28 24z"/>
 <path d="M0 550 c0 -5 7 -10 16 -10 8 0 12 5 9 10 -3 6 -10 10 -16 10 -5 0 -9 -4 -9 -10z"/>
 <path d="M77 547 c-3 -8 -1 -20 4 -28 6 -10 9 -7 9 14 0 29 -5 35 -13 14z"/>
 <path d="M40 540 c0 -7 3 -10 7 -7 3 4 3 10 0 14 -4 3 -7 0 -7 -7z"/>
 <path d="M160 515 c-14 -8 -20 -14 -15 -14 6 0 21 6 35 14 14 8 21 14 15 14 -5 0 -21 -6 -35 -14z"/>
 <path d="M0 506 c0 -13 58 -31 68 -21 3 2 -1 11 -8 20 -16 19 -60 20 -60 1z"/>
 <path d="M607 513 c-13 -12 -7 -23 13 -23 11 0 20 7 20 15 0 15 -21 21 -33 8z"/>
 <path d="M90 490 c0 -13 11 -13 30 0 12 8 11 10 -7 10 -13 0 -23 -4 -23 -10z"/>
 <path d="M158 483 c-42 -17 -49 -37 -19 -53 45 -24 81 -2 81 49 0 25 -12 25 -62 4z"/>
 <path d="M15 460 c28 -12 65 -12 65 0 0 6 -19 10 -42 9 -33 0 -38 -2 -23 -9z"/>
 <path d="M495 430 c-21 -22 -25 -31 -14 -35 17 -6 69 7 69 18 1 57 -12 62 -55 17z"/>
 <path d="M600 440 c0 -19 20 -60 30 -60 5 0 10 13 10 29 0 20 -6 30 -20 34 -11 3 -20 1 -20 -3z"/>
 <path d="M0 410 c0 -36 3 -36 48 -8 31 19 33 22 16 29 -10 4 -29 8 -41 8 -19 1 -23 -4 -23 -29z"/>
 <path d="M100 431 c0 -8 -14 -26 -32 -41 -27 -23 -30 -29 -19 -46 8 -12 11 -13 8 -3 -6 18 -1 26 30 53 20 16 26 17 53 6 27 -11 30 -17 32 -64 l2 -51 3 50 c3 27 10 53 16 57 7 5 3 8 -11 8 -26 0 -63 17 -74 34 -5 7 -8 6 -8 -3z"/>
 <path d="M567 415 c-4 -8 -2 -17 3 -20 20 -12 9 -26 -17 -24 -16 1 -41 1 -58 1 l-29 -2 23 -17 c24 -16 137 -73 146 -73 3 0 5 9 5 20 0 11 -5 20 -11 20 -6 0 -9 9 -6 20 5 20 2 21 -41 16 -43 -5 -44 -5 -14 4 34 11 35 13 26 48 -7 25 -19 29 -27 7z"/>
 <path d="M445 400 c3 -5 8 -10 11 -10 2 0 4 5 4 10 0 6 -5 10 -11 10 -5 0 -7 -4 -4 -10z"/>
 <path d="M95 377 c-25 -19 -13 -64 20 -77 25 -10 29 -18 25 -55 -7 -63 -54 -69 -48 -6 3 34 1 36 -27 39 -24 2 -33 -3 -43 -25 -25 -52 -25 -52 0 -46 22 5 22 5 4 -9 -19 -15 -19 -15 0 -27 18 -12 18 -12 -1 -7 l-20 6 20 -16 c20 -16 20 -16 -2 -9 -22 6 -23 4 -23 -69 0 -69 2 -76 20 -76 13 0 18 5 14 15 -4 9 0 15 10 15 9 0 16 -7 16 -15 0 -8 5 -15 10 -15 6 0 10 21 11 48 1 71 5 92 17 104 8 8 15 9 22 2 11 -11 12 -35 8 -109 l-3 -40 40 0 c38 0 40 1 37 30 -2 16 -8 35 -14 42 -12 15 -2 33 19 33 13 0 12 5 -7 25 -14 15 -35 25 -50 25 -15 0 -30 3 -33 7 -10 9 23 43 42 43 32 0 44 16 32 39 -7 11 -18 21 -26 21 -11 0 -15 13 -15 54 0 40 -4 55 -16 60 -20 8 -17 8 -39 -7z m-48 -153 c-3 -3 -12 -4 -19 -1 -8 3 -5 6 6 6 11 1 17 -2 13 -5z"/>
 <path d="M207 373 c-4 -3 -7 -21 -7 -39 0 -28 5 -35 26 -40 28 -7 41 1 46 30 3 20 -52 62 -65 49z"/>
 <path d="M437 340 c6 -24 16 -31 55 -39 28 -6 27 -7 -16 -17 -25 -6 -46 -7 -46 -2 0 4 10 8 23 9 21 0 21 1 2 8 -15 6 -23 3 -32 -13 -6 -11 -15 -21 -20 -22 -42 -4 -87 -49 -63 -64 6 -3 9 -23 8 -43 -3 -39 -12 -48 -22 -22 -3 8 -1 15 4 15 6 0 10 5 10 10 0 6 -7 10 -15 10 -22 0 -18 -27 6 -51 l22 -22 -26 7 c-20 5 -25 3 -21 -7 3 -8 -2 -20 -10 -27 -13 -10 -17 -9 -22 3 -7 18 -34 11 -34 -9 0 -7 5 -25 12 -39 11 -26 14 -26 77 -21 37 2 71 6 76 7 6 0 35 -2 67 -5 54 -7 83 4 57 20 -7 4 -9 3 -5 -4 4 -6 -1 -10 -13 -9 -11 1 -18 3 -16 5 10 10 -16 41 -37 44 -11 2 -22 10 -24 20 -2 13 3 15 27 8 25 -7 29 -6 29 11 0 14 -9 21 -30 26 -29 5 -30 8 -24 37 4 17 8 42 8 56 1 21 -3 25 -23 22 -19 -2 -22 0 -12 12 12 14 33 15 83 1 21 -5 29 -2 38 15 14 25 1 39 -35 40 -11 0 -27 5 -35 11 -12 9 -11 10 8 6 12 -3 20 -1 16 4 -3 5 -12 9 -20 9 -8 0 -14 5 -14 10 0 6 -4 10 -9 10 -5 0 -7 -9 -4 -20z m-31 -167 c-4 -4 -12 -1 -19 7 -9 10 -9 11 1 6 7 -4 12 -2 13 6 0 11 2 11 6 0 3 -7 2 -16 -1 -19z m-13 -70 c-13 -2 -23 -12 -23 -20 0 -9 -3 -14 -6 -10 -13 13 6 37 28 36 l23 -2 -22 -4z m17 -17 c0 -2 -7 -6 -15 -10 -8 -3 -15 -1 -15 4 0 6 7 10 15 10 8 0 15 -2 15 -4z m70 -60 c0 -3 -5 -8 -12 -12 -7 -4 -8 -3 -4 4 7 12 16 16 16 8z"/>
 <path d="M13 333 c4 -3 10 -3 14 0 3 4 0 7 -7 7 -7 0 -10 -3 -7 -7z"/>
 <path d="M415 319 c-4 -6 -5 -12 -2 -15 2 -3 7 2 10 11 7 17 1 20 -8 4z"/>
 <path d="M0 290 c1 -22 2 -23 11 -7 5 9 21 17 34 17 14 0 25 3 25 8 0 4 -16 7 -35 7 -31 0 -35 -3 -35 -25z"/>
 <path d="M540 270 c-8 -20 -20 -30 -34 -31 -20 0 -20 -1 -1 -8 16 -7 23 -2 38 26 10 19 16 37 14 39 -2 3 -10 -9 -17 -26z"/>
 <path d="M201 273 c7 -12 15 -20 18 -17 3 2 -3 12 -13 22 -17 16 -18 16 -5 -5z"/>
 <path d="M561 271 c-20 -36 -13 -50 31 -61 27 -8 37 -14 29 -20 -11 -6 -11 -9 0 -14 14 -6 -14 -1 -50 10 -15 4 -24 -3 -35 -25 -21 -41 -20 -51 7 -52 21 0 21 -1 2 -9 l-20 -9 20 -1 c19 -1 18 -2 -2 -10 -38 -15 -22 -59 21 -61 21 0 21 0 1 -9 -15 -6 -8 -9 28 -9 41 -1 47 2 47 19 0 11 -5 19 -11 17 -6 -1 -14 5 -16 13 -4 12 -3 12 5 1 13 -18 19 -4 19 44 0 22 -2 31 -4 20 -8 -31 -20 -39 -31 -18 -7 13 -6 26 3 43 14 24 14 23 10 -15 -2 -22 -2 -31 1 -20 3 11 8 27 11 35 3 8 7 40 8 70 2 36 0 46 -5 30 l-7 -25 -4 24 c-2 13 -14 30 -26 38 -19 13 -23 12 -32 -6z"/>
 <path d="M454 206 c-2 -54 -1 -53 14 6 7 26 7 38 -1 41 -8 3 -12 -13 -13 -47z"/>
 <path d="M110 240 c0 -7 3 -10 7 -7 3 4 3 10 0 14 -4 3 -7 0 -7 -7z"/>
 <path d="M255 240 c3 -5 13 -10 21 -10 8 0 14 5 14 10 0 6 -9 10 -21 10 -11 0 -17 -4 -14 -10z"/>
 <path d="M218 222 c-4 -16 -1 -18 21 -14 17 4 21 7 11 10 -8 3 -18 9 -21 14 -3 5 -8 1 -11 -10z"/>
 <path d="M310 230 c0 -7 3 -10 7 -7 3 4 3 10 0 14 -4 3 -7 0 -7 -7z"/>
 <path d="M476 204 c-3 -9 -6 -24 -6 -35 0 -10 -6 -19 -12 -19 -9 0 -8 -4 2 -10 8 -5 20 -10 25 -10 6 0 3 5 -5 10 -13 8 -13 10 1 10 15 0 39 38 39 60 0 16 -37 11 -44 -6z"/>
 <path d="M530 207 c0 -7 17 -13 43 -14 23 -1 35 1 27 4 -63 20 -70 21 -70 10z"/>
 <path d="M293 203 c4 -3 10 -3 14 0 3 4 0 7 -7 7 -7 0 -10 -3 -7 -7z"/>
 <path d="M165 190 c-29 -7 -29 -8 -4 -9 31 -1 84 -54 76 -75 -4 -10 -1 -13 8 -9 18 6 8 28 -29 62 -14 13 -23 28 -20 32 3 5 4 8 2 8 -2 -1 -16 -5 -33 -9z"/>
 <path d="M220 182 c0 -16 47 -52 67 -52 17 0 20 5 15 23 -3 12 -10 25 -16 29 -15 10 -66 10 -66 0z"/>
 <path d="M504 136 c-3 -13 -4 -32 -2 -42 2 -16 -3 -19 -32 -17 l-35 2 32 -10 c17 -5 34 -17 37 -27 4 -14 5 -13 4 3 0 11 0 22 1 25 4 10 7 90 4 90 -1 0 -5 -11 -9 -24z"/>
 <path d="M280 90 c0 -7 3 -10 7 -7 3 4 3 10 0 14 -4 3 -7 0 -7 -7z"/>
 <path d="M220 40 c0 -7 3 -10 7 -7 3 4 3 10 0 14 -4 3 -7 0 -7 -7z"/>
 <path d="M230 10 c0 -7 3 -10 7 -7 3 4 3 10 0 14 -4 3 -7 0 -7 -7z"/>
 </g>
<g id="layer103" fill="#144700" stroke="none">
 <path d="M40 605 c0 -52 21 -48 34 8 5 23 3 27 -14 27 -16 0 -20 -7 -20 -35z"/>
 <path d="M122 583 c-6 -31 -11 -57 -9 -59 1 -1 21 7 45 17 46 20 58 53 22 62 -11 3 -20 12 -20 21 0 9 -6 16 -13 16 -8 0 -18 -23 -25 -57z"/>
 <path d="M270 625 c0 -9 -10 -15 -27 -16 -17 -1 -21 -3 -10 -6 11 -3 17 -15 17 -36 0 -18 7 -40 14 -49 17 -23 62 -23 70 -2 9 22 -8 40 -44 48 -33 6 -38 20 -15 42 13 14 21 13 73 -6 32 -12 51 -16 45 -9 -7 7 -13 21 -13 31 0 15 -9 18 -55 18 -42 0 -55 -3 -55 -15z"/>
 <path d="M482 632 c-18 -12 -7 -34 27 -54 22 -12 28 -22 24 -36 -7 -30 13 -35 26 -6 8 18 16 24 29 20 14 -5 22 1 31 20 6 15 9 29 6 32 -2 3 0 11 6 19 20 23 -38 16 -60 -8 l-19 -21 -11 21 c-12 22 -36 27 -59 13z"/>
 <path d="M458 550 c5 -38 -20 -45 -53 -14 -33 31 -42 31 -21 -1 23 -35 20 -48 -9 -43 -29 6 -29 7 -14 -26 9 -20 9 -29 -1 -41 -7 -9 -18 -14 -24 -12 -9 3 -61 -132 -53 -139 3 -3 40 -6 63 -5 11 0 26 12 31 24 10 22 9 23 -13 19 -20 -4 -24 0 -24 19 1 68 33 91 64 47 16 -22 20 -16 17 23 -1 9 9 21 21 28 21 11 21 11 -9 7 -66 -11 -48 44 21 64 43 12 44 13 34 40 -13 39 -35 46 -30 10z"/>
 <path d="M74 538 c-4 -7 -3 -8 4 -4 12 7 16 16 8 16 -3 0 -8 -5 -12 -12z"/>
 <path d="M583 523 c4 -3 10 -3 14 0 3 4 0 7 -7 7 -7 0 -10 -3 -7 -7z"/>
 <path d="M0 506 c0 -8 14 -15 34 -18 38 -4 40 16 3 26 -32 8 -37 7 -37 -8z"/>
 <path d="M616 511 c-3 -5 1 -11 9 -15 9 -3 15 0 15 9 0 16 -16 20 -24 6z"/>
 <path d="M565 500 c-3 -5 -1 -10 4 -10 6 0 11 5 11 10 0 6 -2 10 -4 10 -3 0 -8 -4 -11 -10z"/>
 <path d="M168 483 c-44 -18 -49 -39 -12 -55 23 -11 29 -10 45 11 37 46 22 66 -33 44z"/>
 <path d="M500 490 c0 -7 3 -10 7 -7 3 4 3 10 0 14 -4 3 -7 0 -7 -7z"/>
 <path d="M293 473 c4 -3 10 -3 14 0 3 4 0 7 -7 7 -7 0 -10 -3 -7 -7z"/>
 <path d="M58 453 c7 -3 16 -2 19 1 4 3 -2 6 -13 5 -11 0 -14 -3 -6 -6z"/>
 <path d="M502 431 c-25 -35 -20 -43 19 -29 21 7 29 16 29 34 0 32 -22 30 -48 -5z"/>
 <path d="M270 435 c-10 -12 -10 -19 -1 -28 9 -9 14 -9 21 3 22 34 4 54 -20 25z"/>
 <path d="M0 416 c0 -32 28 -35 55 -6 18 19 17 20 -3 20 -11 0 -27 3 -36 6 -12 5 -16 0 -16 -20z"/>
 <path d="M612 418 c5 -32 28 -35 28 -4 0 17 -5 26 -16 26 -10 0 -14 -7 -12 -22z"/>
 <path d="M100 420 c0 -5 5 -10 11 -10 5 0 7 5 4 10 -3 6 -8 10 -11 10 -2 0 -4 -4 -4 -10z"/>
 <path d="M570 411 c0 -6 5 -13 10 -16 6 -3 10 1 10 9 0 9 -4 16 -10 16 -5 0 -10 -4 -10 -9z"/>
 <path d="M225 400 c3 -5 8 -10 11 -10 3 0 2 5 -1 10 -3 6 -8 10 -11 10 -3 0 -2 -4 1 -10z"/>
 <path d="M91 366 c-20 -24 5 -66 42 -66 18 0 23 32 11 64 -8 20 -38 21 -53 2z"/>
 <path d="M200 340 c0 -35 32 -59 56 -39 20 17 17 35 -8 53 -34 24 -48 20 -48 -14z"/>
 <path d="M366 353 c-6 -14 -5 -15 5 -6 7 7 10 15 7 18 -3 3 -9 -2 -12 -12z"/>
 <path d="M488 363 c7 -3 16 -2 19 1 4 3 -2 6 -13 5 -11 0 -14 -3 -6 -6z"/>
 <path d="M577 351 c-21 -3 -38 -10 -38 -15 0 -4 23 -19 50 -32 49 -22 51 -22 51 -4 0 12 -7 20 -16 20 -11 0 -15 6 -11 20 3 11 4 19 4 19 -1 -1 -19 -5 -40 -8z"/>
 <path d="M170 330 c0 -7 3 -10 7 -7 3 4 3 10 0 14 -4 3 -7 0 -7 -7z"/>
 <path d="M0 293 c0 -10 4 -14 8 -8 4 6 11 13 16 18 5 4 2 7 -7 7 -10 0 -17 -8 -17 -17z"/>
 <path d="M495 286 l-40 -13 29 -12 c16 -6 30 -10 31 -9 6 7 25 48 23 47 -2 0 -21 -6 -43 -13z"/>
 <path d="M28 256 c-4 -19 0 -26 16 -30 21 -6 21 -6 -3 -26 -20 -17 -21 -21 -7 -26 27 -10 20 -37 -9 -32 -24 5 -24 5 -23 -68 1 -54 5 -74 15 -74 7 0 12 3 12 7 -6 37 27 46 39 12 6 -14 8 1 9 45 0 45 6 74 18 93 16 24 16 27 1 38 -11 8 -15 24 -14 46 3 30 0 34 -23 37 -21 2 -27 -2 -31 -22z"/>
 <path d="M559 254 c-11 -32 -13 -30 29 -39 28 -6 32 -4 32 13 0 21 -24 52 -41 52 -5 0 -14 -12 -20 -26z"/>
 <path d="M146 255 c-12 -32 -7 -46 17 -43 16 2 22 10 22 28 0 29 -29 40 -39 15z"/>
 <path d="M260 240 c19 -13 30 -13 30 0 0 6 -10 10 -22 10 -19 0 -20 -2 -8 -10z"/>
 <path d="M345 229 c-4 -13 -2 -25 5 -29 8 -5 10 -18 6 -37 -7 -28 -4 -32 31 -45 63 -26 106 -32 101 -17 -2 8 -19 18 -36 24 -32 9 -40 23 -23 41 4 5 11 24 15 43 6 31 5 33 -19 29 -14 -3 -28 -1 -31 3 -10 17 -43 9 -49 -12z m73 -47 c3 -17 -2 -22 -17 -22 -16 0 -21 6 -21 26 0 33 33 30 38 -4z"/>
 <path d="M476 194 c-11 -41 9 -52 28 -16 14 27 14 31 0 36 -22 8 -21 9 -28 -20z"/>
 <path d="M230 182 c0 -5 11 -18 23 -31 22 -20 25 -20 38 -5 11 14 11 18 -6 30 -21 15 -55 19 -55 6z"/>
 <path d="M450 180 c0 -7 3 -10 7 -7 3 4 3 10 0 14 -4 3 -7 0 -7 -7z"/>
 <path d="M536 154 c-21 -44 -21 -44 9 -44 33 0 33 -26 -1 -34 -31 -8 -27 -26 12 -46 16 -8 31 -18 32 -22 6 -14 52 -8 52 6 0 9 -7 12 -21 9 -19 -5 -21 -3 -15 25 6 23 3 33 -11 40 -17 10 -17 12 0 40 22 39 22 38 -12 50 -26 9 -29 8 -45 -24z"/>
 <path d="M134 127 c3 -17 2 -46 -2 -62 -15 -57 8 -80 61 -59 20 7 1 71 -25 85 -26 14 -12 30 20 23 l27 -7 -24 27 c-14 14 -33 26 -44 26 -16 0 -18 -5 -13 -33z"/>
 <path d="M163 103 c4 -3 10 -3 14 0 3 4 0 7 -7 7 -7 0 -10 -3 -7 -7z"/>
 <path d="M317 80 c-27 -22 -47 -26 -47 -10 0 6 -4 10 -10 10 -14 0 -12 -42 4 -62 17 -23 121 -26 113 -4 -4 11 1 13 20 10 15 -3 30 -7 35 -10 4 -3 19 3 32 14 l24 19 -49 15 c-27 9 -49 12 -49 7 0 -5 -7 -9 -15 -9 -8 0 -15 6 -15 14 0 25 -16 27 -43 6z m-7 -45 c0 -8 -9 -15 -20 -15 -11 0 -20 7 -20 15 0 8 9 15 20 15 11 0 20 -7 20 -15z"/>
 <path d="M503 3 c4 -3 10 -3 14 0 3 4 0 7 -7 7 -7 0 -10 -3 -7 -7z"/>
 </g>

</svg>