<!DOCTYPE svg PUBLIC "-//W3C//DTD SVG 20010904//EN" "http://www.w3.org/TR/2001/REC-SVG-20010904/DTD/svg10.dtd">
<svg version="1.0" xmlns="http://www.w3.org/2000/svg" width="64px" height="64px" viewBox="0 0 640 640" preserveAspectRatio="xMidYMid meet">
<g id="layer101" fill="#000a00" stroke="none">
 <path d="M0 320 l0 -320 320 0 320 0 0 320 0 320 -320 0 -320 0 0 -320z"/>
 </g>
<g id="layer102" fill="#003000" stroke="none">
 <path d="M0 590 c0 -27 5 -50 10 -50 13 0 13 -37 0 -45 -7 -4 -10 -94 -10 -251 l1 -244 162 1 c146 1 158 2 122 14 -22 7 -55 21 -73 32 -29 18 -31 21 -16 34 14 11 18 10 30 -6 21 -28 48 -8 52 39 2 27 -1 36 -12 36 -10 0 -16 9 -16 23 0 16 9 26 32 35 29 11 36 9 69 -14 42 -29 56 -27 128 12 50 28 61 29 61 10 0 -8 -19 -25 -42 -38 -46 -25 -60 -57 -37 -84 7 -8 15 -32 18 -52 l6 -37 78 -3 77 -3 0 244 0 244 -39 7 c-49 7 -64 26 -22 26 54 0 61 7 61 66 l0 54 -74 0 c-68 0 -74 -2 -69 -19 6 -23 -14 -38 -30 -22 -17 17 -46 13 -83 -10 l-33 -20 -9 33 -8 33 -167 3 -167 2 0 -50z m374 -97 c9 -26 16 -47 16 -48 0 -1 -11 0 -23 2 -13 3 -52 -8 -89 -25 -61 -27 -66 -32 -73 -68 l-7 -39 -39 44 c-21 24 -40 52 -40 62 -1 11 -2 25 -3 32 -1 7 18 14 49 18 28 4 78 20 110 36 33 17 65 31 72 31 6 1 18 -19 27 -45z m50 -124 c-3 -5 -14 -9 -25 -9 -17 0 -18 3 -9 21 9 16 14 18 26 9 7 -7 11 -16 8 -21z m184 -61 c-6 -18 -28 -21 -28 -4 0 9 7 16 16 16 9 0 14 -5 12 -12z m-480 -260 c-14 -8 -48 -11 -48 -4 0 2 3 11 6 20 5 12 10 13 30 4 18 -8 21 -14 12 -20z"/>
 <path d="M366 45 c-6 -17 17 -31 34 -20 5 3 10 13 10 21 0 19 -36 18 -44 -1z"/>
 </g>
<g id="layer103" fill="#005100" stroke="none">
 <path d="M0 602 c0 -34 3 -38 23 -38 33 1 35 -43 2 -74 l-25 -23 0 -199 0 -198 24 -6 c42 -10 49 2 42 72 -5 52 -4 64 8 64 9 0 17 -15 21 -42 10 -60 22 -78 51 -78 32 0 84 50 84 82 0 41 -33 122 -71 173 -40 53 -59 94 -59 126 0 15 7 19 38 19 34 0 118 29 167 57 23 13 25 80 3 94 -7 5 -79 9 -160 9 l-148 0 0 -38z"/>
 <path d="M510 611 c0 -39 -14 -46 -50 -25 -29 18 -31 17 -57 -2 -16 -12 -29 -29 -31 -38 -4 -17 0 -24 62 -144 20 -38 9 -62 -27 -62 -12 0 -33 -12 -48 -26 -17 -16 -34 -24 -43 -21 -26 10 -18 34 19 63 23 17 35 35 35 50 0 29 -23 31 -77 9 -72 -30 -83 -53 -63 -127 15 -51 36 -71 61 -57 16 8 26 5 55 -20 19 -17 39 -31 45 -31 5 0 41 16 79 35 80 40 90 42 90 16 0 -18 -10 -28 -80 -81 -25 -18 -25 -19 -8 -52 9 -18 20 -48 23 -66 l7 -32 69 0 c73 0 85 9 44 36 -32 21 -32 44 0 44 l25 0 0 194 c0 215 6 196 -68 211 -37 8 -62 42 -37 51 8 4 25 4 36 1 12 -3 32 -2 45 3 20 8 24 16 24 55 l0 45 -65 0 -65 0 0 -29z m115 -292 c8 -25 -2 -37 -35 -41 -25 -3 -37 19 -26 48 9 22 54 18 61 -7z"/>
 <path d="M105 21 l-40 -19 90 -1 90 0 -24 19 c-29 25 -64 25 -116 1z"/>
 <path d="M0 10 c0 -6 7 -10 15 -10 8 0 15 2 15 4 0 2 -7 6 -15 10 -8 3 -15 1 -15 -4z"/>
 </g>
<g id="layer104" fill="#0f6f0c" stroke="none">
 <path d="M0 608 c1 -31 2 -32 15 -15 7 11 11 25 8 33 -10 25 -23 15 -23 -18z"/>
 <path d="M67 622 c-15 -17 -16 -23 -3 -65 14 -47 14 -47 -16 -72 -16 -14 -33 -25 -38 -25 -5 0 -9 -85 -9 -189 -1 -180 0 -190 19 -196 33 -11 40 3 38 73 -3 61 -1 67 17 67 16 0 22 -11 31 -54 15 -65 23 -74 58 -65 30 7 56 39 56 69 0 37 -41 129 -80 180 -35 45 -66 128 -55 146 3 4 24 4 47 2 57 -7 77 16 85 91 l6 56 -70 0 c-55 0 -73 -4 -86 -18z"/>
 <path d="M522 598 c3 -37 7 -43 32 -49 47 -13 80 8 84 54 l3 37 -61 0 -61 0 3 -42z"/>
 <path d="M265 596 c-9 -14 -15 -32 -13 -41 3 -14 5 -14 26 0 23 16 30 49 12 60 -5 3 -16 -6 -25 -19z"/>
 <path d="M403 573 c-16 -6 -17 -69 -2 -78 16 -11 60 -117 57 -140 -2 -14 -13 -21 -41 -26 -26 -4 -47 -16 -63 -35 -30 -37 -30 -49 1 -80 29 -29 43 -27 119 15 53 29 61 39 71 84 7 35 48 56 76 39 18 -12 19 -9 19 47 0 59 0 59 -32 66 -45 9 -88 26 -88 35 0 4 -16 23 -35 43 -34 35 -54 42 -82 30z"/>
 <path d="M284 391 c-41 -25 -55 -88 -29 -127 15 -23 19 -24 31 -12 12 11 12 20 3 47 -11 31 -10 34 25 63 20 16 36 34 36 39 0 15 -33 10 -66 -10z"/>
 <path d="M609 269 c-15 -6 -32 -25 -43 -48 -10 -24 -31 -48 -52 -61 -29 -16 -35 -25 -30 -43 3 -12 11 -43 18 -70 l13 -47 65 0 65 0 -25 20 c-14 11 -28 20 -31 20 -4 0 -9 7 -13 15 -7 20 22 47 45 40 18 -6 19 0 19 89 0 53 -1 96 -2 95 -2 0 -15 -5 -29 -10z"/>
 <path d="M120 15 c-35 -13 -35 -13 34 -14 60 -1 67 1 56 14 -15 18 -43 18 -90 0z"/>
 </g>
<g id="layer105" fill="#21811e" stroke="none">
 <path d="M2 615 c0 -16 2 -22 5 -12 2 9 2 23 0 30 -3 6 -5 -1 -5 -18z"/>
 <path d="M82 628 c-32 -32 -1 -122 45 -131 41 -8 59 7 72 57 21 83 19 86 -47 86 -32 0 -63 -5 -70 -12z"/>
 <path d="M523 605 c-2 -25 2 -37 16 -45 49 -26 101 1 101 53 0 26 -2 27 -57 27 l-58 0 -2 -35z"/>
 <path d="M401 552 c-7 -12 -6 -25 2 -39 86 -154 89 -184 18 -194 -67 -9 -103 -66 -63 -102 25 -23 38 -21 107 16 54 29 60 36 68 74 7 36 13 43 48 57 22 9 45 14 50 11 5 -4 9 11 9 33 l0 39 -58 17 c-47 13 -65 24 -95 61 -40 48 -70 57 -86 27z"/>
 <path d="M40 465 c-7 -8 -19 -15 -27 -15 -12 0 -14 -12 -9 -62 7 -74 7 -75 0 -197 -6 -96 -1 -110 35 -111 11 0 13 13 9 62 -7 74 -3 88 23 88 21 0 32 -20 45 -85 7 -30 14 -41 31 -43 29 -4 63 31 63 64 0 46 -34 124 -77 176 -23 28 -46 70 -52 94 -12 47 -21 53 -41 29z"/>
 <path d="M300 379 c0 -5 5 -7 10 -4 6 3 10 8 10 11 0 2 -4 4 -10 4 -5 0 -10 -5 -10 -11z"/>
 <path d="M250 301 c0 -21 13 -41 26 -41 17 0 17 5 4 31 -11 20 -30 26 -30 10z"/>
 <path d="M608 259 c-15 -6 -31 -22 -36 -38 -6 -16 -28 -43 -51 -61 -38 -31 -39 -34 -27 -59 7 -14 16 -43 20 -63 l7 -38 57 0 57 0 -25 20 c-14 11 -29 20 -33 20 -5 0 -7 12 -5 28 2 22 8 28 36 30 l32 3 0 85 c0 46 -1 84 -2 83 -2 0 -15 -5 -30 -10z"/>
 <path d="M120 10 c-11 -7 0 -10 38 -10 33 0 51 4 47 10 -8 13 -65 13 -85 0z"/>
 </g>
<g id="layer106" fill="#32922f" stroke="none">
 <path d="M86 617 c-33 -49 25 -134 77 -114 15 6 33 55 39 107 3 23 0 25 -49 28 -45 3 -54 0 -67 -21z"/>
 <path d="M530 605 c0 -28 5 -38 23 -44 39 -15 87 16 87 56 0 21 -4 23 -55 23 l-55 0 0 -35z"/>
 <path d="M417 553 c-13 -12 -7 -40 13 -58 11 -10 20 -28 20 -41 0 -13 11 -35 25 -50 18 -19 23 -34 19 -48 -11 -36 -25 -46 -65 -46 -58 0 -100 -55 -67 -88 19 -19 49 -14 106 18 47 27 52 34 52 64 0 38 21 66 50 66 10 0 32 11 47 25 28 25 28 25 8 40 -11 9 -31 18 -45 21 -54 12 -82 28 -111 65 -31 39 -40 45 -52 32z"/>
 <path d="M25 434 c-21 -16 -22 -35 -3 -96 9 -31 8 -41 -6 -62 -22 -35 -23 -174 -1 -183 25 -9 30 4 27 73 -3 53 0 65 14 71 29 11 49 -12 60 -68 9 -51 12 -54 39 -54 21 0 33 7 44 26 13 24 12 32 -9 89 -13 35 -41 83 -63 109 -22 25 -46 60 -54 78 -15 37 -20 39 -48 17z"/>
 <path d="M598 249 c-10 -5 -18 -17 -18 -26 0 -9 -21 -36 -46 -60 -45 -41 -46 -44 -31 -66 9 -13 19 -40 22 -61 7 -35 9 -36 51 -36 24 0 44 2 44 5 0 2 -13 11 -30 20 -53 27 -27 97 31 82 17 -5 19 1 19 74 0 82 -5 90 -42 68z"/>
 <path d="M135 10 c-15 -7 -10 -9 23 -9 26 -1 41 3 37 9 -7 12 -32 12 -60 0z"/>
 </g>
<g id="layer107" fill="#42a23f" stroke="none">
 <path d="M97 622 c-21 -23 -21 -45 -2 -82 15 -29 47 -46 65 -35 10 6 40 98 40 122 0 21 -83 17 -103 -5z"/>
 <path d="M537 613 c-6 -34 8 -53 39 -53 29 0 66 35 62 58 -2 13 -15 18 -49 20 -44 3 -47 1 -52 -25z"/>
 <path d="M460 450 c0 -22 64 -70 93 -70 55 0 80 55 30 66 -16 3 -41 10 -57 15 -46 14 -66 11 -66 -11z"/>
 <path d="M27 377 c-3 -8 -1 -20 4 -28 15 -24 10 -69 -11 -86 -17 -15 -20 -30 -20 -90 0 -67 2 -73 20 -73 19 0 21 5 18 73 l-3 72 30 0 c33 0 50 -25 60 -88 7 -45 28 -57 55 -32 25 23 25 51 0 119 -14 37 -36 69 -70 100 -50 47 -74 56 -83 33z"/>
 <path d="M376 281 c-45 -50 11 -77 79 -38 56 32 53 51 -11 55 -40 2 -54 -1 -68 -17z"/>
 <path d="M581 213 c-10 -21 -33 -50 -50 -66 -30 -26 -31 -28 -15 -52 9 -14 18 -25 20 -25 2 0 14 11 28 25 19 19 32 24 51 19 25 -6 25 -6 25 65 0 64 -2 71 -20 71 -13 0 -26 -13 -39 -37z"/>
 <path d="M540 15 c0 -11 11 -15 38 -15 35 1 36 2 18 15 -26 19 -56 19 -56 0z"/>
 <path d="M153 3 c9 -2 23 -2 30 0 6 3 -1 5 -18 5 -16 0 -22 -2 -12 -5z"/>
 </g>
<g id="layer108" fill="#4faf4c" stroke="none">
 <path d="M111 624 c-19 -14 -22 -23 -18 -51 7 -42 23 -63 48 -63 22 0 38 33 46 93 5 35 4 37 -23 37 -16 0 -40 -7 -53 -16z"/>
 <path d="M540 611 c0 -38 26 -55 61 -38 16 8 24 21 24 37 0 22 -5 25 -42 28 -42 3 -43 2 -43 -27z"/>
 <path d="M490 440 c0 -13 54 -40 80 -40 22 0 28 28 8 34 -33 11 -88 14 -88 6z"/>
 <path d="M60 326 c0 -13 -2 -30 -5 -38 -2 -7 10 -22 28 -33 26 -17 33 -30 42 -75 9 -45 14 -56 33 -58 65 -9 36 137 -38 197 -47 37 -60 39 -60 7z"/>
 <path d="M386 274 c-35 -34 -5 -54 43 -29 34 17 39 30 15 39 -25 10 -42 7 -58 -10z"/>
 <path d="M0 175 c0 -51 3 -65 15 -65 11 0 15 12 15 49 0 54 -7 81 -21 81 -5 0 -9 -29 -9 -65z"/>
 <path d="M580 200 c-12 -23 -30 -50 -41 -61 -27 -27 -12 -47 21 -29 12 7 35 10 51 8 l29 -5 0 64 c0 56 -2 63 -20 63 -13 0 -27 -14 -40 -40z"/>
 <path d="M550 10 c0 -5 12 -10 26 -10 14 0 23 4 19 10 -3 6 -15 10 -26 10 -10 0 -19 -4 -19 -10z"/>
 <path d="M163 3 c4 -3 10 -3 14 0 3 4 0 7 -7 7 -7 0 -10 -3 -7 -7z"/>
 </g>
<g id="layer109" fill="#62c25f" stroke="none">
 <path d="M130 627 c-43 -22 -35 -107 10 -107 14 0 22 11 29 38 22 78 12 95 -39 69z"/>
 <path d="M550 610 c0 -35 19 -47 50 -30 34 18 23 54 -17 58 -31 3 -33 1 -33 -28z"/>
 <path d="M113 289 c-8 -8 -7 -21 3 -47 7 -21 16 -54 19 -74 4 -28 11 -38 25 -38 28 0 34 34 15 89 -18 56 -45 87 -62 70z"/>
 <path d="M590 208 c-29 -47 -25 -63 15 -75 l35 -11 0 59 c0 69 -18 79 -50 27z"/>
 <path d="M0 176 c0 -42 3 -56 13 -53 8 2 11 19 9 48 -6 68 -22 72 -22 5z"/>
 <path d="M568 3 c7 -3 16 -2 19 1 4 3 -2 6 -13 5 -11 0 -14 -3 -6 -6z"/>
 </g>
<g id="layer110" fill="#6ccc69" stroke="none">
 <path d="M567 633 c-4 -3 -7 -17 -7 -30 0 -26 21 -31 40 -8 18 22 -13 58 -33 38z"/>
 <path d="M133 620 c-23 -9 -30 -40 -17 -74 16 -41 54 2 54 60 0 26 -4 27 -37 14z"/>
 <path d="M134 225 c12 -83 23 -104 41 -74 10 15 -14 96 -33 111 -13 11 -14 7 -8 -37z"/>
 <path d="M596 201 c-21 -39 -21 -38 15 -56 l30 -16 -3 47 c-4 57 -21 67 -42 25z"/>
 <path d="M1 175 c-1 -29 3 -45 8 -40 5 6 6 28 1 50 l-8 40 -1 -50z"/>
 </g>

</svg>