<!DOCTYPE svg PUBLIC "-//W3C//DTD SVG 20010904//EN" "http://www.w3.org/TR/2001/REC-SVG-20010904/DTD/svg10.dtd">
<svg version="1.0" xmlns="http://www.w3.org/2000/svg" width="64px" height="64px" viewBox="0 0 640 640" preserveAspectRatio="xMidYMid meet">
<g id="layer101" fill="#1b1b1b" stroke="none">
 <path d="M0 320 l0 -320 320 0 320 0 0 320 0 320 -320 0 -320 0 0 -320z"/>
 </g>
<g id="layer102" fill="#313131" stroke="none">
 <path d="M0 578 c0 -43 4 -60 15 -64 19 -8 19 -24 0 -24 -21 0 -19 -50 3 -66 16 -13 16 -13 0 -14 -13 0 -18 -8 -18 -30 0 -24 5 -31 26 -36 18 -5 22 -9 13 -14 -7 -5 -18 -6 -26 -3 -9 4 -13 -5 -13 -31 0 -26 4 -36 16 -36 8 0 12 -5 9 -10 -4 -6 -11 -8 -16 -5 -5 4 -9 -43 -9 -115 0 -78 4 -119 10 -115 5 3 10 1 10 -4 0 -7 29 -11 78 -11 73 1 75 1 47 14 -16 8 -39 21 -50 31 -11 9 -14 14 -7 10 8 -4 12 2 13 17 l0 23 9 -23 c5 -12 16 -22 23 -22 8 0 31 -11 51 -25 36 -25 83 -35 71 -15 -3 5 -2 10 4 10 5 0 13 -4 16 -10 3 -5 30 -10 58 -10 52 1 52 1 25 16 -35 18 -35 21 -1 19 18 0 29 -7 31 -18 3 -14 16 -17 90 -17 l87 0 -32 21 c-18 12 -33 25 -33 31 0 5 -3 7 -7 5 -5 -3 -16 6 -26 19 -10 13 -14 24 -10 25 4 0 18 2 31 3 15 2 27 -5 34 -17 12 -24 64 -69 89 -79 11 -4 19 -1 23 7 10 26 6 394 -4 400 -6 4 -7 -1 -3 -12 7 -17 6 -17 -20 0 -32 21 -36 6 -5 -23 26 -24 4 -28 -26 -5 -10 8 -23 12 -27 9 -5 -3 -6 2 -3 10 3 9 1 16 -6 16 -6 0 -8 5 -5 10 5 8 11 7 21 -1 11 -9 14 -9 14 1 0 8 8 10 21 7 44 -12 49 -1 49 108 l0 103 -239 0 c-197 -1 -238 -3 -234 -14 3 -8 0 -14 -6 -14 -6 0 -11 7 -11 15 0 13 -14 15 -75 14 l-75 -1 0 -60z m385 42 c3 -5 1 -10 -4 -10 -6 0 -11 5 -11 10 0 6 2 10 4 10 3 0 8 -4 11 -10z m-295 -31 c0 -6 6 -7 13 -3 6 4 4 -1 -5 -12 -20 -20 -31 -13 -43 24 -6 22 -5 23 14 13 12 -7 21 -16 21 -22z m404 16 c7 -19 -13 -19 -38 0 -19 14 -19 15 6 15 14 0 28 -7 32 -15z m-459 -5 c3 -5 4 -10 1 -10 -3 0 -8 5 -11 10 -3 6 -4 10 -1 10 3 0 8 -4 11 -10z m311 -12 c4 -5 -4 -8 -17 -6 -12 1 -24 8 -26 15 -5 14 34 6 43 -9z m-46 -41 c0 -5 -6 -4 -14 2 -8 7 -25 9 -40 5 -22 -5 -25 -3 -20 10 4 11 13 15 25 11 12 -4 19 -1 19 7 1 15 30 -20 30 -35z m254 17 c6 -15 8 -15 31 0 17 11 26 13 31 4 5 -7 3 -8 -6 -3 -10 6 -12 4 -7 -8 5 -13 1 -16 -19 -15 -24 2 -68 38 -47 38 6 0 14 -7 17 -16z m-84 -49 c15 -5 20 -4 16 4 -11 17 10 13 24 -4 11 -13 8 -15 -16 -15 -28 -1 -28 -1 -10 -15 11 -8 16 -15 12 -15 -5 0 -2 -8 5 -17 12 -14 10 -14 -13 1 -16 10 -28 24 -28 31 0 8 -8 16 -18 20 -11 3 -24 17 -30 31 -18 38 -14 42 12 13 13 -15 33 -30 46 -34z m-335 25 c3 -5 4 -10 1 -10 -3 0 -8 5 -11 10 -3 6 -4 10 -1 10 3 0 8 -4 11 -10z m58 -14 c27 -21 20 -26 -13 -10 -16 9 -30 17 -30 20 0 9 26 3 43 -10z m47 -15 c0 -4 11 -6 25 -3 15 2 25 0 25 -7 0 -6 -7 -11 -16 -11 -15 0 -15 -2 0 -25 19 -28 7 -34 -15 -7 -25 31 -40 62 -29 62 5 0 10 -4 10 -9z m-135 -22 c11 -17 -1 -21 -15 -4 -8 9 -8 15 -2 15 6 0 14 -5 17 -11z m249 5 c9 -3 14 -10 11 -15 -7 -10 -35 0 -35 12 0 11 3 11 24 3z m196 -14 c0 -5 -2 -10 -4 -10 -3 0 -8 5 -11 10 -3 6 -1 10 4 10 6 0 11 -4 11 -10z m-240 -21 c0 -6 -4 -7 -10 -4 -5 3 -10 11 -10 16 0 6 5 7 10 4 6 -3 10 -11 10 -16z m-258 -13 c7 4 8 2 4 -4 -8 -13 27 -34 46 -27 9 4 19 -7 28 -30 9 -22 20 -35 32 -35 10 0 18 -4 18 -10 0 -21 -37 -9 -70 22 -19 18 -39 31 -43 30 -5 -1 -6 1 -3 6 3 5 -4 16 -15 25 -10 9 -19 22 -18 29 0 10 2 10 6 0 2 -6 10 -9 15 -6z m533 4 c3 -5 1 -10 -4 -10 -6 0 -11 5 -11 10 0 6 2 10 4 10 3 0 8 -4 11 -10z m-193 -35 c8 3 20 0 26 -8 10 -12 7 -14 -17 -13 -18 1 -34 9 -42 21 -11 18 -10 18 3 7 9 -7 22 -10 30 -7z m84 -22 c-7 -7 -26 7 -26 19 0 6 6 6 15 -2 9 -7 13 -15 11 -17z m-269 10 c-4 -3 -10 -3 -14 0 -3 4 0 7 7 7 7 0 10 -3 7 -7z m28 -3 c3 -5 4 -10 1 -10 -3 0 -8 5 -11 10 -3 6 -4 10 -1 10 3 0 8 -4 11 -10z m118 -16 c-3 -8 -10 -11 -17 -7 -6 4 -21 6 -33 4 -37 -4 -53 13 -18 19 43 8 75 1 68 -16z m-128 -14 c3 -5 1 -10 -4 -10 -6 0 -11 5 -11 10 0 6 2 10 4 10 3 0 8 -4 11 -10z m240 -10 c3 -5 2 -10 -4 -10 -5 0 -13 5 -16 10 -3 6 -2 10 4 10 5 0 13 -4 16 -10z m-41 -40 c18 -36 13 -37 -25 -6 -18 16 -24 26 -16 29 22 9 25 7 41 -23z m-338 -44 c19 -19 41 -33 49 -30 7 3 19 -4 25 -16 9 -17 9 -21 1 -15 -7 4 -19 4 -29 0 -14 -5 -14 -7 -2 -15 13 -9 13 -10 0 -10 -22 1 -46 22 -55 49 -5 18 -4 22 6 16 10 -6 11 -5 4 3 -5 5 -19 12 -30 14 -21 3 -34 38 -15 38 7 0 28 -16 46 -34z m484 14 c0 -5 -2 -10 -4 -10 -3 0 -8 5 -11 10 -3 6 -1 10 4 10 6 0 11 -4 11 -10z m-310 -10 c13 -7 21 -7 25 0 11 18 36 -10 29 -33 -4 -12 -2 -17 4 -13 6 3 18 -2 28 -11 10 -10 24 -18 33 -18 8 0 16 -6 19 -14 3 -10 -2 -11 -18 -6 -12 4 -29 8 -37 9 -7 1 -27 19 -44 39 -17 20 -36 37 -42 37 -8 0 -7 -4 1 -12 14 -14 16 -32 2 -23 -6 3 -7 -1 -4 -9 9 -23 -23 -20 -36 3 -25 48 -4 75 40 51z m280 -3 c0 -14 -24 -19 -50 -11 -13 5 -13 6 0 14 22 14 50 12 50 -3z m-195 -17 c3 -5 4 -10 1 -10 -3 0 -8 5 -11 10 -3 6 -4 10 -1 10 3 0 8 -4 11 -10z m280 -30 c3 -5 1 -10 -4 -10 -6 0 -11 5 -11 10 0 6 2 10 4 10 3 0 8 -4 11 -10z m-178 -7 c-4 -3 -10 -3 -14 0 -3 4 0 7 7 7 7 0 10 -3 7 -7z m89 -21 c-9 -9 -37 8 -31 18 5 8 11 7 21 -1 8 -6 12 -14 10 -17z m89 -23 c11 -17 2 -18 -19 -3 -17 12 -17 14 -4 14 9 0 20 -5 23 -11z m-65 -9 c0 -5 -2 -10 -4 -10 -3 0 -8 5 -11 10 -3 6 -1 10 4 10 6 0 11 -4 11 -10z m-190 -61 c0 -5 -4 -9 -10 -9 -15 0 -50 33 -44 42 6 9 54 -20 54 -33z m-295 21 c3 -5 -1 -10 -9 -10 -8 0 -18 5 -21 10 -3 6 1 10 9 10 8 0 18 -4 21 -10z m72 3 c-4 -3 -10 -3 -14 0 -3 4 0 7 7 7 7 0 10 -3 7 -7z m64 -14 c34 -24 37 -39 8 -39 -11 0 -17 4 -14 10 3 5 -3 15 -15 22 -19 12 -27 28 -14 28 3 0 19 -9 35 -21z m194 11 c3 -5 13 -6 23 -3 15 6 15 4 4 -9 -12 -15 -15 -15 -33 0 -10 9 -19 18 -19 19 0 7 19 2 25 -7z m165 0 c0 -5 -2 -10 -4 -10 -3 0 -8 5 -11 10 -3 6 -1 10 4 10 6 0 11 -4 11 -10z m54 -8 c3 -5 -1 -9 -9 -9 -8 0 -12 4 -9 9 3 4 7 8 9 8 2 0 6 -4 9 -8z m-517 -9 c-4 -3 -10 -3 -14 0 -3 4 0 7 7 7 7 0 10 -3 7 -7z m153 -3 c0 -5 -2 -10 -4 -10 -3 0 -8 5 -11 10 -3 6 -1 10 4 10 6 0 11 -4 11 -10z m35 -10 c3 -6 -1 -7 -9 -4 -18 7 -21 14 -7 14 6 0 13 -4 16 -10z m55 -40 c0 -5 -4 -10 -10 -10 -5 0 -10 5 -10 10 0 6 5 10 10 10 6 0 10 -4 10 -10z m90 -19 c0 -11 -26 -22 -34 -14 -12 12 -5 23 14 23 11 0 20 -4 20 -9z"/>
 <path d="M290 260 c0 -7 3 -10 7 -7 3 4 3 10 0 14 -4 3 -7 0 -7 -7z"/>
 <path d="M490 86 c0 -2 7 -9 15 -16 13 -11 14 -10 9 4 -5 14 -24 23 -24 12z"/>
 </g>
<g id="layer103" fill="#474747" stroke="none">
 <path d="M320 620 c32 -25 43 -25 28 0 -7 11 -22 20 -33 20 -18 0 -18 -2 5 -20z"/>
 <path d="M502 618 c25 -25 52 -33 45 -15 -3 7 -10 11 -16 10 -6 -2 -11 4 -11 12 0 8 -9 15 -20 15 -19 0 -19 -1 2 -22z"/>
 <path d="M73 623 c4 -3 10 -3 14 0 3 4 0 7 -7 7 -7 0 -10 -3 -7 -7z"/>
 <path d="M113 597 c9 -20 18 -23 59 -23 35 -1 45 2 38 11 -5 7 -7 14 -5 17 3 3 -12 2 -34 -2 -30 -5 -41 -4 -45 6 -3 8 -10 14 -15 14 -5 0 -4 -10 2 -23z"/>
 <path d="M241 603 c0 -11 3 -13 6 -5 2 6 9 10 14 6 5 -3 9 0 9 5 0 6 -7 11 -15 11 -8 0 -15 -8 -14 -17z"/>
 <path d="M560 612 c0 -5 7 -9 15 -9 8 0 12 4 9 9 -3 4 -9 8 -15 8 -5 0 -9 -4 -9 -8z"/>
 <path d="M600 601 c0 -5 9 -16 20 -26 19 -18 20 -17 20 2 0 12 -8 23 -20 26 -11 3 -20 2 -20 -2z"/>
 <path d="M463 579 c6 -10 20 -19 29 -19 28 0 21 14 -11 27 -28 10 -29 10 -18 -8z"/>
 <path d="M0 576 c0 -7 6 -19 14 -25 11 -9 15 -7 19 8 3 12 -1 22 -10 25 -21 8 -23 8 -23 -8z"/>
 <path d="M95 560 c-3 -5 -1 -10 4 -10 6 0 11 5 11 10 0 6 -2 10 -4 10 -3 0 -8 -4 -11 -10z"/>
 <path d="M444 559 c-9 -15 13 -36 25 -23 6 5 4 14 -4 21 -10 9 -16 10 -21 2z"/>
 <path d="M210 545 c19 -19 80 -38 80 -24 0 5 -8 9 -17 9 -10 0 -31 7 -48 16 -27 14 -29 14 -15 -1z"/>
 <path d="M320 554 c0 -21 23 -40 51 -42 18 -1 38 -10 45 -20 7 -9 14 -12 14 -6 0 6 -9 19 -20 29 -11 10 -20 15 -20 11 0 -4 -12 2 -26 13 -26 21 -44 27 -44 15z"/>
 <path d="M26 534 c-10 -7 -13 -15 -7 -18 5 -4 12 -2 16 4 10 16 35 12 35 -7 0 -9 3 -14 6 -10 10 10 -5 44 -20 44 -7 0 -21 -6 -30 -13z"/>
 <path d="M116 527 c3 -10 9 -15 12 -12 3 3 0 11 -7 18 -10 9 -11 8 -5 -6z"/>
 <path d="M565 520 c3 -5 13 -10 21 -10 8 0 12 5 9 10 -3 6 -13 10 -21 10 -8 0 -12 -4 -9 -10z"/>
 <path d="M95 510 c3 -5 8 -10 11 -10 2 0 4 5 4 10 0 6 -5 10 -11 10 -5 0 -7 -4 -4 -10z"/>
 <path d="M168 500 c12 -11 22 -27 22 -35 0 -8 7 -15 15 -15 8 0 20 -10 26 -22 16 -31 15 -31 37 -17 20 13 20 13 -9 31 -16 10 -36 18 -44 18 -7 0 -15 10 -17 21 -2 12 -14 26 -28 31 l-25 9 23 -21z"/>
 <path d="M540 505 c7 -9 15 -13 17 -11 7 7 -7 26 -19 26 -6 0 -6 -6 2 -15z"/>
 <path d="M130 480 c0 -5 5 -10 10 -10 6 0 10 5 10 10 0 6 -4 10 -10 10 -5 0 -10 -4 -10 -10z"/>
 <path d="M510 480 c0 -7 3 -10 7 -7 3 4 3 10 0 14 -4 3 -7 0 -7 -7z"/>
 <path d="M603 474 c-6 -17 15 -37 29 -28 13 9 9 32 -7 38 -9 3 -18 -1 -22 -10z"/>
 <path d="M1 464 c0 -11 3 -14 6 -6 3 7 2 16 -1 19 -3 4 -6 -2 -5 -13z"/>
 <path d="M89 461 c12 -22 46 -30 39 -8 -3 6 -9 12 -14 12 -5 0 -15 4 -22 9 -11 7 -12 4 -3 -13z"/>
 <path d="M330 460 c-8 -5 -10 -10 -5 -10 6 0 17 5 25 10 8 5 11 10 5 10 -5 0 -17 -5 -25 -10z"/>
 <path d="M430 461 c0 -4 20 -22 45 -39 26 -18 43 -37 40 -42 -4 -6 -11 -8 -16 -5 -5 3 -6 -1 -3 -9 3 -9 11 -16 17 -16 6 0 22 -12 35 -27 15 -19 25 -24 28 -15 3 6 10 10 15 6 5 -3 9 1 9 8 0 20 -17 41 -35 44 -22 3 -45 24 -45 40 0 7 -14 23 -30 36 -31 22 -60 32 -60 19z m147 -118 c-4 -3 -7 0 -7 7 0 7 3 10 7 7 3 -4 3 -10 0 -14z"/>
 <path d="M535 460 c3 -5 8 -10 11 -10 2 0 4 5 4 10 0 6 -5 10 -11 10 -5 0 -7 -4 -4 -10z"/>
 <path d="M390 440 c0 -12 28 -25 36 -17 3 3 -4 10 -15 17 -15 7 -21 7 -21 0z"/>
 <path d="M73 433 c4 -3 10 -3 14 0 3 4 0 7 -7 7 -7 0 -10 -3 -7 -7z"/>
 <path d="M305 430 c4 -6 11 -8 16 -5 14 9 11 15 -7 15 -8 0 -12 -5 -9 -10z"/>
 <path d="M178 423 c6 -2 18 -2 25 0 6 3 1 5 -13 5 -14 0 -19 -2 -12 -5z"/>
 <path d="M141 401 c-17 -11 -4 -19 32 -19 22 0 25 3 16 14 -13 16 -28 17 -48 5z"/>
 <path d="M19 386 c9 -11 9 -15 -1 -19 -7 -2 5 -12 27 -22 35 -15 38 -18 20 -25 -11 -5 -14 -9 -7 -9 6 -1 15 -1 20 -2 4 0 17 -9 28 -20 19 -18 23 -19 37 -4 10 9 18 11 22 5 3 -5 1 -10 -4 -10 -6 0 -11 -4 -11 -10 0 -14 27 -13 36 2 9 14 -23 38 -53 38 -13 0 -23 6 -23 15 0 8 -20 28 -44 45 -48 32 -66 39 -47 16z"/>
 <path d="M398 381 c8 -4 13 -11 13 -15 -3 -18 0 -20 9 -6 9 15 -3 30 -25 30 -5 0 -4 -4 3 -9z"/>
 <path d="M264 369 c-9 -16 2 -22 47 -26 31 -3 40 -1 37 9 -3 7 -14 13 -25 14 -12 1 -28 4 -37 7 -8 3 -18 2 -22 -4z"/>
 <path d="M208 333 c14 -25 32 -39 32 -25 0 6 10 8 22 4 15 -3 19 -2 14 7 -4 7 -16 11 -25 9 -10 -2 -26 4 -36 12 -17 14 -17 14 -7 -7z"/>
 <path d="M318 313 c33 -16 50 -13 37 6 -3 6 -21 11 -38 11 l-32 0 33 -17z"/>
 <path d="M442 315 c9 -10 21 -16 28 -13 7 2 -1 10 -16 17 -27 12 -28 11 -12 -4z"/>
 <path d="M593 292 c-8 -5 -4 -11 13 -19 21 -10 23 -9 13 8 -11 22 -10 21 -26 11z"/>
 <path d="M360 283 c1 -24 60 -57 60 -34 0 5 10 13 23 17 21 8 21 8 -8 15 -43 10 -75 10 -75 2z"/>
 <path d="M560 249 c0 -7 -10 -9 -27 -4 -22 5 -25 4 -16 -6 6 -6 25 -13 42 -14 27 -2 29 0 20 16 -11 21 -19 25 -19 8z"/>
 <path d="M176 237 c3 -10 9 -15 12 -12 3 3 0 11 -7 18 -10 9 -11 8 -5 -6z"/>
 <path d="M5 220 c-9 -14 1 -27 27 -33 22 -6 22 -5 4 8 -20 15 -20 15 0 15 16 0 17 2 4 10 -19 12 -27 12 -35 0z"/>
 <path d="M63 192 c2 -9 9 -16 16 -14 7 1 10 -2 6 -7 -10 -18 31 -32 61 -21 20 8 32 7 50 -5 30 -19 56 -19 30 0 -19 14 -19 15 0 37 10 12 13 18 7 14 -8 -4 -13 -2 -13 5 0 7 -9 6 -25 -5 -24 -16 -95 -20 -95 -5 0 4 -9 9 -21 12 -15 4 -19 1 -16 -11z"/>
 <path d="M270 193 c0 -25 17 -49 27 -39 4 5 2 11 -4 13 -7 3 -13 9 -13 15 0 5 12 0 26 -11 28 -22 69 -27 93 -12 12 8 9 11 -12 16 -15 4 -33 5 -41 2 -8 -3 -17 1 -20 9 -3 9 -10 13 -15 9 -5 -3 -12 -1 -16 5 -10 16 -25 12 -25 -7z"/>
 <path d="M450 200 c-19 -12 -13 -16 34 -24 33 -6 38 -5 32 9 -3 9 -6 19 -6 21 0 8 -45 4 -60 -6z"/>
 <path d="M3 150 c-1 -11 3 -23 9 -26 6 -4 8 -2 4 4 -3 6 4 14 16 18 22 7 22 7 3 15 -29 11 -31 11 -32 -11z"/>
 <path d="M476 145 c7 -17 31 -27 38 -16 3 4 -6 13 -19 19 -19 9 -23 8 -19 -3z"/>
 <path d="M568 153 c7 -3 16 -2 19 1 4 3 -2 6 -13 5 -11 0 -14 -3 -6 -6z"/>
 <path d="M120 116 c0 -6 11 -24 25 -39 19 -19 36 -27 60 -27 19 0 35 5 35 10 0 6 -4 9 -8 8 -17 -6 -82 26 -78 38 3 7 -4 14 -15 17 -11 3 -19 0 -19 -7z"/>
 <path d="M380 100 c0 -5 5 -10 11 -10 5 0 7 5 4 10 -3 6 -8 10 -11 10 -2 0 -4 -4 -4 -10z"/>
 <path d="M530 106 c0 -3 12 -17 26 -33 19 -21 27 -24 33 -14 5 8 15 10 22 6 8 -4 1 4 -16 19 -26 22 -65 35 -65 22z"/>
 <path d="M336 91 c-3 -4 -17 -6 -31 -3 -20 3 -24 1 -19 -11 4 -13 11 -14 31 -6 21 8 30 6 50 -12 27 -26 30 -19 7 16 -17 26 -29 31 -38 16z"/>
 <path d="M393 73 c4 -3 10 -3 14 0 3 4 0 7 -7 7 -7 0 -10 -3 -7 -7z"/>
 <path d="M7 55 c-3 -7 1 -16 9 -19 37 -14 47 1 15 21 -15 10 -20 9 -24 -2z"/>
 <path d="M253 55 c4 -9 7 -19 7 -21 0 -2 7 -4 15 -4 22 0 18 18 -7 31 -18 10 -20 9 -15 -6z"/>
 <path d="M454 45 c4 -33 10 -38 54 -41 l37 -3 -37 22 c-21 12 -38 28 -38 35 0 6 -4 12 -9 12 -5 0 -8 -11 -7 -25z"/>
 <path d="M615 40 c3 -5 10 -10 16 -10 5 0 9 5 9 10 0 6 -7 10 -16 10 -8 0 -12 -4 -9 -10z"/>
 <path d="M80 32 c0 -11 22 -32 32 -32 5 0 4 9 -2 20 -11 20 -30 28 -30 12z"/>
 <path d="M306 15 c-4 -12 2 -15 27 -14 18 1 24 3 15 6 -10 2 -18 9 -18 14 0 15 -17 10 -24 -6z"/>
 <path d="M37 9 c7 -7 15 -10 18 -7 3 3 -2 9 -12 12 -14 6 -15 5 -6 -5z"/>
 </g>

</svg>