<!DOCTYPE svg PUBLIC "-//W3C//DTD SVG 20010904//EN" "http://www.w3.org/TR/2001/REC-SVG-20010904/DTD/svg10.dtd">
<svg version="1.0" xmlns="http://www.w3.org/2000/svg" width="64px" height="64px" viewBox="0 0 640 640" preserveAspectRatio="xMidYMid meet">
<g id="layer101" fill="#1a1a1a" stroke="none">
 <path d="M0 320 l0 -320 320 0 320 0 0 320 0 320 -320 0 -320 0 0 -320z"/>
 </g>
<g id="layer102" fill="#303030" stroke="none">
 <path d="M0 616 c0 -14 7 -32 16 -40 14 -15 14 -17 0 -22 -19 -7 -22 -94 -4 -112 17 -17 19 -42 3 -36 -10 4 -14 -15 -14 -91 -1 -53 4 -106 10 -117 8 -15 8 -19 0 -13 -9 5 -11 -19 -9 -87 3 -82 5 -93 22 -96 15 -3 18 0 13 18 -4 16 -2 20 8 16 8 -3 18 1 22 8 11 19 81 26 88 8 7 -20 6 -24 -4 -18 -5 4 -7 -3 -4 -14 5 -19 14 -20 132 -20 107 1 123 3 109 14 -29 21 -21 28 26 25 l44 -4 -16 27 c-12 21 -21 26 -36 22 -14 -5 -18 -3 -13 9 3 9 -1 17 -14 20 -17 5 -18 3 -4 -16 8 -12 15 -27 15 -33 0 -15 -39 -6 -63 14 -15 14 -17 14 -12 1 4 -12 -1 -15 -24 -13 -58 4 -68 31 -25 70 30 29 40 30 53 7 9 -15 10 -15 11 -2 0 8 -5 20 -12 27 -9 9 -9 12 0 12 7 0 15 -7 19 -16 3 -8 25 -24 49 -36 24 -11 55 -33 68 -49 14 -16 37 -34 53 -41 22 -9 24 -12 10 -15 -36 -9 -4 -23 53 -23 47 0 60 3 64 18 9 28 3 322 -7 322 -4 0 -6 -4 -3 -9 7 -10 -19 -23 -28 -14 -6 7 19 33 33 33 6 0 10 38 10 97 0 100 -13 143 -43 143 -7 0 -19 7 -26 15 -7 8 -23 15 -36 15 -12 0 -25 4 -29 10 -3 5 -12 7 -21 3 -11 -4 -12 -9 -3 -19 6 -8 7 -14 3 -14 -5 0 -15 9 -22 20 -7 11 -20 20 -30 20 -15 -1 -15 -2 2 -15 27 -20 14 -29 -29 -21 -26 5 -35 11 -31 22 4 12 -13 14 -104 14 -73 0 -110 -4 -110 -11 0 -6 9 -13 19 -16 35 -9 32 -29 -4 -25 -35 4 -54 -13 -36 -31 9 -9 11 -7 6 8 -5 15 -4 16 3 6 5 -7 16 -18 23 -23 11 -8 10 -9 -3 -5 -9 3 -19 1 -21 -6 -2 -7 -14 5 -26 25 -15 24 -29 36 -42 35 -20 -1 -21 -22 -1 -22 6 0 17 -6 24 -12 9 -10 8 -13 -8 -13 -34 1 -59 28 -56 60 3 25 0 30 -17 30 -16 0 -21 -6 -21 -24z m25 -16 c3 -5 1 -10 -4 -10 -6 0 -11 5 -11 10 0 6 2 10 4 10 3 0 8 -4 11 -10z m245 -39 c0 -4 -7 -8 -15 -8 -16 0 -20 9 -9 20 8 8 24 -1 24 -12z m230 9 c0 -5 -2 -10 -4 -10 -3 0 -8 5 -11 10 -3 6 -1 10 4 10 6 0 11 -4 11 -10z m-78 -27 c10 -12 32 -24 49 -28 16 -4 28 -12 26 -18 -6 -18 -38 -21 -48 -5 -6 8 -9 9 -9 1 0 -6 7 -19 17 -28 13 -14 14 -18 3 -25 -8 -5 -22 -4 -31 1 -12 6 -19 5 -22 -4 -4 -7 -6 -6 -6 4 -1 9 -9 23 -18 30 -16 12 -17 12 -5 -2 11 -14 9 -16 -13 -16 -14 0 -25 5 -25 11 0 6 -4 5 -9 -3 -11 -17 -41 -7 -41 14 0 13 4 14 20 5 11 -6 20 -8 20 -4 0 3 7 1 15 -6 16 -14 21 0 6 16 -6 5 0 10 17 11 14 0 28 6 30 12 2 6 11 11 20 11 11 1 8 6 -10 16 -16 8 -28 19 -28 24 0 16 23 7 42 -17z m-197 -13 c3 -5 4 -10 1 -10 -3 0 -8 5 -11 10 -3 6 -4 10 -1 10 3 0 8 -4 11 -10z m298 4 c9 -9 -4 -35 -14 -28 -5 3 -9 12 -9 20 0 14 12 19 23 8z m-418 -44 c3 -5 4 -10 1 -10 -3 0 -8 5 -11 10 -3 6 -4 10 -1 10 3 0 8 -4 11 -10z m52 -7 c-4 -3 -10 -3 -14 0 -3 4 0 7 7 7 7 0 10 -3 7 -7z m108 -3 c3 -5 1 -10 -4 -10 -6 0 -11 5 -11 10 0 6 2 10 4 10 3 0 8 -4 11 -10z m275 -20 c0 -5 -2 -10 -4 -10 -3 0 -8 5 -11 10 -3 6 -1 10 4 10 6 0 11 -4 11 -10z m-53 -22 c-3 -8 -6 -5 -6 6 -1 11 2 17 5 13 3 -3 4 -12 1 -19z m-27 -29 c0 -10 -39 -18 -45 -9 -2 4 -3 9 0 11 7 7 45 5 45 -2z m80 2 c0 -15 -33 -22 -44 -10 -8 9 -7 10 6 6 10 -3 20 -2 23 3 8 12 15 13 15 1z m-233 -18 c-4 -3 -7 0 -7 7 0 7 3 10 7 7 3 -4 3 -10 0 -14z m90 0 c-4 -3 -7 0 -7 7 0 7 3 10 7 7 3 -4 3 -10 0 -14z m-329 -64 c-15 -10 -31 -3 -45 20 -11 17 -9 17 23 2 21 -9 29 -18 22 -22z m272 31 c8 -5 12 -11 10 -14 -3 -2 -14 2 -24 10 -22 15 -10 19 14 4z m-223 -7 c-4 -3 -10 -3 -14 0 -3 4 0 7 7 7 7 0 10 -3 7 -7z m217 -33 c5 -5 7 -13 3 -17 -4 -4 -13 -1 -19 5 -7 7 -22 12 -34 12 -23 0 -38 13 -28 23 7 7 65 -10 78 -23z m93 13 c-4 -3 -10 -3 -14 0 -3 4 0 7 7 7 7 0 10 -3 7 -7z m-280 -20 c-4 -3 -7 0 -7 7 0 7 3 10 7 7 3 -4 3 -10 0 -14z m58 -3 c10 -11 14 -20 8 -20 -5 0 -18 9 -28 20 -10 11 -14 20 -8 20 5 0 18 -9 28 -20z m331 -5 c22 -17 15 -19 -20 -5 -19 7 -26 6 -26 -3 0 -8 -4 -7 -10 3 -7 11 -10 11 -10 2 0 -7 -5 -10 -11 -6 -8 4 -7 9 2 15 21 13 53 11 75 -6z m41 9 c-3 -3 -12 -4 -19 -1 -8 3 -5 6 6 6 11 1 17 -2 13 -5z m-552 -14 c3 -5 1 -10 -4 -10 -6 0 -11 5 -11 10 0 6 2 10 4 10 3 0 8 -4 11 -10z m339 -5 c3 -8 1 -15 -4 -15 -6 0 -10 7 -10 15 0 8 2 15 4 15 2 0 6 -7 10 -15z m73 -12 c-4 -3 -10 -3 -14 0 -3 4 0 7 7 7 7 0 10 -3 7 -7z m47 -29 c24 -23 19 -27 -9 -8 -14 9 -25 18 -25 20 0 10 20 3 34 -12z m-457 -11 c-4 -3 -7 0 -7 7 0 7 3 10 7 7 3 -4 3 -10 0 -14z m168 -3 c3 -5 2 -10 -4 -10 -5 0 -13 5 -16 10 -3 6 -2 10 4 10 5 0 13 -4 16 -10z m-70 -11 c12 -19 -5 -23 -22 -6 -16 16 -16 17 -1 17 9 0 20 -5 23 -11z m-21 -25 c3 -8 0 -11 -10 -7 -8 3 -21 0 -28 -6 -11 -9 -16 -9 -22 0 -5 8 -3 9 6 4 10 -6 12 -3 8 12 -4 16 -1 19 18 15 12 -2 25 -10 28 -18z m183 0 c-2 -2 -12 -1 -22 3 -18 6 -18 7 1 13 17 7 33 -5 21 -16z m318 16 c4 -6 10 -8 14 -6 3 3 7 -4 7 -14 0 -10 -5 -18 -11 -17 -5 1 -9 -3 -8 -9 3 -14 -29 -13 -40 1 -6 7 -10 6 -13 -1 -6 -15 -51 -5 -66 15 -10 13 -10 14 2 4 16 -15 44 -18 36 -4 -8 12 49 19 68 9 22 -12 20 2 -1 18 -10 7 -13 14 -6 14 6 0 15 -5 18 -10z m-468 -37 c-4 -3 -10 -3 -14 0 -3 4 0 7 7 7 7 0 10 -3 7 -7z m53 -18 c0 -7 6 -16 13 -18 9 -4 9 -6 0 -6 -13 -1 -26 16 -29 37 -1 6 2 10 7 6 5 -3 9 -11 9 -19z m267 -2 c6 -12 8 -23 3 -23 -4 0 -15 11 -23 23 -11 17 -12 24 -3 24 7 0 17 -11 23 -24z m-357 -5 c0 -6 -6 -5 -15 2 -8 7 -15 14 -15 16 0 2 7 1 15 -2 8 -4 15 -11 15 -16z m65 -18 c3 -5 4 -10 1 -10 -3 0 -8 5 -11 10 -3 6 -4 10 -1 10 3 0 8 -4 11 -10z m80 -9 c-3 -6 -11 -8 -17 -5 -6 4 -5 9 3 15 16 10 23 4 14 -10z m-41 -10 c3 -5 -3 -11 -13 -14 -14 -3 -18 -1 -14 9 6 16 19 18 27 5z m400 -26 c25 -22 24 -54 0 -34 -8 6 -14 18 -14 25 0 8 -9 14 -21 14 -11 0 -17 4 -14 10 8 13 24 9 49 -15z m-368 -12 c20 -26 17 -42 -6 -36 -14 4 -20 0 -20 -11 0 -14 -2 -14 -20 1 -28 24 -25 30 11 25 23 -3 30 -1 24 7 -4 7 -13 10 -21 7 -14 -6 -19 6 -7 17 11 12 25 8 39 -10z m-211 -13 c3 -5 4 -10 1 -10 -3 0 -8 5 -11 10 -3 6 -4 10 -1 10 3 0 8 -4 11 -10z m562 -27 c15 -32 12 -37 -17 -28 -12 4 -19 13 -17 20 3 7 0 18 -6 24 -8 8 -6 11 9 11 11 0 24 -11 31 -27z"/>
 <path d="M400 490 c0 -5 9 -14 21 -20 19 -11 20 -10 9 9 -11 22 -30 29 -30 11z"/>
 <path d="M70 628 c14 -5 33 -14 42 -19 29 -15 39 -11 26 11 -10 15 -23 20 -53 19 -37 0 -38 -1 -15 -11z"/>
 <path d="M395 630 c3 -5 8 -10 11 -10 2 0 4 5 4 10 0 6 -5 10 -11 10 -5 0 -7 -4 -4 -10z"/>
 <path d="M560 631 c0 -16 21 -24 32 -13 8 8 17 8 30 1 14 -7 18 -6 18 6 0 11 -11 15 -40 15 -22 0 -40 -4 -40 -9z"/>
 <path d="M285 130 c3 -5 10 -10 16 -10 5 0 9 5 9 10 0 6 -7 10 -16 10 -8 0 -12 -4 -9 -10z"/>
 <path d="M254 98 c-4 -7 -4 -10 1 -6 4 4 14 3 22 -4 7 -6 17 -8 20 -4 4 4 1 11 -7 16 -20 13 -27 12 -36 -2z"/>
 <path d="M85 20 c3 -5 8 -10 11 -10 2 0 4 5 4 10 0 6 -5 10 -11 10 -5 0 -7 -4 -4 -10z"/>
 <path d="M55 10 c-3 -5 1 -10 10 -10 9 0 13 5 10 10 -3 6 -8 10 -10 10 -2 0 -7 -4 -10 -10z"/>
 <path d="M435 10 c3 -5 8 -10 11 -10 3 0 2 5 -1 10 -3 6 -8 10 -11 10 -3 0 -2 -4 1 -10z"/>
 </g>
<g id="layer103" fill="#494949" stroke="none">
 <path d="M170 631 c0 -5 12 -14 28 -20 15 -6 37 -15 49 -20 17 -8 21 -7 17 4 -3 8 -14 17 -25 20 -11 4 -17 9 -15 13 2 4 -9 8 -25 9 -16 1 -29 -2 -29 -6z"/>
 <path d="M275 614 c15 -14 29 -23 31 -21 8 7 -8 37 -16 32 -5 -3 -11 -1 -15 5 -3 5 -11 10 -17 10 -6 0 1 -11 17 -26z"/>
 <path d="M330 631 c0 -6 4 -13 10 -16 6 -3 7 1 4 9 -7 18 -14 21 -14 7z"/>
 <path d="M625 630 c-3 -5 -1 -10 4 -10 6 0 11 5 11 10 0 6 -2 10 -4 10 -3 0 -8 -4 -11 -10z"/>
 <path d="M525 586 l49 -44 -24 -20 c-20 -17 -23 -23 -12 -33 14 -15 17 -63 2 -54 -5 3 -10 1 -10 -5 0 -6 8 -9 18 -6 9 3 28 -4 42 -14 20 -17 21 -19 5 -14 -19 6 -19 5 2 -17 17 -17 26 -20 34 -12 15 15 2 66 -15 60 -7 -3 -18 -2 -25 3 -8 4 -2 9 18 13 25 5 31 12 31 31 0 18 -4 24 -15 20 -8 -4 -15 -1 -15 5 0 6 7 11 15 11 8 0 15 7 15 16 0 8 -5 12 -10 9 -17 -11 -49 5 -43 21 3 9 -1 14 -12 14 -9 0 -19 9 -22 20 -5 18 -21 25 -45 21 -5 0 -8 4 -8 9 0 6 -6 10 -12 10 -7 0 9 -20 37 -44z m55 -97 c0 7 5 9 12 5 9 -6 9 -9 0 -12 -7 -2 -10 -8 -6 -13 8 -13 -10 -11 -24 3 -17 17 -15 33 3 18 11 -9 15 -9 15 -1z"/>
 <path d="M330 590 c-12 -8 -12 -10 2 -15 20 -8 41 2 33 16 -8 11 -16 11 -35 -1z"/>
 <path d="M390 590 c0 -3 14 -13 31 -23 27 -15 30 -15 25 -2 -5 13 -1 15 15 10 15 -5 20 -3 17 5 -4 12 -88 22 -88 10z"/>
 <path d="M210 566 c0 -5 12 -22 26 -39 18 -22 34 -31 49 -29 13 2 26 -2 30 -8 3 -5 11 -8 16 -4 5 3 6 10 3 16 -5 7 -1 9 9 5 10 -3 17 -2 17 3 0 6 7 10 16 10 9 0 14 6 11 13 -4 11 -18 12 -84 4 -12 -1 -25 -5 -29 -10 -4 -4 -20 5 -36 20 -15 15 -28 23 -28 19z"/>
 <path d="M25 540 c3 -5 8 -10 11 -10 3 0 2 5 -1 10 -3 6 -8 10 -11 10 -3 0 -2 -4 1 -10z"/>
 <path d="M91 516 c22 -23 30 -26 45 -18 18 10 18 11 -1 18 -11 4 -23 12 -27 18 -5 7 -8 6 -8 -3 0 -11 -3 -11 -17 0 -10 7 -6 0 8 -15z"/>
 <path d="M485 530 c3 -5 8 -10 11 -10 2 0 4 5 4 10 0 6 -5 10 -11 10 -5 0 -7 -4 -4 -10z"/>
 <path d="M2 491 c0 -22 4 -38 9 -35 5 3 9 0 9 -5 0 -6 7 -11 16 -11 10 0 14 -6 10 -15 -3 -9 0 -15 9 -15 8 0 15 -7 15 -16 0 -11 6 -14 21 -9 16 5 20 4 15 -6 -4 -8 0 -5 9 6 17 20 17 20 10 -4 -5 -17 -4 -21 5 -16 6 4 19 0 29 -9 9 -8 27 -14 39 -11 23 4 31 -10 10 -18 -7 -2 -1 -4 15 -4 20 0 25 3 17 12 -5 6 -7 15 -3 18 3 4 0 13 -6 21 -7 8 -10 24 -6 35 4 14 0 23 -17 31 -21 10 -21 10 -5 -3 18 -15 24 -33 7 -22 -6 4 -7 -1 -3 -12 6 -16 5 -16 -9 -5 -9 7 -28 14 -41 16 -14 1 -33 11 -43 21 -12 11 -19 14 -22 6 -6 -17 -19 -13 -42 11 -24 26 -25 35 -5 35 8 0 12 -3 10 -7 -2 -3 5 -6 16 -6 25 0 24 8 -2 32 -17 14 -23 16 -26 6 -4 -10 -9 -10 -23 3 -18 16 -19 15 -18 -24z m113 -71 c3 -5 -3 -10 -15 -10 -12 0 -18 5 -15 10 3 6 10 10 15 10 5 0 12 -4 15 -10z m74 -46 c1 -1 1 -8 -1 -14 -2 -7 -13 -3 -28 11 l-25 21 25 -7 c14 -4 27 -9 29 -11z"/>
 <path d="M160 519 c0 -21 16 -34 66 -55 l39 -16 -22 21 c-12 12 -27 21 -33 21 -6 0 -9 4 -5 9 3 5 1 12 -5 16 -5 3 -10 1 -10 -6 0 -7 -7 -4 -15 7 -12 16 -14 16 -15 3z"/>
 <path d="M135 460 c3 -5 8 -10 11 -10 3 0 2 5 -1 10 -3 6 -8 10 -11 10 -3 0 -2 -4 1 -10z"/>
 <path d="M300 430 c6 -11 13 -20 16 -20 2 0 0 9 -6 20 -6 11 -13 20 -16 20 -2 0 0 -9 6 -20z"/>
 <path d="M357 443 c-4 -3 5 -12 19 -20 36 -18 40 -16 19 7 -19 21 -28 24 -38 13z"/>
 <path d="M420 430 c0 -7 3 -10 7 -7 3 4 3 10 0 14 -4 3 -7 0 -7 -7z"/>
 <path d="M473 423 c4 -3 10 -3 14 0 3 4 0 7 -7 7 -7 0 -10 -3 -7 -7z"/>
 <path d="M236 404 c-3 -8 0 -17 6 -20 7 -4 14 -2 16 5 3 8 8 6 17 -6 7 -10 17 -14 21 -10 5 4 3 12 -5 16 -7 5 -13 12 -14 17 -3 13 -36 12 -41 -2z"/>
 <path d="M337 404 c4 -12 3 -15 -5 -10 -7 4 -12 3 -12 -2 0 -9 24 -24 42 -26 3 -1 10 -5 15 -10 4 -5 3 -6 -3 -3 -7 4 -17 0 -24 -8 -10 -12 -9 -16 4 -21 9 -3 23 -4 31 -1 8 4 17 2 20 -3 4 -6 11 -10 18 -10 8 0 8 3 -1 12 -15 15 -16 32 -2 23 11 -7 13 6 4 30 -5 12 -9 13 -14 4 -11 -17 -41 -3 -34 16 3 8 2 15 -4 15 -6 0 -18 3 -26 6 -12 5 -15 2 -9 -12z"/>
 <path d="M0 398 c0 -18 18 -34 28 -24 3 4 -2 14 -11 23 -16 16 -17 16 -17 1z"/>
 <path d="M450 393 c-13 -15 -12 -16 3 -10 9 3 17 2 17 -3 0 -6 11 -10 25 -10 14 0 38 -11 52 -25 15 -13 29 -22 32 -19 3 3 -1 9 -9 14 -10 7 -11 10 -2 10 14 0 15 10 2 30 -9 13 -11 13 -21 0 -8 -11 -12 -12 -16 -2 -2 6 -13 12 -24 12 -10 0 -19 5 -19 10 0 15 -23 11 -40 -7z"/>
 <path d="M265 360 c3 -5 8 -10 11 -10 3 0 2 5 -1 10 -3 6 -8 10 -11 10 -3 0 -2 -4 1 -10z"/>
 <path d="M93 345 c0 -8 7 -15 16 -15 10 0 12 -3 5 -8 -7 -4 -8 -15 -3 -27 4 -11 8 -14 8 -6 1 8 3 12 6 9 3 -3 3 -13 -1 -22 -5 -14 -10 -12 -25 13 -21 34 -36 43 -19 11 9 -16 8 -20 -5 -20 -8 0 -15 -5 -15 -10 0 -11 7 -15 51 -24 15 -3 29 -13 33 -21 3 -9 2 -13 -4 -10 -15 9 -12 -7 5 -29 13 -17 15 -17 15 -3 0 12 7 15 31 12 17 -2 37 -9 45 -15 7 -7 22 -9 31 -5 16 6 16 8 -6 24 -17 13 -22 23 -17 39 6 17 1 26 -25 41 -18 11 -37 17 -42 14 -5 -3 -2 -10 8 -16 14 -8 15 -11 4 -18 -10 -6 -8 -9 8 -9 27 0 39 -18 23 -33 -9 -9 -20 -3 -46 28 -19 21 -32 45 -30 52 3 7 1 15 -4 18 -6 4 -10 11 -10 16 0 6 5 7 12 3 7 -4 8 -3 4 5 -4 6 -12 9 -17 5 -5 -3 -16 -1 -23 5 -9 8 -13 7 -13 -4z"/>
 <path d="M456 346 c3 -9 11 -16 16 -16 13 0 5 23 -10 28 -7 2 -10 -2 -6 -12z"/>
 <path d="M510 340 c0 -5 5 -10 11 -10 5 0 7 5 4 10 -3 6 -8 10 -11 10 -2 0 -4 -4 -4 -10z"/>
 <path d="M16 321 c-3 -5 1 -11 9 -15 8 -3 15 -1 15 4 0 13 -18 22 -24 11z"/>
 <path d="M262 302 c-14 -2 -20 -8 -15 -15 4 -7 8 -15 9 -19 1 -5 2 -11 3 -15 1 -5 8 3 15 16 8 15 16 20 20 12 4 -6 2 -11 -4 -11 -6 0 -8 -4 -5 -10 3 -5 17 -10 30 -10 16 0 26 -7 31 -22 6 -21 27 -48 38 -48 2 0 0 14 -5 32 -6 23 -5 34 3 39 8 5 2 12 -18 21 -16 7 -35 20 -42 28 -11 13 -12 11 -6 -10 l7 -25 -19 21 c-12 12 -28 19 -42 16z m102 -57 c-4 -8 -8 -15 -10 -15 -2 0 -4 7 -4 15 0 8 4 15 10 15 5 0 7 -7 4 -15z"/>
 <path d="M406 287 c3 -10 9 -15 12 -12 3 3 0 11 -7 18 -10 9 -11 8 -5 -6z"/>
 <path d="M506 285 c4 -8 12 -15 20 -15 19 0 18 16 -2 24 -22 9 -24 8 -18 -9z"/>
 <path d="M553 293 c4 -3 10 -3 14 0 3 4 0 7 -7 7 -7 0 -10 -3 -7 -7z"/>
 <path d="M450 280 c0 -5 10 -10 23 -10 18 0 19 2 7 10 -19 13 -30 13 -30 0z"/>
 <path d="M11 277 c2 -1 14 -10 26 -21 21 -17 21 -17 16 3 -3 13 -13 21 -26 21 -11 0 -18 -1 -16 -3z"/>
 <path d="M410 234 c0 -7 10 -19 22 -25 17 -9 24 -8 34 5 9 13 13 14 17 4 4 -9 6 -9 6 -1 1 16 -15 25 -50 28 -19 2 -29 -2 -29 -11z"/>
 <path d="M0 231 c0 -5 7 -12 16 -15 8 -3 13 -10 9 -15 -3 -5 -1 -12 5 -16 17 -10 11 -33 -10 -40 -30 -9 -26 -45 4 -45 14 0 28 5 31 10 3 6 17 10 30 10 13 0 27 6 31 13 4 6 4 9 -1 5 -10 -9 -87 51 -80 62 8 13 -6 40 -21 40 -8 0 -14 -4 -14 -9z"/>
 <path d="M88 178 c5 -5 16 -8 23 -6 8 3 3 7 -10 11 -17 4 -21 3 -13 -5z"/>
 <path d="M620 170 c0 -5 5 -10 11 -10 5 0 7 5 4 10 -3 6 -8 10 -11 10 -2 0 -4 -4 -4 -10z"/>
 <path d="M415 150 c3 -5 8 -10 11 -10 3 0 2 5 -1 10 -3 6 -8 10 -11 10 -3 0 -2 -4 1 -10z"/>
 <path d="M517 153 c-18 -17 -6 -33 21 -27 15 3 40 7 55 9 39 4 43 11 12 19 -17 4 -33 2 -43 -6 -12 -10 -16 -10 -19 0 -5 13 -16 16 -26 5z"/>
 <path d="M440 140 c0 -5 5 -10 11 -10 5 0 7 5 4 10 -3 6 -8 10 -11 10 -2 0 -4 -4 -4 -10z"/>
 <path d="M143 123 c4 -3 10 -3 14 0 3 4 0 7 -7 7 -7 0 -10 -3 -7 -7z"/>
 <path d="M630 120 c0 -7 3 -10 7 -7 3 4 3 10 0 14 -4 3 -7 0 -7 -7z"/>
 <path d="M90 101 c0 -5 5 -13 10 -16 6 -3 10 -2 10 4 0 5 -4 13 -10 16 -5 3 -10 2 -10 -4z"/>
 <path d="M35 70 c3 -6 -2 -10 -12 -10 -12 0 -19 -8 -20 -20 -2 -25 0 -25 32 4 21 20 23 25 10 30 -9 3 -13 2 -10 -4z"/>
 <path d="M308 62 c-10 -2 -18 -7 -18 -12 0 -5 -7 -7 -17 -3 -13 5 -15 2 -11 -15 4 -12 2 -22 -3 -22 -5 0 -9 4 -9 9 0 5 -7 12 -16 15 -12 4 -15 2 -10 -9 6 -17 -9 -21 -19 -5 -3 5 -11 10 -17 10 -7 0 -6 -5 2 -15 14 -17 86 -15 83 3 -3 12 0 13 37 16 11 0 20 4 21 9 1 16 -7 23 -23 19z"/>
 <path d="M330 10 c0 -5 5 -10 11 -10 5 0 7 5 4 10 -3 6 -8 10 -11 10 -2 0 -4 -4 -4 -10z"/>
 </g>
<g id="layer104" fill="#676767" stroke="none">
 <path d="M5 390 c3 -5 8 -10 11 -10 3 0 2 5 -1 10 -3 6 -8 10 -11 10 -3 0 -2 -4 1 -10z"/>
 <path d="M605 380 c3 -5 8 -10 11 -10 3 0 2 5 -1 10 -3 6 -8 10 -11 10 -3 0 -2 -4 1 -10z"/>
 <path d="M385 360 c3 -5 8 -10 11 -10 3 0 2 5 -1 10 -3 6 -8 10 -11 10 -3 0 -2 -4 1 -10z"/>
 <path d="M135 260 c-3 -5 -1 -10 4 -10 6 0 11 5 11 10 0 6 -2 10 -4 10 -3 0 -8 -4 -11 -10z"/>
 <path d="M155 220 c3 -5 8 -10 11 -10 3 0 2 5 -1 10 -3 6 -8 10 -11 10 -3 0 -2 -4 1 -10z"/>
 <path d="M235 190 c3 -5 8 -10 11 -10 2 0 4 5 4 10 0 6 -5 10 -11 10 -5 0 -7 -4 -4 -10z"/>
 <path d="M50 150 c-9 -6 -10 -10 -3 -10 6 0 15 5 18 10 8 12 4 12 -15 0z"/>
 </g>

</svg>