<!DOCTYPE svg PUBLIC "-//W3C//DTD SVG 20010904//EN" "http://www.w3.org/TR/2001/REC-SVG-20010904/DTD/svg10.dtd">
<svg version="1.0" xmlns="http://www.w3.org/2000/svg" width="64px" height="64px" viewBox="0 0 640 640" preserveAspectRatio="xMidYMid meet">
<g id="layer101" fill="#1f1f1f" stroke="none">
 <path d="M0 320 l0 -320 320 0 320 0 0 320 0 320 -320 0 -320 0 0 -320z"/>
 </g>
<g id="layer102" fill="#252525" stroke="none">
 <path d="M0 629 c0 -5 5 -7 10 -4 5 3 10 8 10 11 0 2 -4 4 -10 4 -5 0 -10 -5 -10 -11z"/>
 <path d="M140 600 c12 -23 28 -44 37 -47 21 -8 43 22 43 59 0 27 -2 28 -50 28 l-50 0 20 -40z"/>
 <path d="M284 628 c-51 -24 -70 -117 -21 -102 26 8 39 27 49 69 8 36 0 46 -28 33z"/>
 <path d="M407 625 c-12 -11 -14 -22 -8 -38 7 -18 15 -21 41 -19 58 6 82 20 78 45 -3 19 -10 22 -49 25 -32 2 -51 -2 -62 -13z"/>
 <path d="M583 630 c49 -9 56 -18 21 -25 -60 -14 -61 -15 -26 -46 49 -44 62 -39 62 26 l0 55 -47 -1 -48 -1 38 -8z"/>
 <path d="M50 615 c-28 -34 13 -90 58 -78 25 6 28 24 11 56 -21 39 -48 48 -69 22z"/>
 <path d="M353 622 c-16 -10 -21 -64 -7 -69 14 -5 38 57 27 68 -5 5 -13 5 -20 1z"/>
 <path d="M0 560 c0 -18 4 -29 10 -25 6 3 10 15 10 25 0 10 -4 22 -10 25 -6 4 -10 -7 -10 -25z"/>
 <path d="M440 541 c-32 -9 -36 -31 -12 -61 24 -30 48 -21 67 22 20 48 8 56 -55 39z"/>
 <path d="M530 530 c-18 -33 -8 -63 23 -74 21 -8 31 -6 43 6 21 21 11 49 -25 71 -29 17 -30 17 -41 -3z"/>
 <path d="M133 523 c-29 -6 -40 -21 -48 -70 -8 -51 2 -59 66 -46 41 8 44 11 52 53 8 37 6 46 -9 57 -18 13 -22 14 -61 6z"/>
 <path d="M327 519 c-18 -10 -18 -12 4 -35 26 -28 54 -31 63 -8 8 21 8 20 -10 38 -18 19 -32 20 -57 5z"/>
 <path d="M17 509 c-21 -12 -22 -52 -2 -69 21 -17 41 -6 48 26 9 49 -7 65 -46 43z"/>
 <path d="M232 497 c-10 -12 -3 -71 11 -94 3 -5 2 -15 -3 -23 -9 -15 9 -58 33 -79 12 -9 21 -9 41 0 44 20 30 63 -24 71 -33 4 -28 21 9 31 48 12 39 52 -19 91 -30 19 -34 20 -48 3z"/>
 <path d="M631 474 c0 -11 3 -14 6 -6 3 7 2 16 -1 19 -3 4 -6 -2 -5 -13z"/>
 <path d="M480 435 c-16 -19 -5 -49 31 -80 38 -31 47 -31 61 -1 6 16 21 26 37 28 18 2 27 10 29 26 4 24 -16 30 -35 11 -9 -9 -23 -6 -55 10 -53 25 -52 25 -68 6z"/>
 <path d="M362 428 c-16 -16 -15 -53 2 -67 26 -22 76 20 76 63 0 19 -60 22 -78 4z"/>
 <path d="M0 410 c0 -7 3 -10 7 -7 3 4 3 10 0 14 -4 3 -7 0 -7 -7z"/>
 <path d="M17 379 c-24 -14 -22 -55 3 -62 14 -4 25 2 36 19 27 41 3 68 -39 43z"/>
 <path d="M165 383 c-55 -10 -65 -15 -75 -33 -20 -37 22 -80 59 -61 9 5 26 26 36 45 21 39 14 55 -20 49z"/>
 <path d="M432 358 c-30 -30 -8 -68 48 -78 56 -10 64 10 19 56 -35 37 -48 41 -67 22z"/>
 <path d="M623 352 c-8 -5 -9 -13 -3 -22 11 -17 23 -8 18 14 -2 9 -8 12 -15 8z"/>
 <path d="M195 306 c-18 -27 -18 -28 2 -48 12 -11 25 -18 31 -14 19 11 20 46 3 68 l-18 22 -18 -28z"/>
 <path d="M362 308 c-17 -17 -15 -54 4 -83 14 -22 14 -24 -5 -35 -37 -19 -20 -70 24 -70 23 1 55 22 55 38 0 6 -11 19 -25 30 -28 23 -32 37 -10 46 19 7 19 36 -1 64 -17 25 -25 27 -42 10z"/>
 <path d="M559 289 c-8 -16 -8 -28 0 -45 11 -24 64 -58 75 -47 3 4 6 28 6 54 0 40 -3 48 -22 53 -37 10 -47 7 -59 -15z"/>
 <path d="M1 253 c0 -36 3 -43 9 -28 12 28 12 63 0 70 -6 4 -10 -12 -9 -42z"/>
 <path d="M52 278 c-14 -18 -26 -88 -15 -88 5 0 24 13 43 29 35 29 35 29 16 50 -22 24 -30 26 -44 9z"/>
 <path d="M265 256 c-8 -13 -13 -30 -10 -39 6 -15 53 -29 67 -20 15 8 8 56 -9 69 -25 19 -30 17 -48 -10z"/>
 <path d="M483 252 c-45 -5 -60 -25 -39 -57 9 -14 22 -25 29 -25 18 0 57 43 57 63 0 20 -7 23 -47 19z"/>
 <path d="M140 228 c1 -32 25 -60 47 -56 27 5 28 43 1 62 -31 22 -48 20 -48 -6z"/>
 <path d="M64 177 c-32 -28 -25 -47 16 -47 33 0 64 26 56 47 -3 8 -6 17 -6 19 0 13 -43 1 -66 -19z"/>
 <path d="M522 177 c-26 -28 -27 -38 -7 -77 19 -37 32 -37 78 -2 45 34 46 55 3 81 -42 26 -48 26 -74 -2z"/>
 <path d="M222 168 c-17 -17 -15 -38 5 -60 14 -15 14 -22 3 -42 -22 -42 12 -83 46 -55 11 9 14 23 10 49 -4 28 -1 40 14 53 27 23 25 46 -6 57 -34 13 -57 13 -72 -2z"/>
 <path d="M120 112 c-19 -16 -21 -22 -11 -40 6 -12 20 -22 31 -22 31 0 33 -19 3 -32 l-28 -12 44 -4 c51 -4 62 3 36 22 -17 12 -18 17 -6 39 10 19 10 29 2 46 -14 26 -41 27 -71 3z"/>
 <path d="M4 106 c-9 -23 34 -96 56 -96 39 0 32 77 -9 99 -27 15 -41 14 -47 -3z"/>
 <path d="M421 111 c-7 -5 -13 -21 -13 -36 0 -30 13 -42 57 -52 l30 -7 -25 -7 -25 -7 27 -1 c21 -1 28 4 33 28 13 61 -38 111 -84 82z"/>
 <path d="M333 103 c-7 -2 -13 -20 -13 -39 0 -28 5 -36 26 -44 30 -12 44 -6 44 20 0 24 -41 70 -57 63z"/>
 <path d="M568 49 c-44 -33 -36 -49 22 -49 46 0 50 2 50 23 0 24 -17 47 -34 47 -6 0 -23 -10 -38 -21z"/>
 <path d="M0 15 c0 -8 4 -15 10 -15 5 0 7 7 4 15 -8 19 -14 19 -14 0z"/>
 </g>

</svg>