<!DOCTYPE svg PUBLIC "-//W3C//DTD SVG 20010904//EN" "http://www.w3.org/TR/2001/REC-SVG-20010904/DTD/svg10.dtd">
<svg version="1.0" xmlns="http://www.w3.org/2000/svg" width="64px" height="64px" viewBox="0 0 640 640" preserveAspectRatio="xMidYMid meet">
<g id="layer101" fill="#211f0a" stroke="none">
 <path d="M0 320 l0 -320 320 0 320 0 0 320 0 320 -320 0 -320 0 0 -320z"/>
 </g>
<g id="layer102" fill="#343111" stroke="none">
 <path d="M0 320 l0 -320 320 0 320 0 0 320 0 320 -139 0 c-131 0 -140 -1 -146 -20 -3 -11 -13 -20 -21 -20 -8 0 -14 9 -14 20 0 19 -7 20 -160 20 l-160 0 0 -320z m600 145 c0 -30 -15 -33 -23 -5 -4 16 1 23 21 29 1 1 2 -10 2 -24z m-35 -104 c-6 -5 -75 68 -75 79 0 5 18 -10 39 -33 22 -23 38 -44 36 -46z m-311 -39 c-5 -5 -21 -13 -36 -19 -23 -10 -27 -9 -31 9 -5 16 -2 19 16 14 12 -3 29 -1 37 4 17 10 28 4 14 -8z m176 -205 c0 -4 0 -12 0 -18 0 -5 -5 -7 -12 -3 -7 5 -25 7 -40 6 -20 -2 -26 2 -22 12 5 14 74 16 74 3z"/>
 </g>
<g id="layer103" fill="#433f16" stroke="none">
 <path d="M0 321 l0 -320 320 0 319 0 1 320 0 320 -132 -2 -133 -1 -23 -35 c-12 -19 -22 -41 -22 -49 0 -8 -5 -12 -10 -9 -6 4 -8 10 -5 15 3 5 1 11 -3 14 -5 3 -7 16 -5 29 6 33 -13 37 -174 37 l-133 0 0 -319z m610 149 c0 -31 -17 -51 -36 -43 -8 3 -14 0 -14 -6 0 -6 5 -11 10 -11 6 0 10 -11 10 -25 0 -29 -24 -33 -54 -10 -11 8 -27 13 -36 10 -13 -4 -15 1 -12 31 4 35 5 36 39 31 33 -6 35 -5 29 18 -6 25 5 34 42 32 17 -1 22 -7 22 -27z m-313 -121 c2 -14 -3 -23 -17 -26 -11 -3 -20 -11 -20 -18 0 -8 -17 -14 -45 -17 -46 -3 -49 0 -39 40 4 15 10 19 18 13 19 -15 78 -1 84 21 5 22 15 16 19 -13z m333 -99 c0 -5 -4 -10 -10 -10 -5 0 -10 5 -10 10 0 6 5 10 10 10 6 0 10 -4 10 -10z m-182 -124 c9 -9 -20 -36 -38 -36 -10 0 -23 -6 -30 -14 -15 -19 -40 -10 -40 14 0 41 10 49 57 45 25 -2 48 -6 51 -9z m-120 -62 c0 -24 -2 -25 -17 -10 -14 15 -14 18 -1 26 8 5 16 10 16 10 1 0 2 -12 2 -26z m-48 -44 c0 -5 -4 -10 -10 -10 -5 0 -10 5 -10 10 0 6 5 10 10 10 6 0 10 -4 10 -10z"/>
 <path d="M515 430 c3 -5 8 -10 11 -10 2 0 4 5 4 10 0 6 -5 10 -11 10 -5 0 -7 -4 -4 -10z"/>
 <path d="M540 410 c0 -7 3 -10 7 -7 3 4 3 10 0 14 -4 3 -7 0 -7 -7z"/>
 </g>
<g id="layer104" fill="#554f1c" stroke="none">
 <path d="M0 320 l0 -320 130 0 c111 0 129 2 124 15 -10 24 36 36 61 16 12 -10 10 -5 -5 12 -25 28 -25 29 -5 43 11 8 19 22 17 30 -2 8 4 14 12 14 8 0 24 9 34 21 15 16 21 17 25 6 3 -8 20 -14 38 -15 44 -1 56 -23 21 -41 -15 -8 -31 -16 -37 -16 -5 -1 -15 -3 -21 -3 -12 -2 -35 -70 -26 -76 4 -2 67 -5 140 -5 l132 -2 0 25 c0 18 -4 24 -15 20 -8 -4 -15 -1 -15 5 0 7 7 14 15 17 13 5 15 47 15 290 l0 284 -102 0 c-57 0 -110 -4 -118 -10 -9 -5 -19 -5 -27 2 -9 7 -13 7 -13 -1 0 -6 -9 -20 -20 -31 -11 -11 -20 -29 -20 -39 0 -27 -19 -36 -27 -14 -3 10 -18 35 -32 55 l-26 38 -127 0 -128 0 0 -320z m614 152 c-1 -15 -7 -40 -13 -56 -6 -15 -10 -35 -9 -44 4 -19 -52 -29 -63 -10 -7 10 -9 10 -9 1 0 -9 -10 -8 -35 4 -29 14 -33 19 -20 26 12 6 13 12 5 22 -13 16 12 45 41 45 17 0 21 5 18 27 -1 11 31 20 60 15 21 -3 26 -9 25 -30z m-314 -120 c0 -35 -10 -49 -43 -61 -16 -6 -26 -15 -23 -20 11 -17 -58 -3 -71 15 -12 16 -13 16 -13 1 0 -26 -17 -20 -22 8 -3 13 -1 22 3 19 5 -3 9 1 9 8 0 9 3 9 10 -2 7 -12 12 -8 21 17 7 21 15 30 22 26 7 -4 26 -8 44 -9 23 0 33 4 37 19 7 27 26 11 26 -21z m328 -102 c-2 -12 -8 -17 -15 -12 -6 4 -9 19 -6 36 5 24 7 26 15 12 5 -9 8 -25 6 -36z m-84 -89 c6 -9 -17 -22 -46 -26 -17 -2 -17 -1 0 16 19 20 38 24 46 10z"/>
 <path d="M340 60 c0 -7 3 -10 7 -7 3 4 3 10 0 14 -4 3 -7 0 -7 -7z"/>
 </g>
<g id="layer105" fill="#635c21" stroke="none">
 <path d="M0 455 c0 -114 4 -185 10 -185 6 0 6 -9 -1 -26 -5 -15 -9 -76 -7 -135 l2 -109 124 0 c108 0 123 2 118 16 -4 9 8 29 33 54 21 22 36 41 33 44 -3 3 3 8 12 12 9 3 16 12 16 19 0 17 42 27 52 12 5 -8 11 -8 16 -2 10 13 75 18 67 5 -7 -11 8 -14 19 -3 4 4 -3 15 -16 25 -18 13 -19 16 -5 14 9 -1 22 -7 28 -13 6 -6 17 -9 24 -7 21 8 27 -27 8 -41 -10 -7 -21 -11 -24 -9 -4 2 -12 -3 -19 -11 -7 -8 -18 -15 -26 -15 -7 0 -20 -10 -28 -22 -9 -12 -16 -17 -16 -10 0 13 -26 17 -33 5 -2 -5 -7 -20 -11 -34 -7 -31 -21 -27 152 -35 77 -4 112 -2 112 6 0 6 -14 13 -30 16 -17 4 -30 11 -30 16 0 5 4 7 9 4 5 -3 12 1 15 10 3 8 2 12 -4 9 -6 -3 -7 1 -4 10 4 10 13 13 25 10 17 -6 19 0 19 70 0 42 -4 74 -9 71 -5 -3 -14 1 -21 9 -8 9 -21 13 -36 9 -15 -4 -24 -2 -24 5 0 6 3 10 8 10 20 -3 42 2 42 11 0 5 -6 7 -14 4 -21 -8 -26 21 -5 34 11 7 19 8 19 2 0 -5 6 -7 14 -4 8 3 16 -2 19 -13 2 -10 5 64 6 165 l2 182 -106 0 c-63 0 -105 -4 -105 -10 0 -5 -9 -10 -20 -10 -11 0 -20 -4 -20 -9 0 -5 -9 -11 -20 -14 -13 -3 -20 -14 -20 -30 0 -31 -9 -57 -21 -57 -4 0 -17 19 -28 43 -40 85 -44 87 -180 87 l-121 0 0 -185z m612 -24 c-9 -6 -12 -24 -12 -67 0 -19 -6 -21 -44 -20 -25 1 -51 8 -60 15 -9 7 -25 11 -36 8 -24 -6 -28 20 -5 29 12 5 13 10 4 20 -13 16 9 44 35 44 9 0 16 5 16 10 0 6 -4 10 -10 10 -18 0 -11 19 8 19 64 2 96 8 101 21 3 8 7 -7 9 -34 2 -27 -1 -52 -6 -55z m-307 -61 c10 -33 -5 -68 -36 -80 -16 -7 -29 -16 -29 -21 0 -5 -10 -8 -22 -6 -17 1 -23 -3 -22 -16 2 -14 -1 -15 -12 -6 -11 9 -14 8 -14 -5 0 -9 -8 -16 -18 -16 -14 0 -21 12 -28 51 -11 49 -10 50 18 65 16 8 26 19 23 23 -6 11 20 22 30 13 3 -4 22 -7 41 -7 26 0 34 4 34 17 0 22 27 13 35 -12z m125 20 c0 -5 -5 -10 -11 -10 -5 0 -7 5 -4 10 3 6 8 10 11 10 2 0 4 -4 4 -10z m-353 -102 c-3 -8 -6 -5 -6 6 -1 11 2 17 5 13 3 -3 4 -12 1 -19z m33 2 c0 -5 -2 -10 -4 -10 -3 0 -8 5 -11 10 -3 6 -1 10 4 10 6 0 11 -4 11 -10z m427 -7 c-4 -3 -10 -3 -14 0 -3 4 0 7 7 7 7 0 10 -3 7 -7z m-427 -48 c0 -8 -2 -15 -4 -15 -2 0 -6 7 -10 15 -3 8 -1 15 4 15 6 0 10 -7 10 -15z m457 -92 c-4 -3 -7 0 -7 7 0 7 3 10 7 7 3 -4 3 -10 0 -14z m-30 -55 c-3 -8 -6 -5 -6 6 -1 11 2 17 5 13 3 -3 4 -12 1 -19z m-277 -9 c0 -6 -4 -7 -10 -4 -5 3 -10 11 -10 16 0 6 5 7 10 4 6 -3 10 -11 10 -16z"/>
 <path d="M150 259 c0 -5 5 -7 10 -4 6 3 10 8 10 11 0 2 -4 4 -10 4 -5 0 -10 -5 -10 -11z"/>
 </g>
<g id="layer106" fill="#746d27" stroke="none">
 <path d="M2 468 c2 -138 6 -175 18 -184 11 -9 18 -8 31 7 9 10 26 19 38 19 11 0 21 5 21 10 0 6 6 10 14 10 7 0 21 12 31 26 15 23 21 25 53 19 30 -5 38 -3 52 15 l17 22 25 -24 c22 -20 25 -27 17 -55 -6 -20 -20 -37 -37 -45 -18 -9 -28 -22 -30 -41 -2 -16 -9 -27 -19 -27 -13 0 -13 3 -3 15 8 9 8 15 2 15 -6 0 -15 -12 -20 -27 -7 -18 -11 -22 -11 -10 -1 21 -21 23 -21 2 0 -24 -29 -30 -45 -9 -9 12 -14 14 -15 6 0 -20 -40 5 -40 26 0 9 -5 24 -10 32 -8 13 -12 12 -28 -6 -11 -11 -24 -30 -31 -41 -13 -25 -15 -147 -2 -139 16 10 20 -21 6 -41 -31 -39 -21 -43 111 -43 117 0 125 1 113 17 -11 13 -11 17 -2 20 19 7 16 26 -8 52 -24 25 -17 42 9 23 35 -25 44 -24 72 9 16 19 29 40 30 48 0 8 6 11 16 7 8 -3 12 -2 9 4 -8 13 1 13 25 0 26 -14 70 -3 63 16 -4 10 3 14 21 14 14 0 26 -5 26 -11 0 -5 4 -8 9 -4 5 3 13 0 16 -5 4 -6 18 -15 32 -21 27 -10 26 -36 -1 -31 -19 3 -21 -19 -4 -36 9 -9 9 -15 1 -23 -16 -16 -44 -4 -37 16 7 18 -2 19 -44 4 -17 -6 -32 -18 -34 -27 -2 -9 -12 -17 -22 -17 -27 0 -32 -25 -7 -32 12 -3 21 -9 21 -14 0 -12 177 -12 184 0 3 5 -5 12 -18 15 -19 5 -23 11 -18 28 10 41 44 62 56 36 3 -7 5 17 4 54 -1 65 -13 88 -39 73 -4 -3 -19 1 -32 10 -13 8 -27 12 -31 8 -4 -4 -4 0 0 10 3 9 10 17 15 17 5 0 9 4 9 9 0 5 -8 7 -19 4 -10 -3 -22 0 -25 6 -4 6 -2 12 3 12 20 3 26 5 49 17 30 17 21 28 -24 30 -20 1 -42 6 -49 12 -9 8 -14 7 -18 -2 -4 -10 -7 -10 -15 1 -6 8 -20 12 -35 9 -22 -4 -26 -1 -29 24 -4 24 -2 27 14 22 12 -3 18 0 18 9 0 39 109 114 146 100 22 -8 17 35 -6 49 -21 13 -27 38 -10 38 6 0 10 -6 10 -14 0 -8 4 -17 9 -20 4 -3 6 6 3 19 -2 15 0 25 7 25 6 0 11 -15 11 -34 0 -20 6 -36 14 -39 8 -3 16 -16 19 -29 2 -13 5 12 6 56 1 66 -1 77 -13 67 -10 -8 -16 -9 -21 -1 -8 13 -165 14 -165 0 0 -5 -7 -10 -16 -10 -9 0 -14 -6 -11 -13 3 -7 -4 -19 -15 -26 -17 -11 -22 -10 -29 1 -7 10 -9 9 -10 -4 -1 -10 -3 -22 -4 -28 -1 -5 -3 -16 -4 -23 -2 -19 -48 -40 -54 -24 -2 7 -12 2 -25 -13 -16 -20 -18 -28 -9 -39 9 -11 9 -13 -2 -10 -21 7 -34 49 -16 49 8 0 15 7 15 15 0 8 8 15 18 15 10 0 21 3 25 6 9 10 -35 75 -57 84 -12 5 -15 9 -8 9 7 1 10 6 7 11 -4 6 -57 10 -126 10 l-121 0 4 -172z m228 -48 c0 -5 -4 -10 -10 -10 -5 0 -10 5 -10 10 0 6 5 10 10 10 6 0 10 -4 10 -10z m107 -17 c-4 -3 -10 -3 -14 0 -3 4 0 7 7 7 7 0 10 -3 7 -7z m-297 -64 c0 -5 -4 -9 -10 -9 -5 0 -10 7 -10 16 0 8 5 12 10 9 6 -3 10 -10 10 -16z m17 -126 c-4 -3 -10 -3 -14 0 -3 4 0 7 7 7 7 0 10 -3 7 -7z m270 -10 c-4 -3 -7 0 -7 7 0 7 3 10 7 7 3 -4 3 -10 0 -14z"/>
 <path d="M623 443 c-7 -15 -14 -51 -17 -80 -4 -43 -3 -51 10 -46 19 7 26 38 22 101 -3 51 -3 52 -15 25z"/>
 <path d="M85 271 c-3 -5 4 -13 16 -16 28 -9 36 1 10 14 -12 7 -22 7 -26 2z"/>
 </g>
<g id="layer107" fill="#857d2c" stroke="none">
 <path d="M1 568 c1 -40 6 -81 11 -92 7 -13 7 -21 -2 -26 -7 -4 -10 -25 -8 -51 2 -35 6 -43 20 -41 23 4 24 -24 2 -36 -12 -7 -14 -14 -7 -26 8 -15 11 -15 28 4 10 11 24 20 32 20 7 0 13 4 13 10 0 5 7 7 14 4 16 -6 86 57 86 76 0 17 24 37 38 32 9 -3 10 3 2 22 -8 22 -6 27 21 43 26 15 30 22 25 48 -4 17 -16 37 -28 46 -11 9 -18 21 -14 27 4 6 -35 10 -114 11 l-120 2 1 -73z"/>
 <path d="M434 615 c-4 -16 -18 -29 -40 -37 -26 -9 -34 -18 -34 -36 0 -27 -21 -52 -43 -52 -27 0 -47 -12 -47 -27 0 -9 6 -13 15 -9 8 3 15 1 15 -4 0 -5 -8 -11 -17 -13 -17 -4 -17 -5 0 -6 9 0 17 -6 17 -12 0 -7 9 -9 24 -5 21 5 23 3 22 -22 -2 -15 -8 -37 -14 -49 -16 -29 -15 -33 7 -33 11 0 22 -4 25 -9 3 -5 -10 -9 -29 -8 -41 1 -75 -26 -75 -60 0 -17 -6 -23 -21 -23 -11 0 -17 -4 -14 -10 4 -7 -2 -9 -18 -5 -18 5 -28 2 -35 -12 -10 -17 -11 -17 -25 1 -8 10 -19 16 -25 12 -6 -3 -18 1 -27 11 -13 13 -19 13 -25 4 -6 -10 -12 -11 -30 -1 -15 8 -20 8 -16 1 4 -6 0 -11 -8 -11 -12 0 -16 -11 -16 -50 0 -27 5 -50 10 -50 6 0 15 -11 21 -24 10 -20 8 -27 -12 -47 l-24 -24 119 -3 c65 -1 121 0 125 3 3 4 -2 12 -11 19 -16 12 -16 13 1 25 17 12 16 15 -7 38 -23 24 -24 26 -7 35 11 7 20 7 24 1 3 -6 16 -13 29 -17 16 -5 22 -3 22 8 0 8 9 18 20 21 25 8 28 55 4 55 -30 0 9 25 41 26 17 0 37 2 45 5 10 2 14 -2 12 -13 -4 -26 15 -31 38 -8 12 12 29 20 38 18 9 -2 24 6 33 17 16 18 16 20 -3 34 -20 13 -20 14 -2 25 11 6 22 11 27 12 4 1 10 2 13 3 4 0 1 8 -7 17 -7 8 -21 13 -31 11 -10 -3 -18 -1 -18 4 0 6 -6 7 -17 1 -12 -7 -24 -5 -39 5 -17 10 -24 11 -29 2 -5 -7 -13 0 -21 21 -18 41 -18 40 7 40 11 0 18 4 15 8 -3 5 8 19 25 32 16 14 29 30 29 36 0 7 7 14 15 18 8 3 15 15 15 26 0 11 5 20 10 20 6 0 10 -9 10 -20 0 -11 5 -20 10 -20 6 0 10 5 10 11 0 6 8 8 19 4 11 -3 22 -2 25 3 8 14 -21 35 -36 26 -7 -4 -10 -4 -6 1 4 4 0 14 -10 21 -15 12 -14 14 15 26 62 23 49 38 -32 38 -71 0 -75 -1 -81 -25z m13 -22 c-4 -3 -7 0 -7 7 0 7 3 10 7 7 3 -4 3 -10 0 -14z m-10 -310 c-4 -3 -10 -3 -14 0 -3 4 0 7 7 7 7 0 10 -3 7 -7z m-70 -20 c-4 -3 -7 0 -7 7 0 7 3 10 7 7 3 -4 3 -10 0 -14z m-177 -153 c0 -5 -5 -10 -11 -10 -5 0 -7 5 -4 10 3 6 8 10 11 10 2 0 4 -4 4 -10z"/>
 <path d="M618 622 c-14 -3 -16 -10 -11 -35 8 -41 27 -55 31 -22 5 41 -2 61 -20 57z"/>
 <path d="M630 510 c0 -7 3 -10 7 -7 3 4 3 10 0 14 -4 3 -7 0 -7 -7z"/>
 <path d="M620 421 c-10 -21 -4 -51 11 -51 5 0 9 16 9 35 0 40 -5 43 -20 16z"/>
 <path d="M230 404 c0 -23 1 -24 16 -10 8 9 21 16 27 17 12 0 -20 17 -35 18 -5 1 -8 -11 -8 -25z"/>
 <path d="M50 250 c0 -11 5 -20 10 -20 6 0 10 9 10 20 0 11 -4 20 -10 20 -5 0 -10 -9 -10 -20z"/>
 <path d="M530 220 c-12 -7 -12 -12 4 -29 10 -11 23 -19 29 -18 5 1 13 -10 18 -25 5 -21 4 -28 -7 -28 -16 0 -18 -9 -6 -27 7 -12 35 -3 33 11 -3 19 0 26 13 26 8 0 17 -6 19 -12 3 -7 6 4 6 25 1 41 -19 73 -36 56 -6 -6 -16 -2 -28 11 -20 23 -24 23 -45 10z"/>
 <path d="M340 189 c0 -5 5 -7 10 -4 6 3 10 8 10 11 0 2 -4 4 -10 4 -5 0 -10 -5 -10 -11z"/>
 <path d="M469 88 c-19 -6 -25 -14 -22 -27 3 -13 -1 -18 -14 -17 -10 0 -19 -2 -20 -6 -2 -5 0 -7 3 -5 3 1 10 -6 15 -15 8 -15 24 -18 84 -18 45 0 77 5 81 11 5 9 -1 10 -20 5 -25 -6 -26 -5 -17 13 15 27 15 28 -16 36 -15 3 -32 12 -37 20 -8 9 -18 10 -37 3z"/>
 </g>
<g id="layer108" fill="#948b31" stroke="none">
 <path d="M20 625 c10 -12 10 -15 -4 -15 -11 0 -16 -9 -16 -31 0 -17 4 -28 10 -24 5 3 10 -1 10 -9 0 -8 -4 -17 -9 -21 -6 -3 -4 -18 4 -38 12 -28 11 -34 -2 -49 -19 -21 -9 -85 11 -69 7 6 17 6 26 0 10 -5 11 -12 5 -16 -5 -5 -11 -16 -13 -26 -3 -17 -1 -17 28 -2 17 9 34 14 39 11 4 -3 18 8 30 24 12 17 28 30 35 30 9 0 12 8 9 25 -4 20 0 25 21 31 20 5 25 11 21 25 -4 13 2 26 20 41 21 19 25 28 19 56 -4 17 -12 32 -19 32 -7 0 -18 7 -25 15 -7 9 -19 14 -27 11 -7 -3 -13 -1 -13 4 0 6 -37 10 -86 10 -76 0 -85 -2 -74 -15z"/>
 <path d="M450 631 c0 -5 4 -11 10 -13 5 -1 7 -13 4 -25 -5 -18 -11 -21 -35 -16 -21 4 -30 1 -35 -11 -3 -9 -13 -16 -21 -16 -11 0 -13 -7 -9 -25 4 -15 2 -25 -4 -25 -6 0 -8 -5 -4 -12 5 -7 0 -9 -14 -6 -24 7 -37 -7 -37 -37 0 -14 8 -21 25 -23 14 -2 30 -8 35 -12 7 -6 16 -1 23 11 7 10 17 19 23 19 9 0 29 20 69 67 5 7 10 27 10 45 0 18 6 40 13 49 16 21 45 30 49 17 2 -6 10 -8 16 -4 26 16 9 23 -53 25 -36 1 -65 -3 -65 -8z m-55 -131 c3 -5 1 -10 -4 -10 -6 0 -11 5 -11 10 0 6 2 10 4 10 3 0 8 -4 11 -10z"/>
 <path d="M619 618 c-5 -18 -3 -55 2 -52 4 2 10 -2 12 -8 3 -7 6 1 6 19 1 17 -3 35 -9 38 -5 3 -10 5 -11 3z"/>
 <path d="M510 570 c0 -5 5 -10 11 -10 5 0 7 5 4 10 -3 6 -8 10 -11 10 -2 0 -4 -4 -4 -10z"/>
 <path d="M520 540 c0 -6 7 -10 15 -10 8 0 15 2 15 4 0 2 -7 6 -15 10 -8 3 -15 1 -15 -4z"/>
 <path d="M627 424 c-4 -4 -7 -14 -7 -23 0 -11 3 -12 11 -4 6 6 10 16 7 23 -2 6 -7 8 -11 4z"/>
 <path d="M370 359 c0 -16 -5 -20 -20 -16 -25 7 -25 3 1 -22 13 -12 21 -33 22 -53 1 -32 4 -35 41 -44 52 -12 86 -7 86 12 0 8 5 12 11 8 6 -3 3 8 -5 25 -10 19 -12 31 -6 31 6 0 18 7 26 15 14 13 14 15 0 15 -8 0 -17 -4 -20 -9 -9 -14 -32 -8 -56 14 -21 19 -23 19 -35 2 -19 -26 -32 -20 -27 13 3 18 0 30 -7 30 -6 0 -11 -10 -11 -21z m75 -75 c9 -14 14 -28 11 -32 -3 -3 -6 0 -6 6 0 7 -6 12 -14 12 -7 0 -16 9 -19 20 -7 28 7 25 28 -6z"/>
 <path d="M289 268 c-1 -7 -1 -16 0 -20 0 -5 -3 -8 -9 -8 -5 0 -10 -8 -10 -17 0 -21 -50 -47 -63 -34 -6 6 -18 2 -31 -10 -11 -11 -22 -15 -24 -9 -2 5 -10 10 -18 10 -8 0 -25 7 -38 16 -16 10 -26 12 -31 4 -3 -6 -11 -8 -16 -5 -5 4 -18 3 -30 0 -17 -6 -20 -14 -17 -48 2 -27 7 -41 16 -40 6 2 12 -6 12 -16 0 -11 6 -21 13 -24 9 -3 9 -9 0 -26 -7 -11 -13 -25 -13 -31 0 -12 143 -12 180 0 l25 8 -27 1 c-19 1 -28 6 -28 17 0 10 6 14 14 11 8 -3 20 1 26 9 9 10 9 14 1 14 -6 0 -11 7 -11 15 0 11 -7 14 -25 11 -19 -4 -25 0 -25 14 0 19 25 34 41 24 6 -3 15 -1 22 4 7 5 27 10 46 10 38 1 59 22 36 35 -8 4 -15 13 -15 18 0 6 5 7 10 4 6 -3 10 -2 10 3 0 5 9 19 20 32 22 25 26 40 10 40 -5 0 -10 -7 -10 -16 0 -8 -5 -12 -10 -9 -6 4 -8 11 -5 16 4 5 -1 9 -9 9 -9 0 -17 -6 -17 -12z"/>
 <path d="M540 211 c0 -6 4 -12 8 -15 5 -3 9 1 9 9 0 8 -4 15 -9 15 -4 0 -8 -4 -8 -9z"/>
 <path d="M577 178 c7 -12 9 -16 12 -35 0 -5 12 -8 26 -8 20 0 25 5 25 24 0 17 -4 22 -16 17 -8 -3 -12 -2 -9 4 4 6 -5 10 -20 10 -19 0 -24 -4 -18 -12z"/>
 <path d="M458 51 c-10 -21 -18 -41 -18 -44 0 -4 18 -7 41 -7 42 0 69 17 69 44 0 9 -6 16 -14 16 -8 0 -21 6 -28 13 -23 21 -32 16 -50 -22z"/>
 </g>
<g id="layer109" fill="#a69c37" stroke="none">
 <path d="M37 611 c5 -22 4 -24 -9 -14 -16 14 -28 8 -28 -13 0 -8 6 -11 13 -9 9 4 12 -13 12 -67 0 -48 -4 -73 -13 -75 -6 -3 -12 -13 -12 -23 0 -20 47 -34 53 -16 2 6 8 8 12 4 4 -4 3 -21 -3 -37 -11 -30 -11 -30 21 -24 37 7 84 51 93 87 3 14 15 28 25 31 11 4 17 11 13 16 -3 5 6 23 20 40 14 17 26 34 26 39 0 21 -13 38 -26 33 -9 -3 -14 2 -14 17 0 18 -4 21 -21 17 -12 -3 -22 0 -26 9 -4 12 -22 15 -74 13 -69 -2 -69 -2 -62 -28z m110 -207 c-3 -3 -12 -4 -19 -1 -8 3 -5 6 6 6 11 1 17 -2 13 -5z"/>
 <path d="M470 625 c7 -8 9 -23 4 -37 -7 -23 -6 -23 14 2 23 28 19 50 -10 50 -17 0 -18 -3 -8 -15z"/>
 <path d="M630 580 c0 -7 3 -10 7 -7 3 4 3 10 0 14 -4 3 -7 0 -7 -7z"/>
 <path d="M395 560 c-3 -11 -11 -20 -16 -20 -6 0 -7 -5 -4 -10 4 -6 12 -7 18 -4 7 4 9 4 5 -1 -4 -4 -3 -16 3 -26 8 -15 5 -20 -15 -25 -14 -3 -34 -3 -47 1 -15 5 -19 4 -14 -4 4 -7 1 -19 -7 -28 -11 -14 -10 -16 9 -11 12 3 24 1 26 -6 11 -33 127 70 127 114 0 17 -3 21 -8 12 -7 -9 -13 -8 -27 8 -23 25 -42 26 -50 0z"/>
 <path d="M631 414 c0 -11 3 -14 6 -6 3 7 2 16 -1 19 -3 4 -6 -2 -5 -13z"/>
 <path d="M365 339 c-4 -6 -5 -12 -2 -15 2 -3 7 2 10 11 7 17 1 20 -8 4z"/>
 <path d="M415 329 c-4 -6 2 -13 13 -16 18 -4 39 -50 30 -63 -6 -8 -28 -8 -28 0 0 10 -44 60 -53 60 -3 0 -2 -12 2 -27 4 -16 7 -34 5 -41 -1 -7 0 -8 2 -3 3 5 18 2 35 -6 27 -13 32 -13 42 0 7 8 21 17 32 19 17 3 15 8 -19 46 -40 44 -50 49 -61 31z"/>
 <path d="M280 228 c0 -4 7 -8 15 -8 8 0 15 4 15 8 0 5 -7 9 -15 9 -8 0 -15 -4 -15 -9z"/>
 <path d="M17 186 c-26 -20 -22 -65 8 -76 15 -6 23 -15 19 -23 -3 -8 3 -17 13 -21 11 -5 14 -9 6 -14 -6 -4 -13 -16 -15 -27 -3 -17 3 -20 46 -23 76 -5 94 2 88 34 -3 19 -1 25 7 20 6 -4 16 -4 21 -1 17 11 -18 37 -40 30 -12 -4 -20 -2 -20 5 0 6 -5 8 -10 5 -6 -3 -10 -2 -10 3 0 17 42 47 69 50 14 1 35 3 46 4 11 1 23 7 28 12 5 8 10 7 16 -3 10 -15 26 3 16 18 -7 12 -69 5 -73 -8 -2 -6 -12 -7 -27 -1 -17 6 -28 4 -43 -11 -26 -23 -30 -24 -28 -1 1 12 -5 16 -21 15 -13 -2 -23 2 -23 7 0 6 -7 10 -15 10 -8 0 -15 -5 -15 -12 0 -7 -5 -5 -12 5 -11 13 -16 14 -31 3z m97 -111 c-4 -8 -8 -15 -10 -15 -2 0 -4 7 -4 15 0 8 4 15 10 15 5 0 7 -7 4 -15z"/>
 <path d="M624 169 c-3 -6 -1 -16 5 -22 8 -8 11 -5 11 11 0 24 -5 28 -16 11z"/>
 <path d="M596 161 c-4 -7 -5 -15 -2 -18 9 -9 19 4 14 18 -4 11 -6 11 -12 0z"/>
 <path d="M473 68 c1 -38 -4 -47 -20 -41 -16 6 -16 5 -4 -10 17 -21 55 -22 75 -1 24 23 20 44 -9 44 -14 0 -25 5 -25 10 0 6 -4 10 -9 10 -5 0 -9 -6 -8 -12z"/>
 </g>
<g id="layer110" fill="#b5aa3d" stroke="none">
 <path d="M57 628 c-2 -7 -5 -16 -6 -20 -3 -14 -30 -88 -33 -91 -1 -1 5 -13 14 -26 13 -19 14 -28 5 -45 -7 -11 -18 -25 -26 -30 -11 -7 -11 -10 0 -17 23 -14 39 -10 39 10 0 10 7 21 15 25 8 3 15 1 15 -3 0 -5 19 -11 41 -13 35 -3 43 0 52 19 6 13 15 23 20 23 5 0 7 13 4 30 -4 16 -2 32 3 35 6 3 10 26 10 50 0 33 -3 43 -13 39 -8 -3 -20 2 -27 11 -16 19 -106 21 -113 3z"/>
 <path d="M480 620 c0 -5 5 -10 10 -10 6 0 10 5 10 10 0 6 -4 10 -10 10 -5 0 -10 -4 -10 -10z"/>
 <path d="M226 573 c-3 -4 -6 -12 -6 -20 0 -14 26 -18 33 -5 6 9 -19 33 -27 25z"/>
 <path d="M400 561 c-5 -11 -6 -22 -1 -25 5 -3 9 -17 9 -31 0 -37 9 -41 32 -15 24 28 25 34 4 65 -20 30 -30 31 -44 6z"/>
 <path d="M330 455 c-7 -9 -11 -18 -8 -20 3 -3 11 1 18 10 7 9 11 18 8 20 -3 3 -11 -1 -18 -10z"/>
 <path d="M370 455 c-19 -23 -7 -39 13 -17 10 11 14 23 9 26 -5 3 -15 -1 -22 -9z"/>
 <path d="M83 384 c-16 -35 -8 -46 22 -32 29 13 31 21 9 42 -19 20 -17 21 -31 -10z"/>
 <path d="M423 323 c4 -3 10 -3 14 0 3 4 0 7 -7 7 -7 0 -10 -3 -7 -7z"/>
 <path d="M462 278 c3 -7 13 -15 24 -17 16 -3 17 -1 5 13 -16 19 -34 21 -29 4z"/>
 <path d="M391 264 c13 -16 29 -19 29 -5 0 5 -9 11 -21 14 -16 4 -18 3 -8 -9z"/>
 <path d="M16 175 c-19 -15 -14 -57 7 -54 30 4 39 -2 34 -21 -3 -11 -1 -23 4 -26 5 -3 9 0 9 5 0 6 15 17 34 25 29 12 33 18 29 40 -4 20 -10 25 -23 21 -10 -3 -22 -1 -25 6 -6 8 -10 7 -16 -2 -8 -12 -12 -11 -22 2 -11 14 -15 15 -31 4z"/>
 <path d="M290 170 c0 -7 3 -10 7 -7 3 4 3 10 0 14 -4 3 -7 0 -7 -7z"/>
 <path d="M185 160 c3 -5 13 -10 21 -10 8 0 12 5 9 10 -3 6 -13 10 -21 10 -8 0 -12 -4 -9 -10z"/>
 <path d="M630 160 c0 -7 3 -10 7 -7 3 4 3 10 0 14 -4 3 -7 0 -7 -7z"/>
 <path d="M150 70 c0 -5 5 -10 10 -10 6 0 10 5 10 10 0 6 -4 10 -10 10 -5 0 -10 -4 -10 -10z"/>
 <path d="M98 35 c-10 -13 -18 -26 -18 -29 0 -4 21 -5 47 -4 26 1 42 3 35 6 -10 3 -10 7 -2 17 9 10 7 16 -9 24 -28 15 -34 14 -53 -14z"/>
 <path d="M480 30 c0 -24 22 -26 40 -5 11 13 10 14 -4 9 -9 -3 -16 -1 -16 5 0 6 -4 11 -10 11 -5 0 -10 -9 -10 -20z"/>
 <path d="M50 19 c0 -5 5 -7 10 -4 13 8 13 15 0 15 -5 0 -10 -5 -10 -11z"/>
 </g>
<g id="layer111" fill="#c6ba42" stroke="none">
 <path d="M70 634 c0 -3 5 -15 11 -27 9 -18 9 -20 -2 -9 -20 19 -26 15 -33 -20 -15 -71 -12 -91 14 -105 16 -8 19 -13 9 -13 -9 0 -22 -7 -29 -15 -14 -17 -3 -20 20 -5 9 6 19 5 28 -3 11 -8 16 -7 23 6 13 22 31 22 27 1 -2 -10 2 -19 8 -21 15 -5 25 35 10 41 -6 2 2 5 17 5 23 1 26 4 18 18 -5 10 -6 24 -2 33 13 25 21 91 10 84 -5 -3 -16 -1 -23 5 -8 7 -24 7 -47 1 l-34 -9 24 19 23 20 -36 0 c-20 0 -36 -3 -36 -6z"/>
 <path d="M413 555 c-6 -7 -8 -18 -3 -26 5 -7 6 -17 4 -21 -3 -4 2 -8 10 -8 17 0 18 11 8 46 -6 17 -9 19 -19 9z"/>
 <path d="M20 410 c-13 -8 -12 -10 3 -10 9 0 17 5 17 10 0 12 -1 12 -20 0z"/>
 <path d="M90 375 c0 -8 5 -15 10 -15 6 0 10 7 10 15 0 8 -4 15 -10 15 -5 0 -10 -7 -10 -15z"/>
 <path d="M15 160 c-9 -14 2 -25 33 -35 16 -5 22 -2 22 10 0 19 22 15 28 -5 3 -7 0 -10 -7 -6 -6 4 -11 2 -11 -3 0 -12 11 -14 34 -5 23 9 8 32 -27 39 -18 4 -39 9 -49 11 -9 3 -19 0 -23 -6z"/>
 <path d="M101 27 c-17 -17 -13 -27 13 -27 19 0 36 16 36 34 0 8 -40 2 -49 -7z"/>
 </g>
<g id="layer112" fill="#d6c948" stroke="none">
 <path d="M90 630 c0 -5 4 -10 9 -10 6 0 13 5 16 10 3 6 -1 10 -9 10 -9 0 -16 -4 -16 -10z"/>
 <path d="M133 598 c-4 -7 -8 -16 -8 -20 0 -3 -4 -10 -9 -15 -5 -5 -6 -3 -2 5 5 8 -1 12 -18 12 -14 0 -26 6 -27 13 0 6 -4 2 -9 -11 -5 -12 -7 -28 -4 -36 3 -7 -2 -21 -11 -30 -9 -9 -13 -17 -8 -17 4 -1 13 -2 18 -3 6 0 19 -7 30 -13 16 -10 17 -14 6 -22 -10 -6 -10 -10 -1 -16 7 -4 13 1 17 14 4 15 11 19 27 16 28 -7 57 11 37 24 -10 6 -10 10 -1 13 21 7 20 77 -1 88 -23 13 -26 13 -36 -2z"/>
 <path d="M110 130 c0 -7 3 -10 7 -7 3 4 3 10 0 14 -4 3 -7 0 -7 -7z"/>
 <path d="M99 14 c-12 -14 -11 -16 5 -13 11 2 21 10 24 17 5 17 -13 15 -29 -4z"/>
 </g>
<g id="layer113" fill="#e5d74d" stroke="none">
 <path d="M140 590 c0 -5 10 -10 23 -10 18 0 19 2 7 10 -19 13 -30 13 -30 0z"/>
 <path d="M91 553 c0 -13 -5 -23 -11 -23 -5 0 -10 -7 -10 -15 0 -13 4 -14 21 -4 18 9 20 8 15 -8 -4 -14 -1 -19 14 -20 24 -2 37 16 19 28 -11 6 -10 11 4 27 9 10 14 22 10 25 -11 12 -23 8 -23 -8 0 -21 -28 -19 -33 3 -4 13 -5 11 -6 -5z"/>
 </g>

</svg>