<!DOCTYPE svg PUBLIC "-//W3C//DTD SVG 20010904//EN" "http://www.w3.org/TR/2001/REC-SVG-20010904/DTD/svg10.dtd">
<svg version="1.0" xmlns="http://www.w3.org/2000/svg" width="32px" height="32px" viewBox="0 0 320 320" preserveAspectRatio="xMidYMid meet">
<g id="layer101" fill="#000000" stroke="none">
 <path d="M0 160 l0 -160 160 0 160 0 0 160 0 160 -160 0 -160 0 0 -160z"/>
 </g>
<g id="layer102" fill="#486880" stroke="none">
 <path d="M10 285 c0 -33 2 -35 35 -35 33 0 35 2 35 35 0 33 -2 35 -35 35 -33 0 -35 -2 -35 -35z"/>
 <path d="M90 285 l0 -35 75 0 75 0 0 35 0 35 -75 0 -75 0 0 -35z"/>
 <path d="M250 245 l0 -75 35 0 35 0 0 75 0 75 -35 0 -35 0 0 -75z"/>
 <path d="M10 165 l0 -75 75 0 75 0 0 75 0 75 -75 0 -75 0 0 -75z"/>
 <path d="M170 165 l0 -75 35 0 35 0 0 75 0 75 -35 0 -35 0 0 -75z"/>
 <path d="M250 125 c0 -33 2 -35 35 -35 33 0 35 2 35 35 0 33 -2 35 -35 35 -33 0 -35 -2 -35 -35z"/>
 <path d="M10 45 c0 -33 2 -35 35 -35 33 0 35 2 35 35 0 33 -2 35 -35 35 -33 0 -35 -2 -35 -35z"/>
 <path d="M90 40 l0 -40 75 0 75 0 0 40 0 40 -75 0 -75 0 0 -40z"/>
 <path d="M250 45 c0 -33 2 -35 35 -35 33 0 35 2 35 35 0 33 -2 35 -35 35 -33 0 -35 -2 -35 -35z"/>
 </g>
<g id="layer103" fill="#527691" stroke="none">
 <path d="M10 285 c0 -25 4 -35 16 -35 29 0 54 21 54 45 0 22 -4 25 -35 25 -33 0 -35 -2 -35 -35z"/>
 <path d="M90 303 c0 -35 17 -45 84 -50 l66 -6 0 37 0 36 -75 0 c-65 0 -75 -2 -75 -17z"/>
 <path d="M250 245 l0 -75 35 0 35 0 -1 75 -1 75 -34 0 -34 0 0 -75z"/>
 <path d="M10 163 l0 -73 75 0 75 0 0 73 0 73 -75 0 -75 0 0 -73z"/>
 <path d="M170 165 l0 -75 35 0 35 0 0 75 0 75 -35 0 -35 0 0 -75z"/>
 <path d="M250 125 c0 -33 2 -35 35 -35 33 0 35 2 35 35 0 33 -2 35 -35 35 -33 0 -35 -2 -35 -35z"/>
 <path d="M10 45 c0 -33 2 -35 35 -35 33 0 35 2 35 35 0 33 -2 35 -35 35 -33 0 -35 -2 -35 -35z"/>
 <path d="M90 40 l0 -40 75 0 75 0 0 40 0 40 -75 0 -75 0 0 -40z"/>
 <path d="M250 45 c0 -33 2 -35 35 -35 33 0 35 2 35 35 0 33 -2 35 -35 35 -33 0 -35 -2 -35 -35z"/>
 </g>
<g id="layer104" fill="#5b83a2" stroke="none">
 <path d="M14 304 c3 -9 6 -22 6 -30 0 -24 47 -17 54 9 9 35 8 37 -30 37 -29 0 -35 -3 -30 -16z"/>
 <path d="M98 290 c3 -23 9 -30 27 -30 12 0 43 -3 69 -6 l46 -7 0 37 0 36 -73 0 -74 0 5 -30z"/>
 <path d="M250 245 l0 -75 33 0 34 0 -1 75 -1 75 -32 0 -33 0 0 -75z"/>
 <path d="M170 165 l0 -75 35 0 35 0 0 75 0 75 -35 0 -35 0 0 -75z"/>
 <path d="M17 223 c-4 -3 -7 -35 -7 -70 l0 -63 75 0 75 0 0 70 0 70 -68 0 c-38 0 -72 -3 -75 -7z"/>
 <path d="M250 125 c0 -33 2 -35 35 -35 33 0 35 2 35 35 0 33 -2 35 -35 35 -33 0 -35 -2 -35 -35z"/>
 <path d="M10 45 c0 -33 2 -35 35 -35 33 0 35 2 35 35 0 33 -2 35 -35 35 -33 0 -35 -2 -35 -35z"/>
 <path d="M90 40 l0 -40 75 0 75 0 0 40 0 40 -75 0 -75 0 0 -40z"/>
 <path d="M250 45 c0 -33 2 -35 35 -35 33 0 35 2 35 35 0 33 -2 35 -35 35 -33 0 -35 -2 -35 -35z"/>
 </g>
<g id="layer105" fill="#6692b5" stroke="none">
 <path d="M33 313 c-7 -2 -13 -16 -13 -29 0 -19 5 -24 25 -24 21 0 25 5 25 30 0 29 -9 35 -37 23z"/>
 <path d="M100 290 c0 -30 1 -30 54 -30 30 0 61 -3 70 -6 13 -5 16 1 16 30 l0 36 -70 0 -70 0 0 -30z"/>
 <path d="M256 259 c8 -84 9 -89 37 -89 22 0 23 2 19 68 -2 37 -5 68 -6 69 0 1 -13 4 -28 8 l-28 7 6 -63z"/>
 <path d="M208 233 c-24 -4 -28 -9 -28 -36 0 -18 -3 -49 -6 -69 -7 -38 -7 -38 29 -38 l35 0 -1 75 c-1 41 -2 74 -2 73 0 0 -12 -3 -27 -5z"/>
 <path d="M16 199 c-3 -17 -6 -48 -6 -68 l0 -36 76 -3 77 -3 -7 32 c-3 17 -6 49 -6 70 l0 39 -64 0 c-63 0 -64 0 -70 -31z"/>
 <path d="M257 153 c-4 -3 -7 -19 -7 -35 0 -25 3 -28 35 -28 33 0 35 2 35 35 0 32 -3 35 -28 35 -16 0 -32 -3 -35 -7z"/>
 <path d="M10 43 c0 -31 2 -33 35 -33 33 0 35 2 35 35 0 34 -1 35 -35 32 -32 -2 -35 -5 -35 -34z"/>
 <path d="M90 56 c0 -51 8 -56 81 -56 l69 0 0 40 0 40 -75 0 c-73 0 -75 -1 -75 -24z"/>
 <path d="M250 45 c0 -28 4 -35 19 -35 37 0 51 12 51 41 0 26 -3 29 -35 29 -33 0 -35 -2 -35 -35z"/>
 </g>
<g id="layer106" fill="#6e9ec3" stroke="none">
 <path d="M100 290 l0 -30 64 0 c63 0 64 0 68 30 l5 30 -69 0 -68 0 0 -30z"/>
 <path d="M258 248 c3 -64 5 -68 28 -68 23 0 24 3 24 64 0 62 -1 64 -27 68 l-28 4 3 -68z"/>
 <path d="M20 285 c0 -20 5 -25 25 -25 20 0 25 5 25 25 0 20 -5 25 -25 25 -20 0 -25 -5 -25 -25z"/>
 <path d="M17 191 c-2 -21 -3 -50 0 -64 5 -23 10 -25 71 -29 37 -3 67 -5 67 -4 0 1 -1 31 -3 69 l-4 67 -63 0 -62 0 -6 -39z"/>
 <path d="M180 191 c0 -21 -3 -53 -6 -70 -6 -30 -6 -31 31 -31 37 0 37 1 31 31 -3 17 -6 49 -6 70 0 35 -3 39 -25 39 -22 0 -25 -4 -25 -39z"/>
 <path d="M260 141 c-19 -37 -12 -51 25 -51 33 0 35 2 35 35 0 31 -3 35 -25 35 -14 0 -29 -8 -35 -19z"/>
 <path d="M47 72 c-24 -3 -28 -7 -25 -30 3 -31 44 -44 54 -18 12 31 0 51 -29 48z"/>
 <path d="M94 49 c3 -17 6 -35 6 -40 0 -5 32 -9 70 -9 l70 0 0 40 0 40 -76 0 -76 0 6 -31z"/>
 <path d="M250 44 c0 -34 1 -36 27 -29 33 8 29 4 37 38 6 26 5 27 -29 27 -34 0 -35 -1 -35 -36z"/>
 </g>
<g id="layer107" fill="#75a8cf" stroke="none">
 <path d="M100 290 l0 -30 65 0 65 0 0 30 0 30 -65 0 -65 0 0 -30z"/>
 <path d="M20 285 c0 -20 5 -25 25 -25 20 0 25 5 25 25 0 20 -5 25 -25 25 -20 0 -25 -5 -25 -25z"/>
 <path d="M260 245 c0 -63 1 -65 25 -65 24 0 25 2 25 65 0 63 -1 65 -25 65 -24 0 -25 -2 -25 -65z"/>
 <path d="M20 166 l0 -64 68 -4 67 -3 -3 68 -4 67 -64 0 -64 0 0 -64z"/>
 <path d="M180 176 c0 -30 -3 -61 -6 -70 -5 -13 1 -16 31 -16 30 0 36 3 31 16 -3 9 -6 40 -6 70 0 51 -1 54 -25 54 -24 0 -25 -3 -25 -54z"/>
 <path d="M278 153 c-10 -2 -18 -11 -18 -18 0 -7 -3 -20 -6 -29 -5 -12 0 -16 20 -16 19 0 29 7 36 26 17 44 13 49 -32 37z"/>
 <path d="M128 73 c-24 -4 -28 -9 -28 -39 l0 -35 68 3 67 3 3 38 3 37 -43 -1 c-24 -1 -55 -4 -70 -6z"/>
 <path d="M250 47 c0 -32 2 -33 31 -29 26 4 30 8 27 31 -2 20 -9 27 -30 29 -26 3 -28 1 -28 -31z"/>
 <path d="M20 45 c0 -20 5 -25 25 -25 20 0 25 5 25 25 0 20 -5 25 -25 25 -20 0 -25 -5 -25 -25z"/>
 </g>
<g id="layer108" fill="#81b9e5" stroke="none">
 <path d="M100 290 l0 -30 65 0 65 0 0 30 0 30 -65 0 -65 0 0 -30z"/>
 <path d="M20 285 c0 -20 5 -25 25 -25 20 0 25 5 25 25 0 20 -5 25 -25 25 -20 0 -25 -5 -25 -25z"/>
 <path d="M260 245 c0 -63 1 -65 25 -65 24 0 25 2 25 65 0 63 -1 65 -25 65 -24 0 -25 -2 -25 -65z"/>
 <path d="M20 165 l0 -65 65 0 65 0 0 65 0 65 -65 0 -65 0 0 -65z"/>
 <path d="M178 160 l-3 -70 30 0 30 0 -3 70 c-3 66 -5 70 -27 70 -22 0 -24 -4 -27 -70z"/>
 <path d="M258 122 c-4 -26 -2 -28 24 -24 22 3 28 10 28 28 0 19 -5 24 -24 24 -18 0 -25 -6 -28 -28z"/>
 <path d="M138 73 c-36 -4 -38 -6 -38 -39 l0 -34 64 0 c68 0 76 6 76 56 0 26 -7 27 -102 17z"/>
 <path d="M250 50 c0 -27 3 -30 30 -30 25 0 30 4 30 24 0 16 -7 26 -22 30 -36 9 -38 8 -38 -24z"/>
 <path d="M20 45 c0 -20 5 -25 25 -25 20 0 25 5 25 25 0 20 -5 25 -25 25 -20 0 -25 -5 -25 -25z"/>
 </g>
<g id="layer109" fill="#96d7fd" stroke="none">
 <path d="M100 290 l0 -30 65 0 65 0 0 30 0 30 -65 0 -65 0 0 -30z"/>
 <path d="M20 285 c0 -20 5 -25 25 -25 20 0 25 5 25 25 0 20 -5 25 -25 25 -20 0 -25 -5 -25 -25z"/>
 <path d="M260 245 c0 -63 1 -65 25 -65 24 0 25 2 25 65 0 63 -1 65 -25 65 -24 0 -25 -2 -25 -65z"/>
 <path d="M20 165 l0 -65 65 0 65 0 0 65 0 65 -65 0 -65 0 0 -65z"/>
 <path d="M180 165 c0 -63 1 -65 25 -65 24 0 25 2 25 65 0 63 -1 65 -25 65 -24 0 -25 -2 -25 -65z"/>
 <path d="M260 125 c0 -20 5 -25 25 -25 20 0 25 5 25 25 0 20 -5 25 -25 25 -20 0 -25 -5 -25 -25z"/>
 <path d="M20 45 c0 -20 5 -25 25 -25 20 0 25 5 25 25 0 20 -5 25 -25 25 -20 0 -25 -5 -25 -25z"/>
 <path d="M100 35 l0 -35 65 0 65 0 0 35 0 35 -65 0 -65 0 0 -35z"/>
 <path d="M260 45 c0 -20 5 -25 25 -25 20 0 25 5 25 25 0 20 -5 25 -25 25 -20 0 -25 -5 -25 -25z"/>
 </g>
<g id="layer110" fill="#9fe3ff" stroke="none">
 <path d="M100 300 c0 -17 3 -19 19 -10 32 16 34 30 7 30 -19 0 -26 -5 -26 -20z"/>
 <path d="M166 305 c4 -8 1 -22 -6 -30 -11 -13 -7 -15 29 -15 39 0 41 2 41 30 0 28 -3 30 -35 30 -27 0 -33 -3 -29 -15z"/>
 <path d="M20 284 c0 -21 4 -25 23 -22 14 2 23 11 25 26 3 18 -1 22 -22 22 -21 0 -26 -5 -26 -26z"/>
 <path d="M260 245 c0 -63 1 -65 25 -65 24 0 25 2 25 65 0 63 -1 65 -25 65 -24 0 -25 -2 -25 -65z"/>
 <path d="M20 166 l0 -66 65 0 65 0 0 66 0 66 -27 -6 c-16 -4 -32 -7 -38 -7 -5 0 -22 3 -37 7 l-28 6 0 -66z"/>
 <path d="M180 165 c0 -63 1 -65 25 -65 24 0 25 2 25 65 0 63 -1 65 -25 65 -24 0 -25 -2 -25 -65z"/>
 <path d="M260 125 c0 -20 5 -25 25 -25 20 0 25 5 25 25 0 20 -5 25 -25 25 -20 0 -25 -5 -25 -25z"/>
 <path d="M20 45 c0 -20 5 -25 25 -25 20 0 25 5 25 25 0 20 -5 25 -25 25 -20 0 -25 -5 -25 -25z"/>
 <path d="M100 35 l0 -35 65 0 65 0 0 35 0 35 -65 0 -65 0 0 -35z"/>
 <path d="M260 45 c0 -20 5 -25 25 -25 20 0 25 5 25 25 0 20 -5 25 -25 25 -20 0 -25 -5 -25 -25z"/>
 </g>
<g id="layer111" fill="#b1f9ff" stroke="none">
 <path d="M100 309 c0 -5 5 -7 10 -4 6 3 10 8 10 11 0 2 -4 4 -10 4 -5 0 -10 -5 -10 -11z"/>
 <path d="M184 290 c-1 -25 3 -30 22 -30 20 0 24 5 24 30 0 24 -4 30 -22 30 -19 0 -23 -6 -24 -30z"/>
 <path d="M22 298 c7 -20 48 -23 48 -4 0 11 -9 16 -26 16 -16 0 -24 -5 -22 -12z"/>
 <path d="M260 245 c0 -63 1 -65 25 -65 20 0 25 5 25 25 0 14 -4 25 -10 25 -14 0 -12 54 2 68 9 9 6 12 -15 12 -27 0 -27 -1 -27 -65z"/>
 <path d="M20 165 l0 -65 65 0 65 0 0 65 c0 36 -4 65 -9 65 -5 0 -19 -12 -31 -27 l-20 -26 -28 26 c-16 15 -31 27 -35 27 -4 0 -7 -29 -7 -65z"/>
 <path d="M180 165 c0 -63 1 -65 25 -65 24 0 25 2 25 65 0 63 -1 65 -25 65 -24 0 -25 -2 -25 -65z"/>
 <path d="M260 125 c0 -20 5 -25 25 -25 20 0 25 5 25 25 0 20 -5 25 -25 25 -20 0 -25 -5 -25 -25z"/>
 <path d="M20 45 c0 -20 5 -25 25 -25 20 0 25 5 25 25 0 20 -5 25 -25 25 -20 0 -25 -5 -25 -25z"/>
 <path d="M100 35 c0 -37 9 -42 40 -23 15 10 22 10 32 0 6 -6 22 -12 35 -12 20 0 23 5 23 35 l0 35 -65 0 -65 0 0 -35z"/>
 <path d="M260 45 c0 -20 5 -25 25 -25 20 0 25 5 25 25 0 20 -5 25 -25 25 -20 0 -25 -5 -25 -25z"/>
 </g>
<g id="layer112" fill="#cfffff" stroke="none">
 <path d="M213 290 c0 -16 4 -30 9 -30 4 0 8 14 8 30 0 17 -4 30 -8 30 -5 0 -9 -13 -9 -30z"/>
 <path d="M260 300 c0 -7 3 -10 7 -7 3 4 3 10 0 14 -4 3 -7 0 -7 -7z"/>
 <path d="M21 143 c0 -36 3 -43 9 -28 12 28 12 75 0 75 -5 0 -10 -21 -9 -47z"/>
 <path d="M278 183 c6 -2 18 -2 25 0 6 3 1 5 -13 5 -14 0 -19 -2 -12 -5z"/>
 <path d="M180 125 c0 -20 5 -25 25 -25 20 0 25 5 25 25 0 20 -5 25 -25 25 -20 0 -25 -5 -25 -25z"/>
 <path d="M260 125 c0 -20 5 -25 25 -25 20 0 25 5 25 25 0 20 -5 25 -25 25 -20 0 -25 -5 -25 -25z"/>
 <path d="M112 120 c-49 -11 -51 -20 -4 -20 31 0 42 4 42 15 0 8 -1 15 -2 14 -2 -1 -18 -5 -36 -9z"/>
 <path d="M20 45 c0 -20 5 -25 25 -25 20 0 25 5 25 25 0 20 -5 25 -25 25 -20 0 -25 -5 -25 -25z"/>
 <path d="M100 45 c0 -22 3 -24 19 -15 30 16 60 12 73 -10 20 -32 38 -24 38 15 l0 35 -65 0 c-63 0 -65 -1 -65 -25z"/>
 <path d="M260 45 c0 -20 5 -25 25 -25 20 0 25 5 25 25 0 20 -5 25 -25 25 -20 0 -25 -5 -25 -25z"/>
 </g>
<g id="layer113" fill="#efffff" stroke="none">
 <path d="M272 138 c-20 -20 -14 -38 13 -38 20 0 25 5 25 25 0 27 -18 33 -38 13z"/>
 <path d="M180 110 c0 -5 11 -10 25 -10 14 0 25 5 25 10 0 6 -11 10 -25 10 -14 0 -25 -4 -25 -10z"/>
 <path d="M165 58 c11 -6 30 -20 43 -31 l22 -20 0 31 c0 31 -1 32 -42 32 -37 -1 -40 -2 -23 -12z"/>
 <path d="M260 45 c0 -30 15 -33 30 -6 14 27 13 31 -10 31 -15 0 -20 -7 -20 -25z"/>
 <path d="M53 53 c-18 -7 -16 -33 2 -33 8 0 15 9 15 20 0 11 -1 20 -2 19 -2 0 -9 -3 -15 -6z"/>
 </g>

</svg>