<!DOCTYPE svg PUBLIC "-//W3C//DTD SVG 20010904//EN" "http://www.w3.org/TR/2001/REC-SVG-20010904/DTD/svg10.dtd">
<svg version="1.0" xmlns="http://www.w3.org/2000/svg" width="64px" height="64px" viewBox="0 0 640 640" preserveAspectRatio="xMidYMid meet">
<g id="layer101" fill="#140800" stroke="none">
 <path d="M0 320 l0 -320 320 0 320 0 0 320 0 320 -320 0 -320 0 0 -320z"/>
 </g>
<g id="layer102" fill="#2c1906" stroke="none">
 <path d="M20 580 l0 -50 45 0 45 0 0 50 0 50 -45 0 -45 0 0 -50z"/>
 <path d="M140 580 l0 -50 50 0 50 0 0 50 0 50 -50 0 -50 0 0 -50z"/>
 <path d="M270 580 l0 -50 50 0 50 0 0 50 0 50 -50 0 -50 0 0 -50z"/>
 <path d="M400 580 l0 -50 50 0 50 0 0 50 0 50 -50 0 -50 0 0 -50z"/>
 <path d="M530 580 l0 -50 50 0 50 0 0 50 0 50 -50 0 -50 0 0 -50z"/>
 <path d="M20 450 l0 -50 45 0 45 0 0 50 0 50 -45 0 -45 0 0 -50z"/>
 <path d="M140 450 l0 -50 50 0 50 0 0 50 0 50 -50 0 -50 0 0 -50z"/>
 <path d="M270 450 l0 -50 50 0 50 0 0 50 0 50 -50 0 -50 0 0 -50z"/>
 <path d="M400 450 l0 -50 50 0 50 0 0 50 0 50 -50 0 -50 0 0 -50z"/>
 <path d="M530 450 l0 -50 50 0 50 0 0 50 0 50 -50 0 -50 0 0 -50z"/>
 <path d="M20 320 l0 -50 45 0 45 0 0 50 0 50 -45 0 -45 0 0 -50z"/>
 <path d="M140 320 l0 -50 50 0 50 0 0 50 0 50 -50 0 -50 0 0 -50z"/>
 <path d="M270 320 l0 -50 50 0 50 0 0 50 0 50 -50 0 -50 0 0 -50z"/>
 <path d="M400 320 l0 -50 50 0 50 0 0 50 0 50 -50 0 -50 0 0 -50z"/>
 <path d="M530 320 l0 -50 50 0 50 0 0 50 0 50 -50 0 -50 0 0 -50z"/>
 <path d="M20 190 l0 -50 45 0 45 0 0 50 0 50 -45 0 -45 0 0 -50z"/>
 <path d="M140 190 l0 -50 50 0 50 0 0 50 0 50 -50 0 -50 0 0 -50z"/>
 <path d="M270 190 c0 -56 19 -68 38 -25 13 27 31 32 50 13 9 -9 12 -4 12 25 l0 37 -50 0 -50 0 0 -50z"/>
 <path d="M400 190 l0 -50 50 0 50 0 0 50 0 50 -50 0 -50 0 0 -50z"/>
 <path d="M616 224 c-5 -13 -15 -15 -46 -10 l-40 6 0 -40 0 -40 50 0 50 0 0 50 c0 52 -4 61 -14 34z"/>
 <path d="M20 65 l0 -45 45 0 45 0 0 45 0 45 -45 0 -45 0 0 -45z"/>
 <path d="M140 65 l0 -45 50 0 50 0 0 45 0 45 -50 0 -50 0 0 -45z"/>
 <path d="M270 65 l0 -45 50 0 50 0 0 45 0 45 -50 0 -50 0 0 -45z"/>
 <path d="M400 65 l0 -45 50 0 c28 0 50 4 50 10 0 5 -6 7 -12 5 -7 -3 -20 -1 -28 5 -12 7 -13 15 -3 40 11 30 11 30 -23 30 -34 0 -34 0 -34 -45z"/>
 <path d="M530 65 l0 -45 50 0 50 0 0 45 0 45 -50 0 -50 0 0 -45z"/>
 </g>
<g id="layer103" fill="#3a2713" stroke="none">
 <path d="M20 580 l0 -50 45 0 45 0 0 50 0 50 -45 0 -45 0 0 -50z"/>
 <path d="M140 580 l0 -50 50 0 50 0 0 50 0 50 -50 0 -50 0 0 -50z"/>
 <path d="M270 580 l0 -50 50 0 50 0 0 50 0 50 -50 0 -50 0 0 -50z"/>
 <path d="M400 580 l0 -50 50 0 50 0 0 50 0 50 -50 0 -50 0 0 -50z"/>
 <path d="M530 580 l0 -50 50 0 50 0 0 50 0 50 -50 0 -50 0 0 -50z"/>
 <path d="M20 450 l0 -50 45 0 45 0 0 50 0 50 -45 0 -45 0 0 -50z"/>
 <path d="M140 450 l0 -50 50 0 50 0 0 50 0 50 -50 0 -50 0 0 -50z"/>
 <path d="M270 450 l0 -50 50 0 50 0 0 50 0 50 -50 0 -50 0 0 -50z"/>
 <path d="M400 450 l0 -50 50 0 50 0 0 50 0 50 -50 0 -50 0 0 -50z"/>
 <path d="M530 450 l0 -50 50 0 50 0 0 50 0 50 -50 0 -50 0 0 -50z"/>
 <path d="M20 320 l0 -50 45 0 45 0 0 50 0 50 -45 0 -45 0 0 -50z"/>
 <path d="M140 320 l0 -50 50 0 50 0 0 50 0 50 -50 0 -50 0 0 -50z"/>
 <path d="M270 320 l0 -50 50 0 50 0 0 50 0 50 -50 0 -50 0 0 -50z"/>
 <path d="M400 320 l0 -50 50 0 50 0 0 50 0 50 -50 0 -50 0 0 -50z"/>
 <path d="M530 320 c0 -72 15 -70 85 13 25 29 17 37 -35 37 l-50 0 0 -50z"/>
 <path d="M20 190 l0 -50 45 0 45 0 0 50 0 50 -45 0 -45 0 0 -50z"/>
 <path d="M140 190 c0 -49 1 -50 30 -50 21 0 30 5 30 16 0 11 6 14 20 9 18 -6 20 -2 20 34 l0 41 -50 0 -50 0 0 -50z"/>
 <path d="M270 203 l1 -38 23 28 c18 23 28 27 49 22 21 -6 27 -4 27 9 0 13 -11 16 -50 16 l-50 0 0 -37z"/>
 <path d="M400 210 c0 -19 7 -33 20 -40 17 -9 20 -8 20 9 0 11 12 29 28 40 l27 20 -47 1 c-47 0 -48 -1 -48 -30z"/>
 <path d="M606 185 c-10 -8 -23 -12 -28 -9 -14 9 -48 -6 -48 -21 0 -10 14 -14 50 -13 48 1 50 3 50 30 0 32 1 32 -24 13z"/>
 <path d="M20 65 c0 -41 2 -45 25 -45 16 0 23 5 19 13 -2 7 7 24 21 37 35 33 32 40 -20 40 l-45 0 0 -45z"/>
 <path d="M145 65 l0 -45 48 0 47 0 0 39 c0 43 -10 51 -63 51 -31 0 -32 -1 -32 -45z"/>
 <path d="M270 66 l0 -46 51 0 50 0 -3 43 -3 42 -47 3 -48 3 0 -45z"/>
 <path d="M620 97 c0 -18 -43 -57 -63 -57 -9 0 -19 -4 -22 -10 -4 -6 13 -10 44 -10 l51 0 0 45 c0 25 -2 45 -5 45 -3 0 -5 -6 -5 -13z"/>
 <path d="M401 53 c-1 -24 3 -33 15 -33 12 0 14 3 6 13 -5 6 -12 21 -15 32 -3 13 -5 9 -6 -12z"/>
 </g>
<g id="layer104" fill="#44321e" stroke="none">
 <path d="M20 580 l0 -50 45 0 45 0 0 50 0 50 -45 0 -45 0 0 -50z"/>
 <path d="M140 580 l0 -50 50 0 50 0 0 50 0 50 -50 0 -50 0 0 -50z"/>
 <path d="M270 580 l0 -50 50 0 50 0 0 50 0 50 -50 0 -50 0 0 -50z"/>
 <path d="M400 579 c0 -43 2 -49 14 -40 10 8 21 8 40 1 43 -16 46 -13 46 40 l0 50 -50 0 -50 0 0 -51z"/>
 <path d="M530 580 l0 -50 50 0 50 0 0 50 0 50 -50 0 -50 0 0 -50z"/>
 <path d="M20 450 l0 -50 45 0 45 0 0 50 0 50 -45 0 -45 0 0 -50z"/>
 <path d="M140 450 l0 -50 50 0 50 0 0 50 0 50 -50 0 -50 0 0 -50z"/>
 <path d="M270 450 l0 -50 50 0 50 0 0 50 0 50 -50 0 -50 0 0 -50z"/>
 <path d="M400 450 l0 -50 50 0 50 0 0 50 c0 52 -6 58 -42 39 -14 -8 -23 -8 -31 0 -21 21 -27 11 -27 -39z"/>
 <path d="M530 450 l0 -50 50 0 50 0 0 50 0 50 -50 0 -50 0 0 -50z"/>
 <path d="M22 320 l-2 -50 45 0 45 0 0 50 0 50 -43 0 -43 0 -2 -50z"/>
 <path d="M140 320 l0 -50 50 0 50 0 0 50 0 50 -50 0 -50 0 0 -50z"/>
 <path d="M270 320 l0 -50 50 0 50 0 0 50 0 50 -50 0 -50 0 0 -50z"/>
 <path d="M400 319 l0 -50 48 3 47 3 3 48 3 47 -50 0 -51 0 0 -51z"/>
 <path d="M530 329 c0 -45 17 -49 37 -8 7 13 25 29 40 36 27 11 25 12 -24 13 l-53 0 0 -41z"/>
 <path d="M26 224 c-3 -9 -6 -31 -6 -50 0 -34 0 -34 45 -34 l45 0 0 50 0 50 -39 0 c-26 0 -41 -5 -45 -16z"/>
 <path d="M140 190 c0 -27 5 -50 10 -50 6 0 10 7 10 15 0 19 37 38 61 32 15 -4 19 0 19 24 0 28 -1 29 -50 29 l-50 0 0 -50z"/>
 <path d="M270 214 c0 -28 15 -25 23 6 3 13 0 20 -9 20 -8 0 -14 -10 -14 -26z"/>
 <path d="M330 236 c0 -2 9 -6 20 -9 11 -3 20 -1 20 4 0 5 -9 9 -20 9 -11 0 -20 -2 -20 -4z"/>
 <path d="M400 225 c0 -19 19 -19 44 0 19 14 18 15 -12 15 -22 0 -32 -5 -32 -15z"/>
 <path d="M620 160 c0 -7 3 -10 7 -7 3 4 3 10 0 14 -4 3 -7 0 -7 -7z"/>
 <path d="M20 65 c0 -48 14 -59 30 -23 5 13 17 33 26 46 16 22 16 22 -20 22 l-36 0 0 -45z"/>
 <path d="M283 103 c-8 -2 -13 -22 -13 -44 l0 -39 50 0 50 0 0 34 c0 29 -4 36 -31 45 -34 12 -37 12 -56 4z"/>
 <path d="M205 68 c-29 -11 -45 -25 -45 -40 0 -5 18 -8 40 -8 38 0 40 2 40 30 0 17 -1 30 -2 29 -2 0 -16 -5 -33 -11z"/>
 <path d="M607 52 c-22 -24 -21 -32 3 -32 15 0 20 7 20 25 0 30 -2 30 -23 7z"/>
 </g>
<g id="layer105" fill="#4d3b27" stroke="none">
 <path d="M53 612 c-26 -14 -33 -23 -33 -49 0 -32 1 -33 45 -33 l45 0 0 50 c0 55 -6 59 -57 32z"/>
 <path d="M170 615 c0 -9 -7 -18 -15 -21 -9 -4 -15 -19 -15 -35 0 -28 2 -29 50 -29 l50 0 0 50 0 50 -35 0 c-25 0 -35 -4 -35 -15z"/>
 <path d="M270 580 l0 -50 50 0 50 0 0 50 0 50 -50 0 -50 0 0 -50z"/>
 <path d="M400 598 c0 -33 1 -33 48 -33 43 0 47 2 50 26 3 22 -2 27 -29 33 -61 12 -69 9 -69 -26z"/>
 <path d="M530 580 l0 -50 50 0 50 0 0 50 0 50 -50 0 -50 0 0 -50z"/>
 <path d="M20 450 l0 -50 45 0 45 0 0 50 0 50 -45 0 -45 0 0 -50z"/>
 <path d="M140 450 l0 -50 50 0 50 0 0 50 0 50 -50 0 -50 0 0 -50z"/>
 <path d="M270 450 l0 -50 50 0 50 0 0 50 0 50 -50 0 -50 0 0 -50z"/>
 <path d="M530 450 l0 -50 50 0 50 0 0 50 0 50 -50 0 -50 0 0 -50z"/>
 <path d="M400 448 l0 -48 50 0 50 0 0 45 c0 48 -12 58 -30 25 -14 -26 -27 -25 -51 3 l-18 22 -1 -47z"/>
 <path d="M74 362 c3 -5 -6 -19 -19 -30 -14 -12 -25 -31 -25 -42 0 -17 7 -20 40 -20 l40 0 0 50 c0 44 -3 50 -21 50 -11 0 -18 -4 -15 -8z"/>
 <path d="M140 320 l0 -50 50 0 50 0 0 50 0 50 -50 0 -50 0 0 -50z"/>
 <path d="M270 320 l0 -50 50 0 50 0 0 50 0 50 -50 0 -50 0 0 -50z"/>
 <path d="M400 345 c0 -41 21 -75 47 -75 27 0 30 12 7 34 -19 20 -10 36 22 36 15 0 24 6 24 15 0 11 -12 15 -50 15 -46 0 -50 -2 -50 -25z"/>
 <path d="M558 363 c6 -2 18 -2 25 0 6 3 1 5 -13 5 -14 0 -19 -2 -12 -5z"/>
 <path d="M33 213 c-7 -15 -13 -37 -13 -50 0 -21 5 -23 45 -23 43 0 45 2 45 28 -1 30 -31 72 -52 72 -7 0 -19 -12 -25 -27z"/>
 <path d="M140 214 c0 -24 3 -26 28 -19 15 3 37 7 50 7 15 0 22 6 22 19 0 16 -8 19 -50 19 -47 0 -50 -1 -50 -26z"/>
 <path d="M270 230 c0 -7 3 -10 7 -7 3 4 3 10 0 14 -4 3 -7 0 -7 -7z"/>
 <path d="M20 63 l1 -48 16 30 c8 17 22 38 31 48 14 16 13 17 -16 17 -31 0 -32 -1 -32 -47z"/>
 <path d="M288 93 c-13 -3 -18 -14 -18 -39 l0 -34 50 0 c46 0 50 2 50 24 0 35 -41 60 -82 49z"/>
 <path d="M200 48 l-35 -23 33 -3 c40 -4 45 -1 40 27 l-3 21 -35 -22z"/>
 <path d="M610 35 c-10 -12 -10 -15 4 -15 9 0 16 7 16 15 0 8 -2 15 -4 15 -2 0 -9 -7 -16 -15z"/>
 </g>
<g id="layer106" fill="#594733" stroke="none">
 <path d="M187 609 c-3 -11 -15 -23 -26 -26 -14 -3 -21 -13 -21 -29 0 -22 4 -24 50 -24 l50 0 0 50 c0 46 -2 50 -24 50 -16 0 -26 -7 -29 -21z"/>
 <path d="M270 580 l0 -50 50 0 50 0 0 50 0 50 -50 0 -50 0 0 -50z"/>
 <path d="M543 622 c-8 -5 -10 -22 -6 -50 l6 -42 43 0 c40 0 44 2 44 25 0 43 -21 75 -49 75 -14 0 -31 -4 -38 -8z"/>
 <path d="M400 606 c0 -9 16 -17 41 -21 53 -9 73 8 28 24 -43 15 -69 14 -69 -3z"/>
 <path d="M20 560 c0 -29 2 -30 45 -30 41 0 45 2 45 24 0 26 -16 36 -61 36 -26 0 -29 -4 -29 -30z"/>
 <path d="M20 450 l0 -50 45 0 45 0 0 50 0 50 -45 0 -45 0 0 -50z"/>
 <path d="M140 450 l0 -50 50 0 50 0 0 50 0 50 -50 0 -50 0 0 -50z"/>
 <path d="M270 450 l0 -50 50 0 50 0 0 50 0 50 -50 0 -50 0 0 -50z"/>
 <path d="M530 482 c0 -10 5 -23 11 -29 8 -8 8 -17 0 -32 -11 -20 -9 -21 39 -21 l50 0 0 50 0 50 -50 0 c-41 0 -50 -3 -50 -18z"/>
 <path d="M400 438 l0 -38 50 0 c47 0 50 2 50 25 0 29 0 29 -35 13 -24 -11 -29 -9 -46 12 l-19 25 0 -37z"/>
 <path d="M90 355 c0 -8 -11 -22 -25 -31 -14 -9 -25 -25 -25 -35 0 -15 7 -19 35 -19 l35 0 0 50 c0 28 -4 50 -10 50 -5 0 -10 -7 -10 -15z"/>
 <path d="M140 320 l0 -50 50 0 50 0 0 50 0 50 -50 0 -50 0 0 -50z"/>
 <path d="M273 363 c4 -3 10 -3 14 0 3 4 0 7 -7 7 -7 0 -10 -3 -7 -7z"/>
 <path d="M340 366 c0 -2 7 -9 15 -16 12 -10 15 -10 15 4 0 9 -7 16 -15 16 -8 0 -15 -2 -15 -4z"/>
 <path d="M400 349 c0 -20 1 -20 23 -6 13 8 37 17 53 20 18 2 9 5 -23 6 -48 1 -53 -1 -53 -20z"/>
 <path d="M270 305 c0 -38 5 -42 34 -20 20 15 15 29 -15 45 -17 10 -19 7 -19 -25z"/>
 <path d="M140 231 c0 -17 18 -22 59 -15 57 9 51 24 -9 24 -27 0 -50 -4 -50 -9z"/>
 <path d="M37 192 c-30 -33 -22 -52 23 -52 43 0 50 13 30 51 -13 24 -32 24 -53 1z"/>
 <path d="M43 103 c4 -3 10 -3 14 0 3 4 0 7 -7 7 -7 0 -10 -3 -7 -7z"/>
 <path d="M283 83 c-7 -2 -13 -18 -13 -34 0 -28 1 -29 50 -29 43 0 50 3 50 19 0 34 -51 59 -87 44z"/>
 <path d="M209 40 l-24 -19 28 -1 c20 0 27 5 27 20 0 25 -2 25 -31 0z"/>
 </g>
<g id="layer107" fill="#63513d" stroke="none">
 <path d="M207 610 c4 -15 -3 -23 -31 -37 -53 -25 -47 -43 14 -43 l50 0 0 50 c0 43 -3 50 -19 50 -14 0 -18 -5 -14 -20z"/>
 <path d="M270 580 l0 -50 50 0 50 0 0 50 0 50 -50 0 -50 0 0 -50z"/>
 <path d="M560 593 c0 -10 -3 -28 -6 -40 -6 -21 -3 -23 35 -23 35 0 41 3 41 21 0 22 -36 58 -57 59 -7 0 -13 -8 -13 -17z"/>
 <path d="M20 550 c0 -17 7 -20 45 -20 32 0 45 4 45 14 0 17 -22 26 -61 26 -22 0 -29 -5 -29 -20z"/>
 <path d="M20 479 c0 -25 52 -79 75 -79 11 0 15 12 15 50 l0 50 -45 0 c-39 0 -45 -3 -45 -21z"/>
 <path d="M140 450 l0 -50 50 0 50 0 0 50 0 50 -50 0 -50 0 0 -50z"/>
 <path d="M270 450 l0 -50 50 1 c46 2 50 3 50 27 0 21 -2 23 -15 12 -13 -10 -19 -10 -35 5 -23 21 -26 41 -7 48 6 3 0 6 -15 6 -27 1 -28 -1 -28 -49z"/>
 <path d="M540 492 c0 -5 7 -17 15 -28 8 -10 15 -29 15 -41 0 -16 6 -23 20 -23 24 0 40 28 40 69 0 30 -1 31 -45 31 -25 0 -45 -4 -45 -8z"/>
 <path d="M400 421 c0 -12 6 -21 15 -21 8 0 15 4 15 9 0 5 -7 14 -15 21 -13 10 -15 9 -15 -9z"/>
 <path d="M102 340 c0 -19 2 -27 5 -17 2 9 2 25 0 35 -3 9 -5 1 -5 -18z"/>
 <path d="M140 320 c0 -47 2 -50 25 -50 28 0 33 21 10 40 -28 23 -18 41 21 38 23 -2 39 2 41 10 3 8 -10 12 -46 12 l-51 0 0 -50z"/>
 <path d="M400 359 c0 -5 5 -7 10 -4 6 3 10 8 10 11 0 2 -4 4 -10 4 -5 0 -10 -5 -10 -11z"/>
 <path d="M270 300 c0 -7 3 -10 7 -7 3 4 3 10 0 14 -4 3 -7 0 -7 -7z"/>
 <path d="M168 233 c7 -3 16 -2 19 1 4 3 -2 6 -13 5 -11 0 -14 -3 -6 -6z"/>
 <path d="M37 166 c-7 -18 1 -26 25 -26 13 0 18 6 16 17 -4 22 -34 29 -41 9z"/>
 <path d="M288 73 c-11 -3 -18 -14 -18 -29 0 -22 4 -24 45 -24 49 0 55 10 25 40 -20 20 -22 21 -52 13z"/>
 <path d="M223 43 c-18 -7 -16 -23 2 -23 8 0 15 7 15 15 0 8 -1 15 -2 14 -2 0 -9 -3 -15 -6z"/>
 </g>
<g id="layer108" fill="#6d5b47" stroke="none">
 <path d="M300 616 c0 -7 -7 -19 -15 -26 -8 -7 -15 -23 -15 -36 0 -22 4 -24 44 -24 48 0 56 9 56 66 0 32 -2 34 -35 34 -23 0 -35 -5 -35 -14z"/>
 <path d="M570 565 c-14 -36 -14 -35 26 -35 27 0 35 4 32 16 -2 9 -13 23 -25 31 -21 14 -23 14 -33 -12z"/>
 <path d="M178 563 c-52 -21 -47 -33 12 -33 47 0 50 2 50 25 0 29 -10 30 -62 8z"/>
 <path d="M20 545 c0 -11 12 -15 45 -15 52 0 60 14 14 24 -47 9 -59 7 -59 -9z"/>
 <path d="M20 485 c0 -8 7 -15 15 -15 9 0 20 -10 26 -23 6 -13 19 -28 30 -35 18 -11 19 -9 19 38 l0 50 -45 0 c-33 0 -45 -4 -45 -15z"/>
 <path d="M140 450 l0 -50 50 0 50 0 0 50 0 50 -50 0 -50 0 0 -50z"/>
 <path d="M556 488 c20 -36 37 -47 55 -37 11 5 19 19 19 29 0 17 -7 20 -41 20 -29 0 -38 -3 -33 -12z"/>
 <path d="M270 425 c0 -15 6 -25 14 -25 22 0 30 19 16 35 -18 22 -30 18 -30 -10z"/>
 <path d="M400 410 c0 -7 3 -10 7 -7 3 4 3 10 0 14 -4 3 -7 0 -7 -7z"/>
 <path d="M270 40 c0 -16 7 -20 36 -20 29 0 35 3 30 16 -3 9 -6 18 -6 20 0 2 -13 4 -30 4 -23 0 -30 -4 -30 -20z"/>
 <path d="M225 30 c-3 -5 -1 -10 4 -10 6 0 11 5 11 10 0 6 -2 10 -4 10 -3 0 -8 -4 -11 -10z"/>
 </g>
<g id="layer109" fill="#796753" stroke="none">
 <path d="M312 595 c-6 -14 -16 -25 -22 -25 -5 0 -10 -7 -10 -15 0 -10 10 -15 34 -15 36 0 46 12 46 56 0 33 -33 32 -48 -1z"/>
 <path d="M180 550 c-11 -7 -7 -10 18 -10 17 0 32 5 32 10 0 13 -30 13 -50 0z"/>
 <path d="M585 550 c-4 -6 3 -10 14 -10 25 0 27 6 6 13 -8 4 -17 2 -20 -3z"/>
 <path d="M33 543 c4 -3 10 -3 14 0 3 4 0 7 -7 7 -7 0 -10 -3 -7 -7z"/>
 <path d="M156 459 c-9 -48 -9 -49 34 -49 l40 0 0 40 c0 39 -1 40 -34 40 -30 0 -34 -4 -40 -31z"/>
 <path d="M575 480 c3 -5 15 -10 26 -10 10 0 19 5 19 10 0 6 -12 10 -26 10 -14 0 -23 -4 -19 -10z"/>
 </g>

</svg>