<!DOCTYPE svg PUBLIC "-//W3C//DTD SVG 20010904//EN" "http://www.w3.org/TR/2001/REC-SVG-20010904/DTD/svg10.dtd">
<svg version="1.0" xmlns="http://www.w3.org/2000/svg" width="64px" height="64px" viewBox="0 0 640 640" preserveAspectRatio="xMidYMid meet">
<g id="layer101" fill="#376587" stroke="none">
 <path d="M0 320 l0 -320 320 0 320 0 0 320 0 320 -320 0 -320 0 0 -320z"/>
 </g>
<g id="layer102" fill="#85b3d5" stroke="none">
 <path d="M10 580 l0 -60 55 0 55 0 0 60 0 60 -55 0 -55 0 0 -60z"/>
 <path d="M130 580 l0 -60 60 0 60 0 0 60 0 60 -60 0 -60 0 0 -60z"/>
 <path d="M260 580 l0 -60 60 0 60 0 0 60 0 60 -60 0 -60 0 0 -60z"/>
 <path d="M390 580 l0 -60 60 0 60 0 0 60 0 60 -60 0 -60 0 0 -60z"/>
 <path d="M520 580 l0 -60 60 0 60 0 0 60 0 60 -60 0 -60 0 0 -60z"/>
 <path d="M10 450 l0 -60 55 0 55 0 0 60 0 60 -55 0 -55 0 0 -60z"/>
 <path d="M130 450 l0 -60 60 0 60 0 0 60 0 60 -60 0 -60 0 0 -60z"/>
 <path d="M260 450 l0 -60 60 0 60 0 0 60 0 60 -60 0 -60 0 0 -60z"/>
 <path d="M390 450 l0 -60 60 0 60 0 0 60 0 60 -60 0 -60 0 0 -60z"/>
 <path d="M520 450 l0 -60 60 0 60 0 0 60 0 60 -60 0 -60 0 0 -60z"/>
 <path d="M10 320 l0 -60 55 0 55 0 0 60 0 60 -55 0 -55 0 0 -60z"/>
 <path d="M130 320 l0 -60 60 0 60 0 0 60 0 60 -60 0 -60 0 0 -60z"/>
 <path d="M260 320 l0 -60 60 0 60 0 0 60 0 60 -60 0 -60 0 0 -60z"/>
 <path d="M390 320 l0 -60 60 0 60 0 0 60 0 60 -60 0 -60 0 0 -60z"/>
 <path d="M520 320 l0 -60 60 0 60 0 0 60 0 60 -60 0 -60 0 0 -60z"/>
 <path d="M10 190 l0 -60 55 0 55 0 0 60 0 60 -55 0 -55 0 0 -60z"/>
 <path d="M130 190 l0 -60 60 0 60 0 0 60 0 60 -60 0 -60 0 0 -60z"/>
 <path d="M260 190 l0 -60 60 0 60 0 0 60 0 60 -60 0 -60 0 0 -60z"/>
 <path d="M390 190 l0 -60 60 0 60 0 0 60 0 60 -60 0 -60 0 0 -60z"/>
 <path d="M520 190 l0 -60 60 0 60 0 0 60 0 60 -60 0 -60 0 0 -60z"/>
 <path d="M10 65 l0 -55 55 0 55 0 0 55 0 55 -55 0 -55 0 0 -55z"/>
 <path d="M130 65 l0 -55 60 0 60 0 0 55 0 55 -60 0 -60 0 0 -55z"/>
 <path d="M260 65 l0 -55 60 0 60 0 0 55 0 55 -60 0 -60 0 0 -55z"/>
 <path d="M390 65 l0 -55 60 0 60 0 0 55 0 55 -60 0 -60 0 0 -55z"/>
 <path d="M520 65 l0 -55 60 0 60 0 0 55 0 55 -60 0 -60 0 0 -55z"/>
 </g>
<g id="layer103" fill="#91bfe1" stroke="none">
 <path d="M20 580 l0 -50 45 0 45 0 0 50 0 50 -45 0 -45 0 0 -50z"/>
 <path d="M140 580 l0 -50 50 0 50 0 0 50 0 50 -50 0 -50 0 0 -50z"/>
 <path d="M270 580 l0 -50 50 0 50 0 0 50 0 50 -50 0 -50 0 0 -50z"/>
 <path d="M400 580 l0 -50 50 0 50 0 0 50 0 50 -50 0 -50 0 0 -50z"/>
 <path d="M530 580 l0 -50 50 0 50 0 0 50 0 50 -50 0 -50 0 0 -50z"/>
 <path d="M20 450 l0 -50 45 0 45 0 0 50 0 50 -45 0 -45 0 0 -50z"/>
 <path d="M140 450 l0 -50 50 0 50 0 0 50 0 50 -50 0 -50 0 0 -50z"/>
 <path d="M270 450 l0 -50 50 0 50 0 0 50 0 50 -50 0 -50 0 0 -50z"/>
 <path d="M400 450 l0 -50 50 0 50 0 0 50 0 50 -50 0 -50 0 0 -50z"/>
 <path d="M530 450 l0 -50 50 0 50 0 0 50 0 50 -50 0 -50 0 0 -50z"/>
 <path d="M20 320 l0 -50 45 0 45 0 0 50 0 50 -45 0 -45 0 0 -50z"/>
 <path d="M140 320 l0 -50 50 0 50 0 0 50 0 50 -50 0 -50 0 0 -50z"/>
 <path d="M270 320 l0 -50 50 0 50 0 0 50 0 50 -50 0 -50 0 0 -50z"/>
 <path d="M400 320 l0 -50 50 0 50 0 0 50 0 50 -50 0 -50 0 0 -50z"/>
 <path d="M530 320 l0 -50 50 0 50 0 0 50 0 50 -50 0 -50 0 0 -50z"/>
 <path d="M20 190 l0 -50 45 0 45 0 0 50 0 50 -45 0 -45 0 0 -50z"/>
 <path d="M140 190 l0 -50 50 0 50 0 0 50 0 50 -50 0 -50 0 0 -50z"/>
 <path d="M270 190 c0 -38 4 -50 15 -50 8 0 15 6 15 14 0 27 29 47 51 36 17 -10 19 -7 19 20 0 29 -1 30 -50 30 l-50 0 0 -50z"/>
 <path d="M402 193 l3 -48 48 -3 47 -3 0 50 0 51 -51 0 -50 0 3 -47z"/>
 <path d="M615 220 c-3 -5 -24 -10 -46 -10 -38 0 -39 -1 -39 -35 l0 -35 50 0 50 0 0 45 c0 45 -4 54 -15 35z"/>
 <path d="M20 65 l0 -45 45 0 45 0 0 45 0 45 -45 0 -45 0 0 -45z"/>
 <path d="M140 65 l0 -45 50 0 50 0 0 45 0 45 -50 0 -50 0 0 -45z"/>
 <path d="M270 65 l0 -45 50 0 50 0 0 45 0 45 -50 0 -50 0 0 -45z"/>
 <path d="M400 65 l0 -45 53 1 c49 1 50 1 20 10 -36 10 -38 15 -23 53 9 24 8 26 -20 26 -29 0 -30 -2 -30 -45z"/>
 <path d="M530 65 l0 -45 50 0 50 0 0 45 0 45 -50 0 -50 0 0 -45z"/>
 </g>
<g id="layer104" fill="#9ac8ea" stroke="none">
 <path d="M20 580 l0 -50 45 0 45 0 0 50 0 50 -45 0 -45 0 0 -50z"/>
 <path d="M140 580 l0 -50 50 0 50 0 0 50 0 50 -50 0 -50 0 0 -50z"/>
 <path d="M270 580 l0 -50 50 0 50 0 0 50 0 50 -50 0 -50 0 0 -50z"/>
 <path d="M400 580 l0 -50 50 0 50 0 0 50 0 50 -50 0 -50 0 0 -50z"/>
 <path d="M530 580 l0 -50 50 0 50 0 0 50 0 50 -50 0 -50 0 0 -50z"/>
 <path d="M20 450 l0 -50 45 0 45 0 0 50 0 50 -45 0 -45 0 0 -50z"/>
 <path d="M140 450 l0 -50 50 0 50 0 0 50 0 50 -50 0 -50 0 0 -50z"/>
 <path d="M270 450 l0 -50 50 0 50 0 0 50 0 50 -50 0 -50 0 0 -50z"/>
 <path d="M400 450 l0 -50 50 0 50 0 0 50 0 50 -50 0 -50 0 0 -50z"/>
 <path d="M530 450 l0 -50 50 0 50 0 0 50 0 50 -50 0 -50 0 0 -50z"/>
 <path d="M20 320 l0 -50 45 0 45 0 0 50 0 50 -45 0 -45 0 0 -50z"/>
 <path d="M140 320 l0 -50 50 0 50 0 0 50 0 50 -50 0 -50 0 0 -50z"/>
 <path d="M270 320 l0 -50 50 0 50 0 0 50 0 50 -50 0 -50 0 0 -50z"/>
 <path d="M400 320 l0 -50 50 0 50 0 0 50 0 50 -50 0 -50 0 0 -50z"/>
 <path d="M530 320 c0 -46 2 -50 24 -50 13 0 29 7 36 15 7 9 19 14 27 11 9 -4 13 5 13 34 l0 40 -50 0 -50 0 0 -50z"/>
 <path d="M20 190 l0 -50 45 0 45 0 0 50 0 50 -45 0 -45 0 0 -50z"/>
 <path d="M140 189 l0 -50 48 3 47 3 3 48 3 47 -50 0 -51 0 0 -51z"/>
 <path d="M270 198 l1 -43 23 29 c19 23 29 27 50 22 22 -5 26 -3 26 14 0 17 -7 20 -50 20 l-50 0 0 -42z"/>
 <path d="M400 208 c1 -39 20 -68 45 -68 12 0 16 6 12 20 -3 13 4 31 20 50 l25 30 -51 0 c-51 0 -51 0 -51 -32z"/>
 <path d="M573 193 c-38 -4 -43 -7 -43 -29 0 -22 4 -24 50 -24 49 0 50 1 50 30 0 17 -3 29 -7 28 -5 -1 -27 -3 -50 -5z"/>
 <path d="M20 65 l0 -45 48 1 c26 1 37 4 25 6 -28 5 -29 18 -3 40 33 29 25 43 -25 43 l-45 0 0 -45z"/>
 <path d="M140 65 l0 -45 50 0 50 0 0 45 0 45 -50 0 -50 0 0 -45z"/>
 <path d="M270 65 l0 -45 50 0 50 0 0 45 0 45 -50 0 -50 0 0 -45z"/>
 <path d="M530 65 l0 -45 50 0 50 0 -1 48 c0 46 -1 46 -16 25 -19 -28 -34 -29 -51 -3 -20 32 -32 23 -32 -25z"/>
 <path d="M400 55 c0 -32 3 -35 28 -35 23 1 24 2 10 11 -10 5 -18 21 -18 34 0 14 -4 25 -10 25 -5 0 -10 -16 -10 -35z"/>
 </g>
<g id="layer105" fill="#abd9fa" stroke="none">
 <path d="M20 580 l0 -50 45 0 45 0 0 50 0 50 -45 0 -45 0 0 -50z"/>
 <path d="M140 580 l0 -50 50 0 50 0 0 50 0 50 -50 0 -50 0 0 -50z"/>
 <path d="M270 580 l0 -50 50 0 50 0 0 50 0 50 -50 0 -50 0 0 -50z"/>
 <path d="M400 582 l0 -48 50 -2 50 -2 0 50 0 50 -50 0 -50 0 0 -48z"/>
 <path d="M530 580 l0 -50 50 0 50 0 0 50 0 50 -50 0 -50 0 0 -50z"/>
 <path d="M20 450 l0 -50 45 0 45 0 0 50 0 50 -45 0 -45 0 0 -50z"/>
 <path d="M140 450 l0 -50 50 0 50 0 0 50 0 50 -50 0 -50 0 0 -50z"/>
 <path d="M270 450 l0 -50 50 0 50 0 0 50 0 50 -50 0 -50 0 0 -50z"/>
 <path d="M400 448 l0 -48 50 0 50 0 0 49 0 50 -50 -1 -50 -1 0 -49z"/>
 <path d="M530 450 l0 -50 50 0 50 0 0 50 0 50 -50 0 -50 0 0 -50z"/>
 <path d="M20 320 l0 -50 45 0 45 0 0 50 0 50 -45 0 -45 0 0 -50z"/>
 <path d="M140 320 l0 -50 50 0 50 0 0 50 0 50 -50 0 -50 0 0 -50z"/>
 <path d="M270 320 l0 -50 50 0 50 0 0 50 0 50 -50 0 -50 0 0 -50z"/>
 <path d="M400 320 l0 -50 50 0 50 0 0 50 0 50 -50 0 -50 0 0 -50z"/>
 <path d="M530 330 c0 -34 3 -40 21 -40 13 0 23 10 30 30 7 19 18 30 30 30 10 0 19 5 19 10 0 6 -22 10 -50 10 l-50 0 0 -40z"/>
 <path d="M20 190 l0 -50 45 0 45 0 0 50 0 50 -45 0 -45 0 0 -50z"/>
 <path d="M140 190 c0 -54 15 -66 38 -29 10 15 21 20 38 16 22 -4 24 -1 24 29 l0 34 -50 0 -50 0 0 -50z"/>
 <path d="M270 208 c1 -31 1 -32 15 -14 8 11 15 24 15 29 0 5 16 6 35 3 22 -4 35 -3 35 4 0 5 -22 10 -50 10 -50 0 -50 0 -50 -32z"/>
 <path d="M400 220 c0 -11 5 -20 11 -20 6 0 22 9 36 20 l26 20 -37 0 c-29 0 -36 -4 -36 -20z"/>
 <path d="M622 160 c0 -14 2 -19 5 -12 2 6 2 18 0 25 -3 6 -5 1 -5 -13z"/>
 <path d="M20 65 c0 -33 4 -45 15 -45 8 0 15 5 15 12 0 6 11 26 26 45 l25 33 -40 0 -41 0 0 -45z"/>
 <path d="M163 103 c4 -3 10 -3 14 0 3 4 0 7 -7 7 -7 0 -10 -3 -7 -7z"/>
 <path d="M270 65 l0 -45 50 0 50 0 0 35 c0 39 -20 55 -69 55 -30 0 -31 -1 -31 -45z"/>
 <path d="M199 73 c-16 -2 -31 -14 -37 -29 -11 -24 -11 -24 33 -24 43 0 45 1 45 30 0 17 -3 29 -7 29 -5 -1 -20 -4 -34 -6z"/>
 <path d="M600 50 l-21 -30 25 0 c22 0 26 4 26 30 0 17 -2 30 -4 30 -3 0 -14 -13 -26 -30z"/>
 </g>
<g id="layer106" fill="#b9e7ff" stroke="none">
 <path d="M53 612 c-26 -14 -33 -23 -33 -49 0 -32 1 -33 45 -33 l45 0 0 50 c0 55 -6 59 -57 32z"/>
 <path d="M171 623 c3 -21 -2 -33 -16 -33 -10 0 -15 -10 -15 -30 0 -29 1 -30 50 -30 l50 0 0 50 0 50 -35 0 c-19 0 -34 -3 -34 -7z"/>
 <path d="M270 580 l0 -50 50 0 50 0 0 50 0 50 -50 0 -50 0 0 -50z"/>
 <path d="M400 601 c0 -26 4 -29 42 -34 50 -7 58 -3 58 27 0 18 -7 25 -31 30 -59 12 -69 8 -69 -23z"/>
 <path d="M530 580 l0 -50 50 0 50 0 0 50 0 50 -50 0 -50 0 0 -50z"/>
 <path d="M20 450 l0 -50 45 0 45 0 0 50 0 50 -45 0 -45 0 0 -50z"/>
 <path d="M140 450 l0 -50 50 0 50 0 0 50 0 50 -50 0 -50 0 0 -50z"/>
 <path d="M270 450 l0 -50 50 0 50 0 0 50 0 50 -50 0 -50 0 0 -50z"/>
 <path d="M530 450 l0 -50 50 0 50 0 0 50 0 50 -50 0 -50 0 0 -50z"/>
 <path d="M401 448 l-1 -48 50 0 50 0 0 47 0 46 -23 -21 c-29 -28 -41 -28 -60 1 -15 21 -16 21 -16 -25z"/>
 <path d="M58 335 c-40 -48 -37 -65 12 -65 l40 0 0 50 c0 59 -13 63 -52 15z"/>
 <path d="M140 320 l0 -50 50 0 50 0 0 50 0 50 -50 0 -50 0 0 -50z"/>
 <path d="M270 320 l0 -50 50 0 50 0 0 50 0 50 -50 0 -50 0 0 -50z m65 20 c3 -5 1 -10 -4 -10 -6 0 -11 5 -11 10 0 6 2 10 4 10 3 0 8 -4 11 -10z"/>
 <path d="M400 340 c0 -33 11 -38 30 -15 7 8 25 15 41 15 19 0 29 5 29 15 0 11 -12 15 -50 15 -49 0 -50 -1 -50 -30z"/>
 <path d="M563 363 c4 -3 10 -3 14 0 3 4 0 7 -7 7 -7 0 -10 -3 -7 -7z"/>
 <path d="M420 291 c0 -15 6 -21 21 -21 14 0 19 5 17 17 -5 26 -38 29 -38 4z"/>
 <path d="M36 215 c-9 -13 -16 -36 -16 -50 0 -23 4 -25 45 -25 43 0 45 1 45 28 0 17 -10 37 -23 50 -29 28 -31 27 -51 -3z"/>
 <path d="M142 218 c2 -17 9 -22 23 -19 11 2 32 4 48 5 18 1 27 6 27 19 0 14 -9 17 -51 17 -47 0 -50 -2 -47 -22z"/>
 <path d="M21 63 c0 -42 1 -45 10 -23 6 14 20 35 31 47 l21 23 -31 0 c-32 0 -32 -1 -31 -47z"/>
 <path d="M270 55 l0 -35 50 0 c46 0 50 2 50 23 0 33 -19 47 -62 47 -37 0 -38 -1 -38 -35z"/>
 <path d="M208 54 c-37 -19 -35 -34 2 -34 25 0 30 4 30 25 0 14 -1 25 -2 25 -2 -1 -15 -8 -30 -16z"/>
 <path d="M616 41 c-4 -7 -5 -15 -2 -18 9 -9 19 4 14 18 -4 11 -6 11 -12 0z"/>
 </g>
<g id="layer107" fill="#cef9ff" stroke="none">
 <path d="M204 615 c4 -11 -6 -22 -29 -36 -52 -31 -46 -49 15 -49 l50 0 0 50 c0 44 -2 50 -21 50 -15 0 -19 -5 -15 -15z"/>
 <path d="M270 580 l0 -50 50 0 50 0 0 50 0 50 -50 0 -50 0 0 -50z"/>
 <path d="M557 603 c-4 -3 -7 -21 -7 -40 0 -32 1 -33 40 -33 35 0 40 3 40 23 0 38 -51 73 -73 50z"/>
 <path d="M20 556 c0 -24 3 -26 45 -26 33 0 45 4 45 14 0 19 -7 23 -53 31 -35 7 -37 6 -37 -19z"/>
 <path d="M20 478 c1 -31 30 -65 63 -73 27 -7 27 -7 27 44 l0 51 -45 0 c-40 0 -45 -2 -45 -22z"/>
 <path d="M140 450 l0 -50 50 0 50 0 0 50 0 50 -50 0 -50 0 0 -50z"/>
 <path d="M270 450 l0 -50 50 0 c47 0 50 2 50 25 0 22 -3 25 -24 19 -29 -7 -53 25 -34 44 9 9 5 12 -15 12 -26 0 -27 -2 -27 -50z"/>
 <path d="M540 486 c0 -8 5 -18 10 -21 6 -3 10 -20 10 -36 0 -28 2 -30 33 -27 31 3 32 5 35 51 l3 47 -45 0 c-33 0 -46 -4 -46 -14z"/>
 <path d="M400 425 c0 -18 5 -25 20 -25 20 0 20 1 4 25 -9 14 -18 25 -20 25 -2 0 -4 -11 -4 -25z"/>
 <path d="M470 410 c0 -5 7 -10 16 -10 8 0 12 5 9 10 -3 6 -10 10 -16 10 -5 0 -9 -4 -9 -10z"/>
 <path d="M97 341 c-4 -19 -5 -36 -2 -39 10 -11 16 7 13 40 l-3 33 -8 -34z"/>
 <path d="M140 320 c0 -49 1 -50 30 -50 35 0 37 8 10 42 -24 31 -18 39 20 28 30 -9 40 -5 40 17 0 9 -15 13 -50 13 l-50 0 0 -50z"/>
 <path d="M400 360 c0 -5 5 -10 10 -10 6 0 10 5 10 10 0 6 -4 10 -10 10 -5 0 -10 -4 -10 -10z"/>
 <path d="M232 300 c0 -14 2 -19 5 -12 2 6 2 18 0 25 -3 6 -5 1 -5 -13z"/>
 <path d="M272 300 c0 -14 2 -19 5 -12 2 6 2 18 0 25 -3 6 -5 1 -5 -13z"/>
 <path d="M158 228 c9 -9 15 -9 24 0 9 9 7 12 -12 12 -19 0 -21 -3 -12 -12z"/>
 <path d="M42 178 c-20 -20 -14 -38 14 -38 20 0 25 4 22 22 -4 26 -19 33 -36 16z"/>
 <path d="M283 73 c-7 -2 -13 -16 -13 -29 0 -22 4 -24 45 -24 49 0 58 15 27 43 -19 17 -36 20 -59 10z"/>
 <path d="M210 35 c-10 -13 -9 -15 9 -15 12 0 21 6 21 15 0 8 -4 15 -9 15 -5 0 -14 -7 -21 -15z"/>
 </g>
<g id="layer108" fill="#e3ffff" stroke="none">
 <path d="M302 590 c-30 -40 -28 -50 12 -50 36 0 46 12 46 56 0 34 -31 31 -58 -6z"/>
 <path d="M170 550 c-11 -7 -5 -10 23 -10 20 0 37 5 37 10 0 13 -40 13 -60 0z"/>
 <path d="M580 550 c0 -5 9 -10 21 -10 11 0 17 5 14 10 -3 6 -13 10 -21 10 -8 0 -14 -4 -14 -10z"/>
 <path d="M38 543 c7 -3 16 -2 19 1 4 3 -2 6 -13 5 -11 0 -14 -3 -6 -6z"/>
 <path d="M156 474 c-3 -9 -6 -27 -6 -40 0 -21 4 -24 40 -24 l40 0 0 40 c0 39 -1 40 -34 40 -22 0 -36 -6 -40 -16z"/>
 <path d="M582 474 c9 -9 21 -13 27 -10 20 13 11 26 -16 26 -25 0 -26 -1 -11 -16z"/>
 <path d="M90 440 c0 -7 3 -10 7 -7 3 4 3 10 0 14 -4 3 -7 0 -7 -7z"/>
 </g>

</svg>