<!DOCTYPE svg PUBLIC "-//W3C//DTD SVG 20010904//EN" "http://www.w3.org/TR/2001/REC-SVG-20010904/DTD/svg10.dtd">
<svg version="1.0" xmlns="http://www.w3.org/2000/svg" width="64px" height="64px" viewBox="0 0 640 640" preserveAspectRatio="xMidYMid meet">
<g id="layer101" fill="#000000" stroke="none">
 <path d="M0 320 l0 -320 320 0 320 0 0 320 0 320 -320 0 -320 0 0 -320z"/>
 </g>
<g id="layer102" fill="#515151" stroke="none">
 <path d="M10 580 l0 -60 55 0 55 0 0 60 0 60 -55 0 -55 0 0 -60z"/>
 <path d="M130 580 l0 -60 60 0 60 0 0 60 0 60 -60 0 -60 0 0 -60z"/>
 <path d="M260 580 l0 -60 60 0 60 0 0 60 0 60 -60 0 -60 0 0 -60z"/>
 <path d="M390 580 l0 -60 60 0 60 0 0 60 0 60 -60 0 -60 0 0 -60z"/>
 <path d="M520 580 l0 -60 60 0 60 0 0 60 0 60 -60 0 -60 0 0 -60z"/>
 <path d="M10 450 l0 -60 55 0 55 0 0 60 0 60 -55 0 -55 0 0 -60z"/>
 <path d="M130 450 l0 -60 60 0 60 0 0 60 0 60 -60 0 -60 0 0 -60z"/>
 <path d="M260 450 l0 -60 60 0 60 0 0 60 0 60 -60 0 -60 0 0 -60z"/>
 <path d="M390 450 l0 -60 60 0 60 0 0 60 0 60 -60 0 -60 0 0 -60z"/>
 <path d="M520 450 l0 -60 60 0 60 0 0 60 0 60 -60 0 -60 0 0 -60z"/>
 <path d="M10 320 l0 -60 55 0 55 0 0 60 0 60 -55 0 -55 0 0 -60z"/>
 <path d="M130 320 l0 -60 60 0 60 0 0 60 0 60 -60 0 -60 0 0 -60z"/>
 <path d="M260 320 l0 -60 60 0 60 0 0 60 0 60 -60 0 -60 0 0 -60z"/>
 <path d="M390 320 l0 -60 60 0 60 0 0 60 0 60 -60 0 -60 0 0 -60z"/>
 <path d="M520 320 l0 -60 60 0 60 0 0 60 0 60 -60 0 -60 0 0 -60z"/>
 <path d="M10 190 l0 -60 55 0 55 0 0 60 0 60 -55 0 -55 0 0 -60z"/>
 <path d="M130 190 l0 -60 60 0 60 0 0 60 0 60 -60 0 -60 0 0 -60z"/>
 <path d="M260 190 l0 -60 60 0 60 0 0 60 0 60 -60 0 -60 0 0 -60z"/>
 <path d="M390 190 l0 -60 60 0 60 0 0 60 0 60 -60 0 -60 0 0 -60z"/>
 <path d="M520 190 l0 -60 60 0 60 0 0 60 0 60 -60 0 -60 0 0 -60z"/>
 <path d="M10 65 l0 -55 55 0 55 0 0 55 0 55 -55 0 -55 0 0 -55z"/>
 <path d="M130 65 l0 -55 60 0 60 0 0 55 0 55 -60 0 -60 0 0 -55z"/>
 <path d="M260 65 l0 -55 60 0 60 0 0 55 0 55 -60 0 -60 0 0 -55z"/>
 <path d="M390 65 l0 -55 60 0 60 0 0 55 0 55 -60 0 -60 0 0 -55z"/>
 <path d="M520 65 l0 -55 60 0 60 0 0 55 0 55 -60 0 -60 0 0 -55z"/>
 </g>
<g id="layer103" fill="#727272" stroke="none">
 <path d="M20 580 l0 -50 45 0 45 0 0 50 0 50 -45 0 -45 0 0 -50z"/>
 <path d="M140 580 l0 -50 50 0 50 0 0 50 0 50 -50 0 -50 0 0 -50z"/>
 <path d="M270 580 l0 -50 50 0 50 0 0 50 0 50 -50 0 -50 0 0 -50z"/>
 <path d="M400 580 l0 -50 50 0 50 0 0 50 0 50 -50 0 -50 0 0 -50z"/>
 <path d="M530 580 l0 -50 50 0 50 0 0 50 0 50 -50 0 -50 0 0 -50z"/>
 <path d="M20 450 l0 -50 45 0 45 0 0 50 0 50 -45 0 -45 0 0 -50z"/>
 <path d="M140 450 l0 -50 50 0 50 0 0 50 0 50 -50 0 -50 0 0 -50z"/>
 <path d="M270 450 l0 -50 50 0 50 0 0 50 0 50 -50 0 -50 0 0 -50z"/>
 <path d="M400 450 l0 -50 50 0 50 0 0 50 0 50 -50 0 -50 0 0 -50z"/>
 <path d="M530 450 l0 -50 50 0 50 0 0 50 0 50 -50 0 -50 0 0 -50z"/>
 <path d="M20 320 l0 -50 45 0 45 0 0 50 0 50 -45 0 -45 0 0 -50z"/>
 <path d="M140 320 l0 -50 50 0 50 0 0 50 0 50 -50 0 -50 0 0 -50z"/>
 <path d="M270 320 l0 -50 50 0 50 0 0 50 0 50 -50 0 -50 0 0 -50z"/>
 <path d="M400 320 l0 -50 50 0 50 0 0 50 0 50 -50 0 -50 0 0 -50z"/>
 <path d="M530 320 c0 -42 3 -50 18 -50 21 0 82 64 82 86 0 10 -14 14 -50 14 l-50 0 0 -50z"/>
 <path d="M20 190 l0 -50 45 0 45 0 0 50 0 50 -45 0 -45 0 0 -50z"/>
 <path d="M140 190 l0 -50 35 0 c19 0 35 5 35 11 0 6 7 9 15 5 12 -4 15 4 15 39 l0 45 -50 0 -50 0 0 -50z"/>
 <path d="M270 198 l0 -43 26 32 c21 28 28 31 49 23 21 -8 25 -7 25 10 0 17 -7 20 -50 20 l-50 0 0 -42z"/>
 <path d="M400 212 c0 -26 25 -62 43 -62 4 0 7 10 7 22 0 12 10 32 22 45 l21 23 -46 0 c-45 0 -47 -1 -47 -28z"/>
 <path d="M615 190 c-3 -5 -24 -10 -46 -10 -32 0 -39 -3 -39 -20 0 -17 7 -20 50 -20 49 0 50 1 50 30 0 31 -4 37 -15 20z"/>
 <path d="M20 65 c0 -43 1 -45 29 -45 23 0 28 4 24 18 -2 10 5 26 16 36 31 28 26 36 -24 36 l-45 0 0 -45z"/>
 <path d="M143 65 l0 -45 49 0 48 0 0 45 0 45 -48 0 -49 0 0 -45z"/>
 <path d="M270 66 l0 -46 51 0 50 0 -3 43 -3 42 -47 3 -48 3 0 -45z"/>
 <path d="M620 96 c0 -17 -51 -56 -74 -56 -9 0 -16 -4 -16 -10 0 -5 23 -10 50 -10 l50 0 0 45 c0 25 -2 45 -5 45 -3 0 -5 -6 -5 -14z"/>
 <path d="M400 56 c0 -31 3 -36 23 -35 12 0 16 3 10 6 -7 2 -13 15 -13 28 0 13 -4 27 -10 30 -6 4 -10 -8 -10 -29z"/>
 <path d="M532 81 c4 -13 18 -16 19 -4 0 4 -5 9 -11 12 -7 2 -11 -2 -8 -8z"/>
 <path d="M93 23 c4 -3 10 -3 14 0 3 4 0 7 -7 7 -7 0 -10 -3 -7 -7z"/>
 </g>
<g id="layer104" fill="#909090" stroke="none">
 <path d="M184 613 c0 -10 -9 -22 -21 -28 -14 -6 -23 -19 -23 -32 0 -21 5 -23 50 -23 l50 0 0 50 c0 48 -1 50 -29 50 -21 0 -28 -5 -27 -17z"/>
 <path d="M270 580 l0 -50 50 0 50 0 0 50 0 50 -50 0 -50 0 0 -50z"/>
 <path d="M400 606 c0 -18 7 -21 50 -24 38 -2 50 0 50 11 0 9 -18 18 -50 24 -47 10 -50 9 -50 -11z"/>
 <path d="M538 623 c-1 -5 -2 -27 -2 -50 l-1 -43 48 0 c45 0 47 1 47 28 0 59 -9 72 -51 72 -22 0 -40 -3 -41 -7z"/>
 <path d="M43 593 c-18 -3 -23 -11 -23 -34 0 -28 2 -29 46 -29 45 0 45 0 42 33 -3 33 -17 40 -65 30z"/>
 <path d="M20 450 l0 -50 45 0 45 0 0 50 0 50 -45 0 -45 0 0 -50z"/>
 <path d="M140 450 l0 -50 50 0 50 0 0 50 0 50 -50 0 -50 0 0 -50z"/>
 <path d="M270 450 l0 -50 50 0 50 0 0 50 0 50 -50 0 -50 0 0 -50z"/>
 <path d="M533 450 l2 -50 48 0 47 0 0 50 0 50 -49 0 -49 0 1 -50z"/>
 <path d="M400 441 l0 -41 50 0 c49 0 50 1 50 30 0 35 -6 37 -33 13 -18 -17 -20 -17 -43 10 l-24 28 0 -40z"/>
 <path d="M90 360 c0 -6 -11 -20 -25 -32 -38 -33 -33 -58 10 -58 l35 0 0 50 c0 28 -4 50 -10 50 -5 0 -10 -5 -10 -10z"/>
 <path d="M140 320 l0 -50 50 0 50 0 0 50 0 50 -50 0 -50 0 0 -50z"/>
 <path d="M270 319 c0 -45 2 -50 18 -44 9 5 25 8 35 9 24 1 21 9 -14 35 -24 18 -28 25 -18 37 9 11 8 14 -5 14 -13 0 -16 -11 -16 -51z"/>
 <path d="M350 350 c6 -11 13 -20 15 -20 3 0 5 9 5 20 0 11 -7 20 -15 20 -13 0 -14 -4 -5 -20z"/>
 <path d="M400 350 c0 -21 15 -27 25 -10 3 6 19 10 35 10 16 0 32 5 35 10 4 6 -13 10 -44 10 -44 0 -51 -3 -51 -20z"/>
 <path d="M140 231 c0 -21 28 -33 50 -21 12 6 28 9 36 6 8 -3 14 1 14 9 0 11 -13 15 -50 15 -27 0 -50 -4 -50 -9z"/>
 <path d="M36 198 c-9 -12 -16 -31 -16 -41 0 -15 7 -18 43 -15 36 3 41 6 39 23 -4 21 -30 55 -43 55 -4 0 -15 -10 -23 -22z"/>
 <path d="M38 98 c9 -9 15 -9 24 0 9 9 7 12 -12 12 -19 0 -21 -3 -12 -12z"/>
 <path d="M277 83 c-4 -3 -7 -19 -7 -35 0 -27 2 -28 50 -28 43 0 50 3 50 19 0 34 -71 67 -93 44z"/>
 <path d="M208 46 c-25 -18 -22 -26 7 -26 18 0 25 5 25 20 0 23 -8 25 -32 6z"/>
 <path d="M620 30 c0 -7 3 -10 7 -7 3 4 3 10 0 14 -4 3 -7 0 -7 -7z"/>
 </g>
<g id="layer105" fill="#a9a9a9" stroke="none">
 <path d="M310 617 c0 -8 -9 -22 -20 -32 -11 -10 -20 -26 -20 -37 0 -14 8 -18 40 -18 35 0 42 4 51 27 16 43 8 68 -23 71 -19 2 -28 -1 -28 -11z"/>
 <path d="M173 555 c-18 -8 -33 -17 -33 -20 0 -3 23 -5 50 -5 43 0 50 3 50 20 0 24 -21 25 -67 5z"/>
 <path d="M577 563 c-17 -16 -5 -33 23 -33 19 0 30 5 30 14 0 20 -39 34 -53 19z"/>
 <path d="M20 545 c0 -11 12 -15 48 -15 50 1 43 12 -15 23 -25 5 -33 3 -33 -8z"/>
 <path d="M20 489 c0 -7 14 -8 40 -4 26 4 40 3 40 -4 0 -6 -4 -11 -9 -11 -19 0 -19 -29 0 -46 19 -17 19 -16 19 29 l0 47 -45 0 c-26 0 -45 -5 -45 -11z"/>
 <path d="M140 450 l0 -50 50 0 50 0 0 50 0 50 -50 0 -50 0 0 -50z"/>
 <path d="M560 492 c0 -15 24 -32 47 -32 16 0 23 6 23 20 0 16 -7 20 -35 20 -19 0 -35 -4 -35 -8z"/>
 <path d="M270 426 c0 -9 5 -16 10 -16 6 0 10 4 10 9 0 6 -4 13 -10 16 -5 3 -10 -1 -10 -9z"/>
 <path d="M288 53 c-28 -7 -22 -33 7 -33 15 0 25 6 25 14 0 18 -10 24 -32 19z"/>
 </g>

</svg>