<!DOCTYPE svg PUBLIC "-//W3C//DTD SVG 20010904//EN" "http://www.w3.org/TR/2001/REC-SVG-20010904/DTD/svg10.dtd">
<svg version="1.0" xmlns="http://www.w3.org/2000/svg" width="64px" height="64px" viewBox="0 0 640 640" preserveAspectRatio="xMidYMid meet">
<g id="layer101" fill="#304256" stroke="none">
 <path d="M0 320 l0 -320 320 0 320 0 0 320 0 320 -320 0 -320 0 0 -320z"/>
 </g>
<g id="layer102" fill="#7e90a4" stroke="none">
 <path d="M10 580 l0 -60 55 0 55 0 0 60 0 60 -55 0 -55 0 0 -60z"/>
 <path d="M130 580 l0 -60 60 0 60 0 0 60 0 60 -60 0 -60 0 0 -60z"/>
 <path d="M260 580 l0 -60 60 0 60 0 0 60 0 60 -60 0 -60 0 0 -60z"/>
 <path d="M390 580 l0 -60 60 0 60 0 0 60 0 60 -60 0 -60 0 0 -60z"/>
 <path d="M520 580 l0 -60 60 0 60 0 0 60 0 60 -60 0 -60 0 0 -60z"/>
 <path d="M10 450 l0 -60 55 0 55 0 0 60 0 60 -55 0 -55 0 0 -60z"/>
 <path d="M130 450 l0 -60 60 0 60 0 0 60 0 60 -60 0 -60 0 0 -60z"/>
 <path d="M260 450 l0 -60 60 0 60 0 0 60 0 60 -60 0 -60 0 0 -60z"/>
 <path d="M390 450 l0 -60 60 0 60 0 0 60 0 60 -60 0 -60 0 0 -60z"/>
 <path d="M520 450 l0 -60 60 0 60 0 0 60 0 60 -60 0 -60 0 0 -60z"/>
 <path d="M10 320 l0 -60 55 0 55 0 0 60 0 60 -55 0 -55 0 0 -60z"/>
 <path d="M130 320 l0 -60 60 0 60 0 0 60 0 60 -60 0 -60 0 0 -60z"/>
 <path d="M260 320 l0 -60 60 0 60 0 0 60 0 60 -60 0 -60 0 0 -60z"/>
 <path d="M390 320 l0 -60 60 0 60 0 0 60 0 60 -60 0 -60 0 0 -60z"/>
 <path d="M520 320 l0 -60 60 0 60 0 0 60 0 60 -60 0 -60 0 0 -60z"/>
 <path d="M10 190 l0 -60 55 0 55 0 0 60 0 60 -55 0 -55 0 0 -60z"/>
 <path d="M130 190 l0 -60 60 0 60 0 0 60 0 60 -60 0 -60 0 0 -60z"/>
 <path d="M260 190 l0 -60 60 0 60 0 0 60 0 60 -60 0 -60 0 0 -60z"/>
 <path d="M390 190 l0 -60 60 0 60 0 0 60 0 60 -60 0 -60 0 0 -60z"/>
 <path d="M520 190 l0 -60 60 0 60 0 0 60 0 60 -60 0 -60 0 0 -60z"/>
 <path d="M10 65 l0 -55 55 0 55 0 0 55 0 55 -55 0 -55 0 0 -55z"/>
 <path d="M130 65 l0 -55 60 0 60 0 0 55 0 55 -60 0 -60 0 0 -55z"/>
 <path d="M260 65 l0 -55 60 0 60 0 0 55 0 55 -60 0 -60 0 0 -55z"/>
 <path d="M390 65 l0 -55 60 0 60 0 0 55 0 55 -60 0 -60 0 0 -55z"/>
 <path d="M520 65 l0 -55 60 0 60 0 0 55 0 55 -60 0 -60 0 0 -55z"/>
 </g>
<g id="layer103" fill="#899baf" stroke="none">
 <path d="M20 580 l0 -50 45 0 45 0 0 50 0 50 -45 0 -45 0 0 -50z"/>
 <path d="M140 580 l0 -50 50 0 50 0 0 50 0 50 -50 0 -50 0 0 -50z"/>
 <path d="M270 580 l0 -50 50 0 50 0 0 50 0 50 -50 0 -50 0 0 -50z"/>
 <path d="M400 580 l0 -50 50 0 50 0 0 50 0 50 -50 0 -50 0 0 -50z"/>
 <path d="M530 580 l0 -50 50 0 50 0 0 50 0 50 -50 0 -50 0 0 -50z"/>
 <path d="M20 450 l0 -50 45 0 45 0 0 50 0 50 -45 0 -45 0 0 -50z"/>
 <path d="M140 450 l0 -50 50 0 50 0 0 50 0 50 -50 0 -50 0 0 -50z"/>
 <path d="M270 450 l0 -50 50 0 50 0 0 50 0 50 -50 0 -50 0 0 -50z"/>
 <path d="M400 450 l0 -50 50 0 50 0 0 50 0 50 -50 0 -50 0 0 -50z"/>
 <path d="M530 450 l0 -50 50 0 50 0 0 50 0 50 -50 0 -50 0 0 -50z"/>
 <path d="M20 320 l0 -50 45 0 45 0 0 50 0 50 -45 0 -45 0 0 -50z"/>
 <path d="M140 320 l0 -50 50 0 50 0 0 50 0 50 -50 0 -50 0 0 -50z"/>
 <path d="M270 320 l0 -50 50 0 50 0 0 50 0 50 -50 0 -50 0 0 -50z"/>
 <path d="M400 320 l0 -50 50 0 50 0 0 50 0 50 -50 0 -50 0 0 -50z"/>
 <path d="M530 320 l0 -50 50 0 50 0 0 50 0 50 -50 0 -50 0 0 -50z"/>
 <path d="M20 190 l0 -50 45 0 45 0 0 50 0 50 -45 0 -45 0 0 -50z"/>
 <path d="M140 190 l0 -50 50 0 50 0 0 50 0 50 -50 0 -50 0 0 -50z"/>
 <path d="M270 190 c0 -55 23 -71 34 -24 6 23 11 26 36 20 28 -5 30 -3 30 24 0 29 -1 30 -50 30 l-50 0 0 -50z"/>
 <path d="M402 193 l3 -48 48 -3 47 -3 0 50 0 51 -51 0 -50 0 3 -47z"/>
 <path d="M616 225 c-3 -10 -19 -15 -46 -15 -39 0 -40 -1 -40 -35 l0 -35 50 0 50 0 0 50 c0 52 -4 61 -14 35z"/>
 <path d="M20 65 l0 -45 45 0 45 0 0 45 0 45 -45 0 -45 0 0 -45z"/>
 <path d="M140 65 l0 -45 50 0 50 0 0 45 0 45 -50 0 -50 0 0 -45z"/>
 <path d="M270 65 l0 -45 50 0 50 0 0 45 0 45 -50 0 -50 0 0 -45z"/>
 <path d="M400 65 l0 -45 53 1 c28 1 42 4 30 6 -33 6 -47 28 -34 52 16 29 14 31 -19 31 -29 0 -30 -2 -30 -45z"/>
 <path d="M530 65 l0 -45 50 0 50 0 0 45 0 45 -50 0 -50 0 0 -45z"/>
 </g>
<g id="layer104" fill="#94a6ba" stroke="none">
 <path d="M20 580 l0 -50 45 0 45 0 0 50 0 50 -45 0 -45 0 0 -50z"/>
 <path d="M140 580 l0 -50 50 0 50 0 0 50 0 50 -50 0 -50 0 0 -50z"/>
 <path d="M270 580 l0 -50 50 0 50 0 0 50 0 50 -50 0 -50 0 0 -50z"/>
 <path d="M400 580 l0 -50 50 0 50 0 0 50 0 50 -50 0 -50 0 0 -50z"/>
 <path d="M530 580 l0 -50 50 0 50 0 0 50 0 50 -50 0 -50 0 0 -50z"/>
 <path d="M20 450 l0 -50 45 0 45 0 0 50 0 50 -45 0 -45 0 0 -50z"/>
 <path d="M140 450 l0 -50 50 0 50 0 0 50 0 50 -50 0 -50 0 0 -50z"/>
 <path d="M270 450 l0 -50 50 0 50 0 0 50 0 50 -50 0 -50 0 0 -50z"/>
 <path d="M400 450 l0 -50 50 0 50 0 0 50 0 50 -50 0 -50 0 0 -50z"/>
 <path d="M530 450 l0 -50 50 0 50 0 0 50 0 50 -50 0 -50 0 0 -50z"/>
 <path d="M20 320 l0 -50 45 0 45 0 0 50 0 50 -45 0 -45 0 0 -50z"/>
 <path d="M140 320 l0 -50 50 0 50 0 0 50 0 50 -50 0 -50 0 0 -50z"/>
 <path d="M270 320 l0 -50 50 0 50 0 0 50 0 50 -50 0 -50 0 0 -50z"/>
 <path d="M400 320 l0 -50 50 0 50 0 0 50 0 50 -50 0 -50 0 0 -50z"/>
 <path d="M530 320 c0 -46 2 -50 24 -50 13 0 29 7 36 15 7 9 19 14 27 11 9 -4 13 5 13 34 l0 40 -50 0 -50 0 0 -50z"/>
 <path d="M20 190 l0 -50 45 0 45 0 0 50 0 50 -45 0 -45 0 0 -50z"/>
 <path d="M140 189 l0 -50 48 3 47 3 3 48 3 47 -50 0 -51 0 0 -51z"/>
 <path d="M270 198 l1 -43 23 29 c19 23 29 27 50 22 22 -5 26 -3 26 14 0 17 -7 20 -50 20 l-50 0 0 -42z"/>
 <path d="M400 208 c1 -39 20 -68 45 -68 12 0 16 6 12 20 -3 13 4 31 20 50 l25 30 -51 0 c-51 0 -51 0 -51 -32z"/>
 <path d="M573 193 c-38 -4 -43 -7 -43 -29 0 -22 4 -24 50 -24 49 0 50 1 50 30 0 17 -3 29 -7 28 -5 -1 -27 -3 -50 -5z"/>
 <path d="M20 65 l0 -45 48 1 c26 1 37 4 25 6 -28 5 -29 18 -3 40 33 29 25 43 -25 43 l-45 0 0 -45z"/>
 <path d="M140 65 l0 -45 50 0 50 0 0 45 0 45 -50 0 -50 0 0 -45z"/>
 <path d="M270 65 l0 -45 50 0 50 0 0 45 0 45 -50 0 -50 0 0 -45z"/>
 <path d="M530 65 l0 -45 50 0 50 0 -1 48 c0 46 -1 46 -16 25 -19 -28 -34 -29 -51 -3 -20 32 -32 23 -32 -25z"/>
 <path d="M400 55 c0 -32 3 -35 28 -35 23 1 24 2 10 11 -10 5 -18 21 -18 34 0 14 -4 25 -10 25 -5 0 -10 -16 -10 -35z"/>
 </g>
<g id="layer105" fill="#9eb0c4" stroke="none">
 <path d="M20 580 l0 -50 45 0 45 0 0 50 0 50 -45 0 -45 0 0 -50z"/>
 <path d="M140 580 l0 -50 50 0 50 0 0 50 0 50 -50 0 -50 0 0 -50z"/>
 <path d="M270 580 l0 -50 50 0 50 0 0 50 0 50 -50 0 -50 0 0 -50z"/>
 <path d="M400 580 l0 -50 50 0 50 0 0 50 0 50 -50 0 -50 0 0 -50z"/>
 <path d="M530 580 l0 -50 50 0 50 0 0 50 0 50 -50 0 -50 0 0 -50z"/>
 <path d="M20 450 l0 -50 45 0 45 0 0 50 0 50 -45 0 -45 0 0 -50z"/>
 <path d="M140 450 l0 -50 50 0 50 0 0 50 0 50 -50 0 -50 0 0 -50z"/>
 <path d="M270 450 l0 -50 50 0 50 0 0 50 0 50 -50 0 -50 0 0 -50z"/>
 <path d="M400 450 l0 -50 50 0 50 0 0 50 0 50 -50 0 -50 0 0 -50z"/>
 <path d="M530 450 l0 -50 50 0 50 0 0 50 0 50 -50 0 -50 0 0 -50z"/>
 <path d="M20 320 l0 -50 45 0 45 0 0 50 0 50 -45 0 -45 0 0 -50z"/>
 <path d="M140 320 l0 -50 50 0 50 0 0 50 0 50 -50 0 -50 0 0 -50z"/>
 <path d="M270 320 l0 -50 50 0 50 0 0 50 0 50 -50 0 -50 0 0 -50z"/>
 <path d="M400 320 l0 -50 50 0 50 0 0 50 0 50 -50 0 -50 0 0 -50z"/>
 <path d="M530 325 c0 -29 4 -45 13 -45 20 0 35 14 46 43 6 15 17 27 26 27 8 0 15 5 15 10 0 6 -22 10 -50 10 l-50 0 0 -45z"/>
 <path d="M20 190 l0 -50 45 0 45 0 0 50 0 50 -45 0 -45 0 0 -50z"/>
 <path d="M140 190 c0 -42 3 -50 19 -50 11 0 21 9 24 21 5 17 11 20 31 15 24 -6 26 -4 26 29 l0 35 -50 0 -50 0 0 -50z"/>
 <path d="M270 208 l1 -33 23 28 c20 24 26 27 49 18 22 -9 27 -8 27 4 0 11 -13 15 -50 15 -50 0 -50 0 -50 -32z"/>
 <path d="M400 215 c0 -14 5 -25 11 -25 6 0 24 11 41 25 l30 25 -41 0 c-37 0 -41 -2 -41 -25z"/>
 <path d="M616 172 c-4 -13 -5 -26 -2 -29 10 -11 18 4 14 29 l-4 23 -8 -23z"/>
 <path d="M20 65 c0 -38 3 -45 20 -45 12 0 20 7 20 17 0 9 12 30 27 45 l27 28 -47 0 -47 0 0 -45z"/>
 <path d="M148 98 c15 -15 15 -51 0 -66 -9 -9 0 -12 40 -12 l52 0 0 34 c0 29 -3 33 -20 29 -14 -4 -20 0 -20 11 0 11 -9 16 -32 16 -25 0 -29 -3 -20 -12z"/>
 <path d="M270 65 l0 -45 50 0 50 0 0 39 c0 42 -13 51 -72 51 -26 0 -28 -3 -28 -45z"/>
 <path d="M592 50 l-32 -30 35 0 c32 0 35 2 35 30 0 17 -1 30 -2 30 -2 0 -18 -14 -36 -30z"/>
 <path d="M402 45 c0 -17 2 -22 5 -12 2 9 2 23 0 30 -3 6 -5 -1 -5 -18z"/>
 </g>
<g id="layer106" fill="#a8bace" stroke="none">
 <path d="M20 580 l0 -50 45 0 45 0 0 50 0 50 -45 0 -45 0 0 -50z"/>
 <path d="M140 580 l0 -50 50 0 50 0 0 50 0 50 -50 0 -50 0 0 -50z"/>
 <path d="M270 580 l0 -50 50 0 50 0 0 50 0 50 -50 0 -50 0 0 -50z"/>
 <path d="M400 578 c0 -45 2 -49 13 -34 10 14 17 15 40 7 43 -17 47 -14 47 34 l0 45 -50 0 -50 0 0 -52z"/>
 <path d="M530 580 l0 -50 50 0 50 0 0 50 0 50 -50 0 -50 0 0 -50z"/>
 <path d="M20 450 l0 -50 45 0 45 0 0 50 0 50 -45 0 -45 0 0 -50z"/>
 <path d="M140 450 l0 -50 50 0 50 0 0 50 0 50 -50 0 -50 0 0 -50z"/>
 <path d="M270 450 l0 -50 50 0 50 0 0 50 0 50 -50 0 -50 0 0 -50z"/>
 <path d="M400 450 l0 -50 50 0 50 0 0 50 c0 54 -4 58 -37 35 -18 -13 -22 -13 -33 0 -22 26 -30 16 -30 -35z"/>
 <path d="M530 450 l0 -50 50 0 50 0 0 50 0 50 -50 0 -50 0 0 -50z"/>
 <path d="M33 363 c21 -6 22 -17 2 -33 -8 -7 -15 -23 -15 -36 0 -22 4 -24 45 -24 l45 0 0 50 0 50 -47 -1 c-27 -1 -40 -3 -30 -6z"/>
 <path d="M140 320 l0 -50 50 0 50 0 0 50 0 50 -50 0 -50 0 0 -50z"/>
 <path d="M270 320 l0 -50 50 0 50 0 0 50 0 50 -50 0 -50 0 0 -50z"/>
 <path d="M400 320 l0 -50 46 0 c44 0 46 1 40 25 -4 14 -2 25 4 25 5 0 10 11 10 25 0 23 -3 25 -50 25 l-50 0 0 -50z"/>
 <path d="M530 360 c0 -12 44 -12 80 0 20 6 14 8 -27 9 -29 1 -53 -3 -53 -9z"/>
 <path d="M530 316 c0 -9 5 -16 10 -16 6 0 10 4 10 9 0 6 -4 13 -10 16 -5 3 -10 -1 -10 -9z"/>
 <path d="M26 218 c-3 -13 -6 -35 -6 -50 0 -26 3 -28 45 -28 l45 0 0 50 0 50 -39 0 c-32 0 -40 -4 -45 -22z"/>
 <path d="M141 193 c0 -27 3 -42 6 -35 7 19 59 43 77 36 12 -5 16 0 16 20 0 25 -3 26 -50 26 l-50 0 1 -47z"/>
 <path d="M270 218 c0 -19 2 -20 10 -8 13 19 13 30 0 30 -5 0 -10 -10 -10 -22z"/>
 <path d="M348 233 c7 -3 16 -2 19 1 4 3 -2 6 -13 5 -11 0 -14 -3 -6 -6z"/>
 <path d="M400 230 c0 -13 20 -13 40 0 12 8 9 10 -12 10 -16 0 -28 -4 -28 -10z"/>
 <path d="M20 65 c0 -25 5 -45 10 -45 6 0 10 4 10 9 0 4 11 25 25 45 l24 36 -34 0 c-35 0 -35 0 -35 -45z"/>
 <path d="M270 60 l0 -40 50 0 c49 0 50 1 50 30 0 34 -23 50 -69 50 -29 0 -31 -2 -31 -40z"/>
 <path d="M204 65 c-17 -8 -34 -21 -37 -30 -5 -12 2 -15 33 -15 38 0 40 2 40 30 0 17 -1 30 -2 29 -2 0 -17 -7 -34 -14z"/>
 <path d="M605 40 c-18 -19 -17 -20 3 -20 15 0 22 6 22 20 0 11 -2 20 -3 20 -2 0 -12 -9 -22 -20z"/>
 </g>
<g id="layer107" fill="#b4c6da" stroke="none">
 <path d="M180 615 c0 -8 -9 -19 -20 -25 -12 -6 -20 -21 -20 -35 0 -23 4 -25 50 -25 l50 0 0 50 c0 49 -1 50 -30 50 -20 0 -30 -5 -30 -15z"/>
 <path d="M270 580 l0 -50 50 0 50 0 0 50 0 50 -50 0 -50 0 0 -50z"/>
 <path d="M400 603 c0 -27 2 -28 47 -28 37 0 48 4 51 17 2 12 -7 20 -35 27 -56 16 -63 14 -63 -16z"/>
 <path d="M530 580 l0 -50 50 0 50 0 0 50 0 50 -50 0 -50 0 0 -50z"/>
 <path d="M53 602 c-26 -12 -33 -22 -33 -44 0 -27 2 -28 45 -28 l45 0 0 45 c0 50 -5 52 -57 27z"/>
 <path d="M20 450 l0 -50 45 0 45 0 0 50 0 50 -45 0 -45 0 0 -50z"/>
 <path d="M140 450 l0 -50 50 0 50 0 0 50 0 50 -50 0 -50 0 0 -50z"/>
 <path d="M270 450 l0 -50 50 0 50 0 0 50 0 50 -50 0 -50 0 0 -50z"/>
 <path d="M530 450 l0 -50 50 0 50 0 0 50 0 50 -50 0 -50 0 0 -50z"/>
 <path d="M401 443 l-1 -43 50 0 50 0 0 42 0 41 -23 -21 c-29 -28 -41 -28 -60 1 -16 21 -16 21 -16 -20z"/>
 <path d="M80 359 c0 -7 -11 -22 -25 -35 -38 -35 -33 -54 15 -54 l40 0 0 50 c0 38 -4 50 -15 50 -8 0 -15 -5 -15 -11z"/>
 <path d="M140 320 l0 -50 50 0 50 0 0 50 0 50 -50 0 -50 0 0 -50z"/>
 <path d="M270 322 l0 -49 45 -1 c38 0 45 3 45 19 0 10 -6 19 -13 19 -14 0 -47 31 -47 43 0 16 39 5 53 -15 l16 -23 0 28 c1 26 -1 27 -49 27 l-50 0 0 -48z"/>
 <path d="M400 344 c0 -26 1 -26 25 -10 13 9 36 16 50 16 14 0 25 5 25 10 0 6 -22 10 -50 10 -47 0 -50 -1 -50 -26z"/>
 <path d="M440 280 c0 -7 3 -10 7 -7 3 4 3 10 0 14 -4 3 -7 0 -7 -7z"/>
 <path d="M140 226 c0 -22 15 -27 59 -20 61 10 54 34 -9 34 -37 0 -50 -4 -50 -14z"/>
 <path d="M32 200 c-6 -11 -12 -29 -12 -40 0 -17 7 -20 45 -20 50 0 58 16 29 58 -19 27 -45 28 -62 2z"/>
 <path d="M26 78 c-3 -17 -5 -32 -4 -33 2 -2 13 13 25 31 21 32 21 34 4 34 -13 0 -20 -10 -25 -32z"/>
 <path d="M270 55 l0 -35 50 0 c46 0 50 2 50 25 0 28 -25 45 -69 45 -29 0 -31 -3 -31 -35z"/>
 <path d="M199 40 l-24 -19 33 -1 c25 0 32 4 32 20 0 25 -11 25 -41 0z"/>
 <path d="M616 35 c-3 -8 -1 -15 4 -15 6 0 10 7 10 15 0 8 -2 15 -4 15 -2 0 -6 -7 -10 -15z"/>
 </g>
<g id="layer108" fill="#c1d3e7" stroke="none">
 <path d="M200 611 c0 -12 -12 -25 -30 -33 -17 -7 -30 -21 -30 -30 0 -15 9 -18 50 -18 l50 0 0 50 c0 43 -3 50 -20 50 -13 0 -20 -7 -20 -19z"/>
 <path d="M270 580 l0 -50 50 0 50 0 0 50 0 50 -50 0 -50 0 0 -50z"/>
 <path d="M555 608 c-2 -7 -5 -28 -8 -45 -4 -33 -3 -33 40 -33 38 0 43 2 43 23 0 40 -64 87 -75 55z"/>
 <path d="M20 555 c0 -23 4 -25 45 -25 37 0 45 3 45 19 0 19 -25 31 -67 31 -18 0 -23 -6 -23 -25z"/>
 <path d="M20 453 l0 -48 45 -2 45 -1 0 49 0 49 -45 0 -45 0 0 -47z"/>
 <path d="M140 450 l0 -50 50 0 50 0 0 50 0 50 -50 0 -50 0 0 -50z"/>
 <path d="M270 450 l0 -50 50 0 c49 0 50 1 50 29 0 25 -3 28 -21 24 -25 -7 -43 15 -27 34 8 10 4 13 -21 13 -31 0 -31 -1 -31 -50z"/>
 <path d="M530 495 c0 -3 7 -17 16 -30 9 -14 13 -33 9 -45 -6 -18 -2 -20 34 -20 l41 0 0 50 0 50 -50 0 c-27 0 -50 -2 -50 -5z"/>
 <path d="M400 431 c0 -30 1 -31 50 -31 38 0 50 4 50 15 0 18 -21 20 -39 3 -10 -11 -17 -7 -37 15 l-24 28 0 -30z"/>
 <path d="M96 345 c-3 -13 -15 -29 -26 -35 -27 -14 -17 -29 15 -22 22 4 25 10 25 43 0 45 -5 50 -14 14z"/>
 <path d="M140 320 l0 -50 36 0 c25 0 35 4 31 13 -20 48 -20 50 -6 45 8 -3 16 -13 17 -24 8 -44 22 -35 22 14 l0 52 -50 0 -50 0 0 -50z"/>
 <path d="M360 360 c0 -7 3 -10 7 -7 3 4 3 10 0 14 -4 3 -7 0 -7 -7z"/>
 <path d="M400 354 c0 -14 3 -14 15 -4 8 7 15 14 15 16 0 2 -7 4 -15 4 -8 0 -15 -7 -15 -16z"/>
 <path d="M270 299 c0 -11 5 -17 10 -14 6 3 10 13 10 21 0 8 -4 14 -10 14 -5 0 -10 -9 -10 -21z"/>
 <path d="M150 230 c0 -5 9 -10 19 -10 11 0 23 5 26 10 4 6 -5 10 -19 10 -14 0 -26 -4 -26 -10z"/>
 <path d="M42 188 c-7 -7 -12 -20 -12 -30 0 -13 8 -18 30 -18 32 0 36 9 20 41 -12 22 -21 24 -38 7z"/>
 <path d="M277 73 c-4 -3 -7 -17 -7 -30 0 -21 4 -23 50 -23 43 0 49 2 43 18 -3 9 -10 23 -16 30 -10 13 -59 17 -70 5z"/>
 <path d="M210 35 c-10 -13 -9 -15 9 -15 12 0 21 6 21 15 0 8 -4 15 -9 15 -5 0 -14 -7 -21 -15z"/>
 </g>
<g id="layer109" fill="#d4e6f9" stroke="none">
 <path d="M310 611 c0 -11 -9 -25 -20 -31 -11 -6 -20 -20 -20 -30 0 -17 7 -20 40 -20 44 0 51 8 54 62 1 29 -2 33 -26 36 -23 3 -28 -1 -28 -17z"/>
 <path d="M173 554 c-18 -8 -33 -16 -33 -19 0 -3 23 -5 51 -5 43 0 50 3 47 17 -4 23 -25 25 -65 7z"/>
 <path d="M576 555 c-9 -25 -9 -25 24 -25 20 0 30 5 30 15 0 8 -4 15 -9 15 -5 0 -16 3 -24 6 -8 3 -17 -2 -21 -11z"/>
 <path d="M20 540 c0 -5 21 -10 48 -9 35 0 42 3 27 9 -28 12 -75 12 -75 0z"/>
 <path d="M20 490 c0 -12 17 -12 45 0 17 7 15 9 -12 9 -18 1 -33 -3 -33 -9z"/>
 <path d="M93 493 c4 -3 10 -3 14 0 3 4 0 7 -7 7 -7 0 -10 -3 -7 -7z"/>
 <path d="M140 450 l0 -50 50 0 50 0 0 50 0 50 -50 0 -50 0 0 -50z"/>
 <path d="M570 479 c14 -24 53 -22 58 4 3 14 -4 17 -33 17 -33 0 -35 -2 -25 -21z"/>
 <path d="M83 454 c-3 -8 2 -23 11 -32 15 -15 16 -14 16 16 0 33 -16 43 -27 16z"/>
 <path d="M270 419 c0 -5 5 -7 10 -4 6 3 10 8 10 11 0 2 -4 4 -10 4 -5 0 -10 -5 -10 -11z"/>
 <path d="M270 40 c0 -5 11 -10 25 -10 14 0 25 5 25 10 0 6 -11 10 -25 10 -14 0 -25 -4 -25 -10z"/>
 </g>

</svg>