<!DOCTYPE svg PUBLIC "-//W3C//DTD SVG 20010904//EN" "http://www.w3.org/TR/2001/REC-SVG-20010904/DTD/svg10.dtd">
<svg version="1.0" xmlns="http://www.w3.org/2000/svg" width="32px" height="32px" viewBox="0 0 320 320" preserveAspectRatio="xMidYMid meet">
<g id="layer101" fill="#000000" stroke="none">
 <path d="M0 160 l0 -160 160 0 160 0 0 160 0 160 -160 0 -160 0 0 -160z"/>
 </g>
<g id="layer102" fill="#313131" stroke="none">
 <path d="M10 285 c0 -33 2 -35 35 -35 33 0 35 2 35 35 0 33 -2 35 -35 35 -33 0 -35 -2 -35 -35z"/>
 <path d="M90 285 l0 -35 75 0 75 0 0 35 0 35 -75 0 -75 0 0 -35z"/>
 <path d="M250 245 l0 -75 35 0 35 0 0 75 0 75 -35 0 -35 0 0 -75z"/>
 <path d="M10 165 l0 -75 75 0 75 0 0 75 0 75 -75 0 -75 0 0 -75z"/>
 <path d="M170 165 l0 -75 35 0 35 0 0 75 0 75 -35 0 -35 0 0 -75z"/>
 <path d="M250 125 c0 -33 2 -35 35 -35 33 0 35 2 35 35 0 33 -2 35 -35 35 -33 0 -35 -2 -35 -35z"/>
 <path d="M10 45 c0 -33 2 -35 35 -35 33 0 35 2 35 35 0 33 -2 35 -35 35 -33 0 -35 -2 -35 -35z"/>
 <path d="M90 40 l0 -40 75 0 75 0 0 40 0 40 -75 0 -75 0 0 -40z"/>
 <path d="M250 45 c0 -33 2 -35 35 -35 33 0 35 2 35 35 0 33 -2 35 -35 35 -33 0 -35 -2 -35 -35z"/>
 </g>
<g id="layer103" fill="#565656" stroke="none">
 <path d="M100 290 l0 -30 65 0 65 0 0 30 0 30 -65 0 -65 0 0 -30z"/>
 <path d="M20 285 c0 -20 5 -25 25 -25 20 0 25 5 25 25 0 20 -5 25 -25 25 -20 0 -25 -5 -25 -25z"/>
 <path d="M260 245 c0 -63 1 -65 25 -65 24 0 25 2 25 65 0 63 -1 65 -25 65 -24 0 -25 -2 -25 -65z"/>
 <path d="M20 165 l0 -65 65 0 65 0 0 65 0 65 -65 0 -65 0 0 -65z"/>
 <path d="M180 165 c0 -63 1 -65 25 -65 24 0 25 2 25 65 0 63 -1 65 -25 65 -24 0 -25 -2 -25 -65z"/>
 <path d="M260 125 c0 -20 5 -25 25 -25 20 0 25 5 25 25 0 20 -5 25 -25 25 -20 0 -25 -5 -25 -25z"/>
 <path d="M153 73 c-53 -4 -53 -4 -53 -39 l0 -34 64 0 c63 0 64 0 70 31 9 45 8 49 -11 47 -10 -1 -42 -3 -70 -5z"/>
 <path d="M20 45 c0 -20 5 -25 25 -25 20 0 25 5 25 25 0 20 -5 25 -25 25 -20 0 -25 -5 -25 -25z"/>
 <path d="M258 64 c-14 -13 6 -44 28 -44 19 0 24 5 24 25 0 20 -5 25 -23 25 -13 0 -26 -3 -29 -6z"/>
 </g>
<g id="layer104" fill="#6d6d6d" stroke="none">
 <path d="M218 290 c2 -16 6 -30 8 -30 2 0 4 14 4 30 0 17 -4 30 -8 30 -5 0 -7 -13 -4 -30z"/>
 <path d="M21 150 l1 -45 11 33 c7 24 7 36 -1 44 -9 9 -12 1 -11 -32z"/>
 <path d="M288 183 c7 -3 16 -2 19 1 4 3 -2 6 -13 5 -11 0 -14 -3 -6 -6z"/>
 <path d="M260 125 c0 -20 5 -25 25 -25 20 0 25 5 25 25 0 20 -5 25 -25 25 -20 0 -25 -5 -25 -25z"/>
 <path d="M180 120 c0 -15 7 -20 25 -20 18 0 25 5 25 20 0 15 -7 20 -25 20 -18 0 -25 -5 -25 -20z"/>
 <path d="M100 110 l-35 -7 43 -2 c23 0 42 4 42 9 0 6 -3 9 -7 9 -5 -1 -24 -5 -43 -9z"/>
 <path d="M20 45 c0 -20 5 -25 25 -25 20 0 25 5 25 25 0 20 -5 25 -25 25 -20 0 -25 -5 -25 -25z"/>
 <path d="M100 51 c0 -16 6 -18 38 -14 29 4 41 0 56 -16 27 -30 36 -26 36 14 l0 35 -65 0 c-57 0 -65 -2 -65 -19z"/>
 <path d="M260 45 c0 -20 5 -25 25 -25 20 0 25 5 25 25 0 20 -5 25 -25 25 -20 0 -25 -5 -25 -25z"/>
 </g>
<g id="layer105" fill="#868686" stroke="none">
 <path d="M282 120 c-7 -11 -8 -20 -3 -20 9 0 24 30 18 36 -1 2 -8 -6 -15 -16z"/>
 <path d="M188 103 c6 -2 18 -2 25 0 6 3 1 5 -13 5 -14 0 -19 -2 -12 -5z"/>
 <path d="M185 60 c3 -5 15 -15 26 -20 16 -9 19 -7 19 10 0 15 -7 20 -26 20 -14 0 -22 -4 -19 -10z"/>
 <path d="M260 49 c0 -11 5 -17 10 -14 6 3 10 13 10 21 0 8 -4 14 -10 14 -5 0 -10 -9 -10 -21z"/>
 </g>

</svg>