<!DOCTYPE svg PUBLIC "-//W3C//DTD SVG 20010904//EN" "http://www.w3.org/TR/2001/REC-SVG-20010904/DTD/svg10.dtd">
<svg version="1.0" xmlns="http://www.w3.org/2000/svg" width="32px" height="32px" viewBox="0 0 320 320" preserveAspectRatio="xMidYMid meet">
<g id="layer101" fill="#000000" stroke="none">
 <path d="M0 160 l0 -160 160 0 160 0 0 160 0 160 -160 0 -160 0 0 -160z"/>
 </g>
<g id="layer102" fill="#3f1f0d" stroke="none">
 <path d="M10 285 c0 -33 2 -35 35 -35 33 0 35 2 35 35 0 33 -2 35 -35 35 -33 0 -35 -2 -35 -35z"/>
 <path d="M90 285 l0 -35 75 0 75 0 0 35 0 35 -75 0 -75 0 0 -35z"/>
 <path d="M250 245 l0 -75 35 0 35 0 0 75 0 75 -35 0 -35 0 0 -75z"/>
 <path d="M10 165 l0 -75 75 0 75 0 0 75 0 75 -75 0 -75 0 0 -75z"/>
 <path d="M170 165 l0 -75 35 0 35 0 0 75 0 75 -35 0 -35 0 0 -75z"/>
 <path d="M250 125 c0 -33 2 -35 35 -35 33 0 35 2 35 35 0 33 -2 35 -35 35 -33 0 -35 -2 -35 -35z"/>
 <path d="M10 45 c0 -33 2 -35 35 -35 33 0 35 2 35 35 0 33 -2 35 -35 35 -33 0 -35 -2 -35 -35z"/>
 <path d="M90 40 l0 -40 75 0 75 0 0 40 0 40 -75 0 -75 0 0 -40z"/>
 <path d="M250 45 c0 -33 2 -35 35 -35 33 0 35 2 35 35 0 33 -2 35 -35 35 -33 0 -35 -2 -35 -35z"/>
 </g>
<g id="layer103" fill="#502811" stroke="none">
 <path d="M18 290 c3 -24 9 -30 28 -30 14 0 24 6 24 14 0 8 3 21 6 30 5 13 -1 16 -28 16 -33 0 -34 -2 -30 -30z"/>
 <path d="M100 290 c0 -28 2 -30 39 -30 21 0 53 -3 70 -6 30 -6 31 -6 31 30 l0 36 -70 0 -70 0 0 -30z"/>
 <path d="M250 245 l0 -75 34 0 34 0 -5 63 c-6 82 -8 87 -38 87 -25 0 -25 -1 -25 -75z"/>
 <path d="M194 232 c-6 -4 -15 -37 -18 -74 l-8 -68 35 0 36 0 -1 75 c-1 62 -4 75 -17 75 -9 0 -21 -4 -27 -8z"/>
 <path d="M16 208 c-3 -13 -6 -44 -6 -70 l0 -48 76 0 77 0 -7 46 c-3 26 -6 57 -6 70 0 23 -3 24 -64 24 -58 0 -64 -2 -70 -22z"/>
 <path d="M250 125 c0 -33 2 -35 35 -35 33 0 35 2 35 35 0 33 -2 35 -35 35 -33 0 -35 -2 -35 -35z"/>
 <path d="M10 45 c0 -33 2 -35 35 -35 33 0 35 2 35 35 0 33 -2 35 -35 35 -33 0 -35 -2 -35 -35z"/>
 <path d="M90 40 l0 -40 75 0 75 0 0 40 0 40 -75 0 -75 0 0 -40z"/>
 <path d="M250 45 c0 -33 2 -35 35 -35 33 0 35 2 35 35 0 33 -2 35 -35 35 -33 0 -35 -2 -35 -35z"/>
 </g>
<g id="layer104" fill="#763b1a" stroke="none">
 <path d="M100 290 l0 -30 65 0 65 0 0 30 0 30 -65 0 -65 0 0 -30z"/>
 <path d="M20 285 c0 -20 5 -25 25 -25 20 0 25 5 25 25 0 20 -5 25 -25 25 -20 0 -25 -5 -25 -25z"/>
 <path d="M260 245 c0 -63 1 -65 25 -65 24 0 25 2 25 65 0 63 -1 65 -25 65 -24 0 -25 -2 -25 -65z"/>
 <path d="M20 165 l0 -65 65 0 65 0 0 65 0 65 -65 0 -65 0 0 -65z"/>
 <path d="M180 160 c0 -68 1 -70 25 -70 24 0 25 2 25 70 0 68 -1 70 -25 70 -24 0 -25 -2 -25 -70z"/>
 <path d="M260 125 c0 -20 5 -25 25 -25 20 0 25 5 25 25 0 20 -5 25 -25 25 -20 0 -25 -5 -25 -25z"/>
 <path d="M138 73 c-36 -4 -38 -6 -38 -39 l0 -34 64 0 c58 0 64 2 70 22 16 60 12 62 -96 51z"/>
 <path d="M252 54 c2 -23 9 -30 31 -32 23 -3 27 0 27 22 0 16 -6 26 -14 26 -8 0 -22 3 -31 6 -13 6 -16 1 -13 -22z"/>
 <path d="M20 45 c0 -20 5 -25 25 -25 20 0 25 5 25 25 0 20 -5 25 -25 25 -20 0 -25 -5 -25 -25z"/>
 </g>
<g id="layer105" fill="#87431e" stroke="none">
 <path d="M100 300 c0 -17 3 -19 19 -10 32 16 34 30 7 30 -19 0 -26 -5 -26 -20z"/>
 <path d="M166 305 c4 -8 1 -22 -6 -30 -11 -13 -7 -15 29 -15 39 0 41 2 41 30 0 28 -3 30 -35 30 -27 0 -33 -3 -29 -15z"/>
 <path d="M20 284 c0 -21 4 -25 23 -22 14 2 23 11 25 26 3 18 -1 22 -22 22 -21 0 -26 -5 -26 -26z"/>
 <path d="M260 245 c0 -63 1 -65 25 -65 24 0 25 2 25 65 0 63 -1 65 -25 65 -24 0 -25 -2 -25 -65z"/>
 <path d="M20 166 l0 -66 65 0 65 0 0 66 0 66 -27 -6 c-16 -4 -32 -7 -38 -7 -5 0 -22 3 -37 7 l-28 6 0 -66z"/>
 <path d="M180 165 c0 -63 1 -65 25 -65 24 0 25 2 25 65 0 63 -1 65 -25 65 -24 0 -25 -2 -25 -65z"/>
 <path d="M260 125 c0 -20 5 -25 25 -25 20 0 25 5 25 25 0 20 -5 25 -25 25 -20 0 -25 -5 -25 -25z"/>
 <path d="M20 45 c0 -20 5 -25 25 -25 20 0 25 5 25 25 0 20 -5 25 -25 25 -20 0 -25 -5 -25 -25z"/>
 <path d="M100 35 l0 -35 65 0 65 0 0 35 0 35 -65 0 -65 0 0 -35z"/>
 <path d="M260 45 c0 -20 5 -25 25 -25 20 0 25 5 25 25 0 20 -5 25 -25 25 -20 0 -25 -5 -25 -25z"/>
 </g>
<g id="layer106" fill="#994c22" stroke="none">
 <path d="M204 290 c-1 -19 4 -30 12 -30 9 0 14 11 14 30 0 40 -25 40 -26 0z"/>
 <path d="M38 303 c6 -2 18 -2 25 0 6 3 1 5 -13 5 -14 0 -19 -2 -12 -5z"/>
 <path d="M260 245 c0 -63 1 -65 25 -65 30 0 33 16 5 23 -16 4 -20 14 -20 44 0 21 5 44 12 51 9 9 8 12 -5 12 -14 0 -17 -10 -17 -65z"/>
 <path d="M210 221 c0 -6 5 -13 10 -16 6 -3 10 1 10 9 0 9 -4 16 -10 16 -5 0 -10 -4 -10 -9z"/>
 <path d="M20 151 l0 -51 65 0 c57 0 65 2 65 19 0 17 -4 18 -42 10 -47 -11 -55 -6 -60 35 -2 16 -9 31 -15 34 -9 2 -13 -11 -13 -47z"/>
 <path d="M180 130 c0 -25 4 -30 25 -30 21 0 25 5 25 30 0 25 -4 30 -25 30 -21 0 -25 -5 -25 -30z"/>
 <path d="M260 125 c0 -20 5 -25 25 -25 20 0 25 5 25 25 0 20 -5 25 -25 25 -20 0 -25 -5 -25 -25z"/>
 <path d="M20 45 c0 -20 5 -25 25 -25 20 0 25 5 25 25 0 20 -5 25 -25 25 -20 0 -25 -5 -25 -25z"/>
 <path d="M100 41 c0 -29 1 -29 27 -16 26 14 54 8 68 -15 15 -24 35 -9 35 25 l0 35 -65 0 -65 0 0 -29z"/>
 <path d="M260 45 c0 -20 5 -25 25 -25 20 0 25 5 25 25 0 20 -5 25 -25 25 -20 0 -25 -5 -25 -25z"/>
 </g>
<g id="layer107" fill="#b05827" stroke="none">
 <path d="M20 160 c0 -7 3 -10 7 -7 3 4 3 10 0 14 -4 3 -7 0 -7 -7z"/>
 <path d="M260 125 c0 -20 5 -25 25 -25 20 0 25 5 25 25 0 20 -5 25 -25 25 -20 0 -25 -5 -25 -25z"/>
 <path d="M187 134 c-16 -16 -6 -34 19 -34 19 0 25 5 22 17 -3 19 -29 29 -41 17z"/>
 <path d="M33 63 c-7 -2 -13 -13 -13 -24 0 -14 7 -19 25 -19 20 0 25 5 25 25 0 24 -11 29 -37 18z"/>
 <path d="M100 56 c0 -11 8 -13 33 -9 26 4 40 -1 65 -22 l32 -27 0 36 0 36 -65 0 c-50 0 -65 -3 -65 -14z"/>
 <path d="M260 44 c0 -21 4 -25 23 -22 14 2 23 11 25 26 3 18 -1 22 -22 22 -21 0 -26 -5 -26 -26z"/>
 </g>
<g id="layer108" fill="#c1602b" stroke="none">
 <path d="M272 130 c-17 -27 -16 -30 13 -30 20 0 25 5 25 25 0 30 -20 33 -38 5z"/>
 <path d="M180 110 c0 -5 12 -10 26 -10 14 0 23 4 19 10 -3 6 -15 10 -26 10 -10 0 -19 -4 -19 -10z"/>
 <path d="M170 67 c0 -2 14 -13 30 -25 l30 -23 0 26 c0 21 -5 25 -30 25 -16 0 -30 -1 -30 -3z"/>
 <path d="M260 44 c0 -22 2 -25 15 -14 8 7 15 19 15 26 0 8 -7 14 -15 14 -10 0 -15 -10 -15 -26z"/>
 </g>
<g id="layer109" fill="#cc662d" stroke="none">
 <path d="M181 67 c2 -1 14 -11 27 -21 22 -19 22 -19 22 2 0 17 -6 22 -27 22 -14 0 -24 -1 -22 -3z"/>
 <path d="M260 55 c0 -8 2 -15 4 -15 2 0 6 7 10 15 3 8 1 15 -4 15 -6 0 -10 -7 -10 -15z"/>
 </g>

</svg>