<!DOCTYPE svg PUBLIC "-//W3C//DTD SVG 20010904//EN" "http://www.w3.org/TR/2001/REC-SVG-20010904/DTD/svg10.dtd">
<svg version="1.0" xmlns="http://www.w3.org/2000/svg" width="64px" height="64px" viewBox="0 0 640 640" preserveAspectRatio="xMidYMid meet">
<g id="layer101" fill="#0a0e13" stroke="none">
 <path d="M0 320 l0 -320 320 0 320 0 0 320 0 320 -320 0 -320 0 0 -320z"/>
 </g>
<g id="layer102" fill="#151d26" stroke="none">
 <path d="M20 580 l0 -50 45 0 45 0 0 50 0 50 -45 0 -45 0 0 -50z"/>
 <path d="M140 580 l0 -50 50 0 50 0 0 50 0 50 -50 0 -50 0 0 -50z"/>
 <path d="M270 580 l0 -50 50 0 50 0 0 50 0 50 -50 0 -50 0 0 -50z"/>
 <path d="M400 580 l0 -50 50 0 50 0 0 50 0 50 -50 0 -50 0 0 -50z"/>
 <path d="M530 580 l0 -50 50 0 50 0 0 50 0 50 -50 0 -50 0 0 -50z"/>
 <path d="M20 450 l0 -50 45 0 45 0 0 50 0 50 -45 0 -45 0 0 -50z"/>
 <path d="M140 450 l0 -50 50 0 50 0 0 50 0 50 -50 0 -50 0 0 -50z"/>
 <path d="M270 450 l0 -50 50 0 50 0 0 50 0 50 -50 0 -50 0 0 -50z"/>
 <path d="M400 450 l0 -50 50 0 50 0 0 50 0 50 -50 0 -50 0 0 -50z"/>
 <path d="M530 450 l0 -50 50 0 50 0 0 50 0 50 -50 0 -50 0 0 -50z"/>
 <path d="M20 320 l0 -50 45 0 45 0 0 50 0 50 -45 0 -45 0 0 -50z"/>
 <path d="M140 320 l0 -50 50 0 50 0 0 50 0 50 -50 0 -50 0 0 -50z"/>
 <path d="M270 320 l0 -50 50 0 50 0 0 50 0 50 -50 0 -50 0 0 -50z"/>
 <path d="M400 320 l0 -50 50 0 50 0 0 50 0 50 -50 0 -50 0 0 -50z"/>
 <path d="M530 320 l0 -50 50 0 50 0 0 50 0 50 -50 0 -50 0 0 -50z"/>
 <path d="M20 190 l0 -50 45 0 45 0 0 50 0 50 -45 0 -45 0 0 -50z"/>
 <path d="M140 190 l0 -50 50 0 50 0 0 50 0 50 -50 0 -50 0 0 -50z"/>
 <path d="M270 190 c0 -38 4 -50 15 -50 8 0 15 6 15 14 0 27 29 47 51 36 17 -10 19 -7 19 20 0 29 -1 30 -50 30 l-50 0 0 -50z"/>
 <path d="M402 193 l3 -48 48 -3 47 -3 0 50 0 51 -51 0 -50 0 3 -47z"/>
 <path d="M615 220 c-3 -5 -24 -10 -46 -10 -38 0 -39 -1 -39 -35 l0 -35 50 0 50 0 0 45 c0 45 -4 54 -15 35z"/>
 <path d="M20 65 l0 -45 45 0 45 0 0 45 0 45 -45 0 -45 0 0 -45z"/>
 <path d="M140 65 l0 -45 50 0 50 0 0 45 0 45 -50 0 -50 0 0 -45z"/>
 <path d="M270 65 l0 -45 50 0 50 0 0 45 0 45 -50 0 -50 0 0 -45z"/>
 <path d="M400 65 l0 -45 53 1 c49 1 50 1 20 10 -36 10 -38 15 -23 53 9 24 8 26 -20 26 -29 0 -30 -2 -30 -45z"/>
 <path d="M530 65 l0 -45 50 0 50 0 0 45 0 45 -50 0 -50 0 0 -45z"/>
 </g>
<g id="layer103" fill="#1b2532" stroke="none">
 <path d="M180 611 c0 -11 -9 -23 -20 -26 -13 -4 -20 -15 -20 -31 0 -22 4 -24 50 -24 l50 0 0 50 c0 49 -1 50 -30 50 -23 0 -30 -5 -30 -19z"/>
 <path d="M270 580 l0 -50 50 0 50 0 0 50 0 50 -50 0 -50 0 0 -50z"/>
 <path d="M400 605 c0 -19 7 -24 38 -27 20 -3 43 -3 50 0 13 4 17 32 5 32 -5 1 -27 5 -50 9 -40 8 -43 7 -43 -14z"/>
 <path d="M533 580 l2 -50 48 0 48 0 -3 50 -3 50 -47 0 -48 0 3 -50z"/>
 <path d="M53 598 c-27 -9 -33 -16 -33 -39 0 -28 2 -29 45 -29 l45 0 0 40 c0 43 -4 45 -57 28z"/>
 <path d="M20 450 l0 -50 45 0 45 0 0 50 0 50 -45 0 -45 0 0 -50z"/>
 <path d="M140 450 l0 -50 50 0 50 0 0 50 0 50 -50 0 -50 0 0 -50z"/>
 <path d="M270 450 l0 -50 50 0 50 0 0 50 0 50 -50 0 -50 0 0 -50z"/>
 <path d="M532 450 l1 -50 49 0 48 0 0 50 0 50 -49 0 -50 0 1 -50z"/>
 <path d="M400 443 l0 -43 50 0 50 0 0 36 0 35 -27 -21 -28 -22 -22 29 -23 28 0 -42z"/>
 <path d="M63 328 c-18 -22 -30 -44 -27 -49 3 -5 21 -9 40 -9 l34 0 0 50 c0 28 -3 50 -7 49 -5 0 -23 -18 -40 -41z"/>
 <path d="M140 320 l0 -50 50 0 50 0 0 50 0 50 -50 0 -50 0 0 -50z"/>
 <path d="M270 321 l0 -50 38 6 c20 3 39 8 41 10 3 2 -11 17 -30 33 -28 25 -32 31 -19 40 12 8 11 10 -7 10 -21 0 -23 -5 -23 -49z"/>
 <path d="M340 361 c0 -5 7 -14 15 -21 13 -10 15 -9 15 9 0 12 -6 21 -15 21 -8 0 -15 -4 -15 -9z"/>
 <path d="M400 349 c0 -16 4 -19 18 -14 9 4 29 10 45 13 48 8 40 22 -12 22 -45 0 -51 -2 -51 -21z"/>
 <path d="M142 223 c3 -13 11 -17 28 -15 14 2 35 4 48 5 12 1 22 8 22 15 0 8 -17 12 -51 12 -43 0 -50 -3 -47 -17z"/>
 <path d="M37 202 c-10 -10 -17 -28 -17 -40 0 -19 5 -22 45 -22 47 0 53 7 34 43 -21 40 -39 45 -62 19z"/>
 <path d="M30 101 c0 -18 18 -21 30 -6 10 13 9 15 -9 15 -11 0 -21 -4 -21 -9z"/>
 <path d="M277 83 c-4 -3 -7 -19 -7 -35 0 -27 2 -28 50 -28 42 0 50 3 50 18 0 37 -69 70 -93 45z"/>
 <path d="M199 40 l-24 -19 33 -1 c25 0 32 4 32 20 0 25 -11 25 -41 0z"/>
 <path d="M620 30 c0 -7 3 -10 7 -7 3 4 3 10 0 14 -4 3 -7 0 -7 -7z"/>
 </g>

</svg>